<svg width="748" height="375" viewBox="0 0 748 375" fill="none" xmlns="http://www.w3.org/2000/svg">
<path d="M700.059 3.85635L701.733 3.48616L701.363 1.81159L699.688 2.18179L700.059 3.85635ZM705.21 27.1574L706.672 28.054L707.034 27.4635L706.884 26.7872L705.21 27.1574ZM649.633 117.782L648.171 116.885L648.167 116.892L648.164 116.898L649.633 117.782ZM635.311 143.315L636.841 144.091L636.842 144.089L635.311 143.315ZM637.064 199.117L638.275 197.903L638.268 197.895L637.064 199.117ZM653.336 208.067L653.745 206.402L653.737 206.4L653.729 206.398L653.336 208.067ZM703.016 161.843L702.646 160.168L700.971 160.539L701.342 162.213L703.016 161.843ZM733.703 155.059L735.377 154.689L735.007 153.014L733.333 153.385L733.703 155.059ZM732.277 191.052L730.656 190.491L730.656 190.491L732.277 191.052ZM712.718 219.052L711.623 217.731L711.617 217.737L712.718 219.052ZM641.901 234.817L642.35 233.161L642.337 233.158L641.901 234.817ZM613.089 218.492L614.309 217.287L614.305 217.283L613.089 218.492ZM596.993 165.424L598.687 165.694L598.689 165.681L596.993 165.424ZM606.696 136.766L605.152 136.019L605.15 136.025L606.696 136.766ZM629.643 96.452L631.096 97.3628L631.103 97.3521L631.11 97.3412L629.643 96.452ZM662.184 42.779L663.65 43.6681L664.007 43.0802L663.858 42.4088L662.184 42.779ZM661.839 41.2187L663.513 40.8485L663.143 39.1739L661.469 39.5441L661.839 41.2187ZM565.93 62.4211L564.256 62.7913L564.626 64.4659L566.3 64.0957L565.93 62.4211ZM559.836 34.8551L559.466 33.1806L557.791 33.5507L558.162 35.2253L559.836 34.8551ZM698.384 4.22655L703.535 27.5276L706.884 26.7872L701.733 3.48616L698.384 4.22655ZM703.748 26.2608L648.171 116.885L651.095 118.678L706.672 28.054L703.748 26.2608ZM648.164 116.898C642.246 126.736 637.45 135.285 633.781 142.541L636.842 144.089C640.461 136.932 645.212 128.459 651.103 118.666L648.164 116.898ZM633.782 142.539C630.035 149.926 627.489 156.766 626.18 163.052L629.538 163.751C630.77 157.837 633.191 151.286 636.841 144.091L633.782 142.539ZM626.18 163.052C624.859 169.395 624.918 175.811 626.349 182.283L629.698 181.543C628.369 175.532 628.319 169.607 629.538 163.751L626.18 163.052ZM626.349 182.283C627.973 189.628 631.126 195.676 635.861 200.339L638.268 197.895C634.075 193.766 631.202 188.345 629.698 181.543L626.349 182.283ZM635.853 200.332C640.565 205.029 646.275 208.165 652.942 209.736L653.729 206.398C647.658 204.967 642.52 202.135 638.275 197.903L635.853 200.332ZM652.926 209.732C659.596 211.374 666.663 211.351 674.101 209.706L673.36 206.357C666.373 207.902 659.844 207.902 653.745 206.402L652.926 209.732ZM674.101 209.706C681.961 207.969 688.549 204.824 693.798 200.225L691.538 197.646C686.794 201.802 680.757 204.722 673.36 206.357L674.101 209.706ZM693.798 200.225C699.043 195.63 702.62 189.975 704.505 183.293L701.204 182.362C699.5 188.402 696.286 193.485 691.538 197.646L693.798 200.225ZM704.505 183.293C706.389 176.614 706.427 169.327 704.691 161.473L701.342 162.213C702.978 169.616 702.908 176.318 701.204 182.362L704.505 183.293ZM703.386 163.518L734.073 156.734L733.333 153.385L702.646 160.168L703.386 163.518ZM732.028 155.429C734.836 168.132 734.356 179.803 730.656 190.491L733.897 191.613C737.832 180.247 738.303 167.923 735.377 154.689L732.028 155.429ZM730.656 190.491C726.944 201.214 720.61 210.287 711.623 217.731L713.812 220.373C723.268 212.539 729.974 202.945 733.897 191.613L730.656 190.491ZM711.617 217.737C702.647 225.247 691.681 230.457 678.669 233.333L679.41 236.682C692.889 233.702 704.375 228.275 713.819 220.367L711.617 217.737ZM678.669 233.333C665.512 236.242 653.417 236.164 642.35 233.161L641.452 236.472C653.135 239.641 665.799 239.691 679.41 236.682L678.669 233.333ZM642.337 233.158C631.185 230.229 621.858 224.935 614.309 217.287L611.868 219.697C619.879 227.812 629.76 233.401 641.466 236.475L642.337 233.158ZM614.305 217.283C606.785 209.716 601.787 200.386 599.323 189.24L595.973 189.98C598.569 201.719 603.864 211.643 611.872 219.701L614.305 217.283ZM599.323 189.24C597.623 181.55 597.409 173.706 598.686 165.694L595.299 165.154C593.955 173.579 594.178 181.858 595.973 189.98L599.323 189.24ZM598.689 165.681C599.896 157.704 603.058 148.32 608.243 137.508L605.15 136.025C599.879 147.017 596.573 156.739 595.297 165.167L598.689 165.681ZM608.24 137.513C613.444 126.759 621.058 113.379 631.096 97.3628L628.19 95.5412C618.118 111.611 610.433 125.108 605.152 136.019L608.24 137.513ZM631.11 97.3412L663.65 43.6681L660.717 41.8899L628.176 95.5629L631.11 97.3412ZM663.858 42.4088L663.513 40.8485L660.164 41.5889L660.509 43.1492L663.858 42.4088ZM661.469 39.5441L565.56 60.7465L566.3 64.0957L662.209 42.8932L661.469 39.5441ZM567.605 62.0509L561.511 34.4849L558.162 35.2253L564.256 62.7913L567.605 62.0509ZM560.206 36.5297L700.429 5.53092L699.688 2.18179L559.466 33.1806L560.206 36.5297ZM445.462 56.4301L445.098 54.754L445.091 54.7555L445.462 56.4301ZM525.501 91.7616L524.063 92.6969L525.501 91.7616ZM551.716 210.347L553.413 210.598L553.414 210.592L551.716 210.347ZM533.157 253.728L534.446 254.86L534.449 254.856L533.157 253.728ZM449.188 272.182L449.89 270.618L449.884 270.615L449.188 272.182ZM414.175 240.644L415.612 239.707L415.607 239.7L414.175 240.644ZM387.856 122.081L386.158 121.837L386.158 121.839L387.856 122.081ZM406.288 78.6194L404.996 77.4919L404.991 77.4969L406.288 78.6194ZM422.462 112.794L424.096 113.316L424.098 113.31L422.462 112.794ZM439.215 220.161L440.713 219.326L440.707 219.316L439.215 220.161ZM461.293 244.521L462.162 243.042L462.155 243.038L462.147 243.033L461.293 244.521ZM517.075 219.969L518.709 220.487L517.075 219.969ZM515.955 156.172L517.63 155.806L517.629 155.801L515.955 156.172ZM500.484 112.349L501.982 111.514L501.976 111.504L500.484 112.349ZM478.429 88.0931L479.289 86.6097L479.281 86.605L478.429 88.0931ZM445.825 58.1062C461.97 54.6084 476.594 55.8305 489.769 61.6867L491.162 58.5524C477.234 52.3613 461.855 51.1237 445.098 54.754L445.825 58.1062ZM489.769 61.6867C502.958 67.5495 514.4 77.8441 524.063 92.6969L526.938 90.8264C516.991 75.537 505.075 64.7368 491.162 58.5524L489.769 61.6867ZM524.063 92.6969C533.727 107.55 541.125 126.46 546.215 149.482L549.564 148.742C544.412 125.439 536.885 106.115 526.938 90.8264L524.063 92.6969ZM546.215 149.482C551.289 172.434 552.535 192.631 550.019 210.103L553.414 210.592C556.005 192.603 554.7 171.975 549.564 148.742L546.215 149.482ZM550.02 210.097C547.434 227.586 541.357 241.721 531.865 252.601L534.449 254.856C544.456 243.386 550.752 228.6 553.413 210.598L550.02 210.097ZM531.868 252.597C522.319 263.48 509.599 270.709 493.613 274.243L494.354 277.592C510.962 273.921 524.358 266.357 534.446 254.86L531.868 252.597ZM493.613 274.243C477.63 277.776 463.08 276.541 449.89 270.618L448.485 273.747C462.429 280.009 477.743 281.264 494.354 277.592L493.613 274.243ZM449.884 270.615C436.693 264.751 425.259 254.49 415.612 239.707L412.739 241.581C422.672 256.802 434.58 267.566 448.491 273.749L449.884 270.615ZM415.607 239.7C405.909 225.004 398.5 206.21 393.426 183.259L390.077 183.999C395.214 207.234 402.754 226.45 412.744 241.589L415.607 239.7ZM393.426 183.259C388.321 160.167 387.052 139.866 389.554 122.324L386.158 121.839C383.583 139.897 384.91 160.628 390.077 183.999L393.426 183.259ZM389.553 122.326C392.07 104.853 398.106 90.691 407.585 79.7419L404.991 77.4969C395.002 89.0359 388.749 103.848 386.158 121.837L389.553 122.326ZM407.58 79.7468C417.058 68.8837 429.775 61.6544 445.832 58.1047L445.091 54.7555C428.416 58.442 415.017 66.0055 404.996 77.4919L407.58 79.7468ZM451.231 82.5296C436.122 85.8697 425.985 95.9118 420.827 112.279L424.098 113.31C428.944 97.9342 438.232 88.9162 451.972 85.8787L451.231 82.5296ZM420.829 112.273C415.625 128.577 416.097 150.182 422.012 176.939L425.361 176.199C419.502 149.697 419.158 128.786 424.096 113.316L420.829 112.273ZM422.012 176.939C425.945 194.731 431.17 209.436 437.723 221.006L440.707 219.316C434.374 208.132 429.247 193.775 425.361 176.199L422.012 176.939ZM437.717 220.996C444.204 232.634 451.759 241.029 460.44 246.008L462.147 243.033C454.169 238.457 447.004 230.612 440.713 219.326L437.717 220.996ZM460.425 245.999C469.08 251.085 478.411 252.531 488.329 250.338L487.588 246.989C478.504 248.997 470.059 247.682 462.162 243.042L460.425 245.999ZM488.329 250.338C503.375 247.012 513.5 236.93 518.709 220.487L515.44 219.451C510.538 234.921 501.252 243.969 487.588 246.989L488.329 250.338ZM518.709 220.487C523.896 204.119 523.461 182.511 517.63 155.806L514.279 156.538C520.053 182.984 520.365 203.907 515.44 219.451L518.709 220.487ZM517.629 155.801C513.681 137.943 508.477 123.165 501.982 111.514L498.986 113.184C505.269 124.456 510.378 138.894 514.28 156.542L517.629 155.801ZM501.976 111.504C495.436 99.9549 487.893 91.6018 479.289 86.6097L477.568 89.5765C485.485 94.1703 492.646 101.988 498.992 113.194L501.976 111.504ZM479.281 86.605C470.65 81.6604 461.27 80.3105 451.231 82.5296L451.972 85.8787C461.212 83.8359 469.717 85.0786 477.576 89.5812L479.281 86.605ZM331.325 85.3718L332.999 85.0017L332.629 83.3271L330.954 83.6973L331.325 85.3718ZM336.476 108.673L337.938 109.569L338.3 108.979L338.15 108.303L336.476 108.673ZM280.899 199.297L279.437 198.401L279.433 198.407L279.43 198.413L280.899 199.297ZM266.577 224.83L268.107 225.606L268.108 225.604L266.577 224.83ZM268.33 280.633L269.541 279.418L269.534 279.411L268.33 280.633ZM284.602 289.583L285.011 287.917L285.003 287.915L284.995 287.913L284.602 289.583ZM334.282 243.359L333.912 241.684L332.238 242.054L332.608 243.729L334.282 243.359ZM364.969 236.575L366.644 236.204L366.273 234.53L364.599 234.9L364.969 236.575ZM363.543 272.568L361.922 272.007L363.543 272.568ZM343.984 300.568L342.89 299.247L342.883 299.253L343.984 300.568ZM273.167 316.332L273.616 314.677L273.603 314.673L273.167 316.332ZM244.355 300.007L245.575 298.803L245.571 298.799L244.355 300.007ZM228.259 246.94L229.953 247.21L229.955 247.196L228.259 246.94ZM237.962 218.282L236.418 217.535L236.416 217.54L237.962 218.282ZM260.909 177.968L262.362 178.878L262.369 178.868L262.376 178.857L260.909 177.968ZM293.45 124.295L294.916 125.184L295.273 124.596L295.124 123.924L293.45 124.295ZM293.105 122.734L294.78 122.364L294.409 120.689L292.735 121.06L293.105 122.734ZM197.196 143.937L195.522 144.307L195.892 145.981L197.566 145.611L197.196 143.937ZM191.102 116.371L190.732 114.696L189.057 115.066L189.428 116.741L191.102 116.371ZM329.65 85.742L334.801 109.043L338.15 108.303L332.999 85.0017L329.65 85.742ZM335.014 107.776L279.437 198.401L282.361 200.194L337.938 109.569L335.014 107.776ZM279.43 198.413C273.512 208.251 268.716 216.801 265.047 224.056L268.108 225.604C271.727 218.447 276.478 209.974 282.369 200.181L279.43 198.413ZM265.048 224.055C261.301 231.441 258.755 238.282 257.446 244.567L260.804 245.266C262.036 239.352 264.457 232.802 268.107 225.606L265.048 224.055ZM257.446 244.567C256.125 250.911 256.184 257.327 257.615 263.799L260.964 263.058C259.636 257.047 259.585 251.122 260.804 245.266L257.446 244.567ZM257.615 263.799C259.239 271.144 262.392 277.191 267.127 281.854L269.534 279.411C265.342 275.282 262.468 269.86 260.964 263.058L257.615 263.799ZM267.119 281.847C271.831 286.545 277.541 289.68 284.208 291.252L284.995 287.913C278.924 286.482 273.786 283.651 269.541 279.418L267.119 281.847ZM284.192 291.248C290.862 292.889 297.93 292.866 305.367 291.222L304.627 287.873C297.64 289.417 291.11 289.418 285.011 287.917L284.192 291.248ZM305.367 291.222C313.227 289.484 319.815 286.34 325.064 281.741L322.804 279.161C318.06 283.318 312.023 286.238 304.627 287.873L305.367 291.222ZM325.064 281.741C330.309 277.146 333.886 271.49 335.771 264.808L332.47 263.877C330.766 269.917 327.553 275.001 322.804 279.161L325.064 281.741ZM335.771 264.808C337.655 258.129 337.693 250.843 335.957 242.988L332.608 243.729C334.244 251.131 334.175 257.834 332.47 263.877L335.771 264.808ZM334.653 245.033L365.339 238.249L364.599 234.9L333.912 241.684L334.653 245.033ZM363.294 236.945C366.103 249.647 365.622 261.319 361.922 272.007L365.163 273.129C369.098 261.762 369.569 249.438 366.644 236.204L363.294 236.945ZM361.922 272.007C358.21 282.729 351.876 291.802 342.89 299.247L345.078 301.888C354.535 294.054 361.24 284.461 365.163 273.129L361.922 272.007ZM342.883 299.253C333.913 306.763 322.947 311.972 309.935 314.849L310.676 318.198C324.155 315.218 335.641 309.79 345.085 301.883L342.883 299.253ZM309.935 314.849C296.778 317.757 284.683 317.68 273.616 314.677L272.718 317.987C284.401 321.157 297.065 321.207 310.676 318.198L309.935 314.849ZM273.603 314.673C262.451 311.745 253.124 306.45 245.575 298.803L243.134 301.212C251.145 309.328 261.026 314.917 272.732 317.991L273.603 314.673ZM245.571 298.799C238.051 291.232 233.053 281.902 230.589 270.755L227.24 271.496C229.835 283.234 235.13 293.159 243.138 301.216L245.571 298.799ZM230.589 270.755C228.889 263.066 228.675 255.221 229.953 247.21L226.565 246.669C225.221 255.094 225.444 263.374 227.24 271.496L230.589 270.755ZM229.955 247.196C231.162 239.219 234.324 229.836 239.509 219.023L236.416 217.54C231.145 228.533 227.839 238.254 226.563 246.683L229.955 247.196ZM239.506 219.029C244.711 208.274 252.324 194.895 262.362 178.878L259.456 177.057C249.384 193.126 241.699 206.623 236.418 217.535L239.506 219.029ZM262.376 178.857L294.916 125.184L291.983 123.405L259.443 177.078L262.376 178.857ZM295.124 123.924L294.78 122.364L291.43 123.104L291.775 124.665L295.124 123.924ZM292.735 121.06L196.826 142.262L197.566 145.611L293.475 124.409L292.735 121.06ZM198.871 143.566L192.777 116L189.428 116.741L195.522 144.307L198.871 143.566ZM191.472 118.045L331.695 87.0464L330.954 83.6973L190.732 114.696L191.472 118.045ZM169.926 164.694L171.601 164.324L171.23 162.65L169.556 163.02L169.926 164.694ZM175.675 190.7L177.288 191.283L177.457 190.815L177.35 190.33L175.675 190.7ZM115.764 356.475L116.134 358.15L117.056 357.946L117.377 357.058L115.764 356.475ZM95.2712 361.005L93.5967 361.376L93.9669 363.05L95.6414 362.68L95.2712 361.005ZM86.8087 322.725L86.4385 321.051L84.7639 321.421L85.1341 323.095L86.8087 322.725ZM99.8115 319.851L100.182 321.525L101.105 321.321L101.425 320.432L99.8115 319.851ZM142.616 201.064L144.229 201.645L144.397 201.178L144.29 200.693L142.616 201.064ZM142.248 199.399L143.922 199.029L143.552 197.354L141.878 197.725L142.248 199.399ZM16.0683 227.293L14.3938 227.664L14.764 229.338L16.4385 228.968L16.0683 227.293ZM10.0434 200.04L9.67317 198.365L7.99863 198.735L8.36883 200.41L10.0434 200.04ZM59.7217 145.415L61.3963 145.045L61.0261 143.37L59.3515 143.74L59.7217 145.415ZM70.6679 194.929L72.3487 194.589L72.3457 194.574L72.3424 194.559L70.6679 194.929ZM73.0814 206.834L71.4005 207.175L71.4035 207.19L71.4068 207.204L73.0814 206.834ZM106.61 358.499L106.98 360.173L108.654 359.803L108.284 358.129L106.61 358.499ZM76.1311 365.237L74.4565 365.607L74.8267 367.282L76.5013 366.911L76.1311 365.237ZM29.035 152.199L28.6648 150.524L26.9903 150.894L27.3605 152.569L29.035 152.199ZM168.251 165.065L174 191.07L177.35 190.33L171.601 164.324L168.251 165.065ZM174.062 190.117L114.151 355.892L117.377 357.058L177.288 191.283L174.062 190.117ZM115.394 354.801L94.901 359.331L95.6414 362.68L116.134 358.15L115.394 354.801ZM96.9458 360.635L88.4833 322.355L85.1341 323.095L93.5967 361.376L96.9458 360.635ZM87.1789 324.4L100.182 321.525L99.4413 318.176L86.4385 321.051L87.1789 324.4ZM101.425 320.432L144.229 201.645L141.002 200.482L98.1981 319.269L101.425 320.432ZM144.29 200.693L143.922 199.029L140.573 199.769L140.941 201.434L144.29 200.693ZM141.878 197.725L15.6982 225.619L16.4385 228.968L142.618 201.074L141.878 197.725ZM17.7429 226.923L11.718 199.669L8.36883 200.41L14.3938 227.664L17.7429 226.923ZM10.4136 201.714L170.296 166.369L169.556 163.02L9.67317 198.365L10.4136 201.714ZM58.0471 145.785L68.9933 195.3L72.3424 194.559L61.3963 145.045L58.0471 145.785ZM68.987 195.27L71.4005 207.175L74.7622 206.493L72.3487 194.589L68.987 195.27ZM71.4068 207.204L104.935 358.869L108.284 358.129L74.7559 206.464L71.4068 207.204ZM106.24 356.824L75.7609 363.562L76.5013 366.911L106.98 360.173L106.24 356.824ZM77.8057 364.867L30.7096 151.828L27.3605 152.569L74.4565 365.607L77.8057 364.867ZM29.4052 153.873L60.0919 147.089L59.3515 143.74L28.6648 150.524L29.4052 153.873Z" fill="url(#paint0_linear_1_1154)"/>
<defs>
<linearGradient id="paint0_linear_1_1154" x1="289.561" y1="-22.5674" x2="382.397" y2="402.101" gradientUnits="userSpaceOnUse">
<stop stop-color="#0100FE"/>
<stop offset="1" stop-color="#0100FE" stop-opacity="0"/>
</linearGradient>
</defs>
</svg>
