<svg width="588" height="722" viewBox="0 0 588 722" fill="none" xmlns="http://www.w3.org/2000/svg">
<path d="M483.24 606.585L498.908 625.944C506.551 635.389 520.404 636.849 529.849 629.206L565.231 600.571C574.676 592.927 576.136 579.074 568.492 569.63L552.824 550.27" stroke="#0100FE" stroke-width="6"/>
<mask id="path-2-inside-1_1_690" fill="white">
<path d="M0.425354 341.11C3.52808 401.648 23.5256 460.107 58.1517 509.861C92.7778 559.616 140.648 598.677 196.338 622.619C252.027 646.56 313.309 654.424 373.239 645.319C433.169 636.214 489.351 610.505 535.418 571.105C581.484 531.705 615.594 480.189 633.881 422.396C652.168 364.602 653.902 302.842 638.886 244.114C623.869 185.385 592.703 132.037 548.919 90.115C505.135 48.1927 450.484 19.3726 391.159 6.92041L324.5 324.5L0.425354 341.11Z"/>
</mask>
<path d="M0.425354 341.11C3.52808 401.648 23.5256 460.107 58.1517 509.861C92.7778 559.616 140.648 598.677 196.338 622.619C252.027 646.56 313.309 654.424 373.239 645.319C433.169 636.214 489.351 610.505 535.418 571.105C581.484 531.705 615.594 480.189 633.881 422.396C652.168 364.602 653.902 302.842 638.886 244.114C623.869 185.385 592.703 132.037 548.919 90.115C505.135 48.1927 450.484 19.3726 391.159 6.92041L324.5 324.5L0.425354 341.11Z" stroke="#0100FE" stroke-width="12" mask="url(#path-2-inside-1_1_690)"/>
<path d="M389.138 233.451L396.323 169.726L380.7 233.227C374.386 258.887 350.716 276.43 324.329 275.007L255.674 271.302L319.015 282.7C347.194 287.771 366.77 313.613 364.02 342.112L357.531 409.37L370.403 345.18C376.119 316.674 403.033 297.541 431.834 301.508L497.596 310.565L429.853 292.818C403.417 285.893 386.075 260.607 389.138 233.451Z" stroke="#0100FE" stroke-width="2"/>
<path d="M374.015 515.833L364.496 499.357L372.028 517.427C376.541 528.253 372.717 540.757 362.922 547.207L345.64 558.587L362.488 550.278C373.885 544.657 387.688 548.721 394.222 559.62L403.562 575.2L396.239 559.577C390.763 547.893 395.325 533.966 406.653 527.787L423.595 518.547L404.205 526.291C392.942 530.789 380.083 526.335 374.015 515.833Z" stroke="#0100FE" stroke-width="2"/>
<path d="M528.246 223.617L518.726 207.141L526.259 225.211C530.772 236.037 526.948 248.542 517.152 254.992L499.87 266.371L516.719 258.062C528.116 252.441 541.919 256.505 548.452 267.404L557.792 282.985L550.469 267.361C544.993 255.678 549.556 241.75 560.884 235.571L577.825 226.331L558.436 234.075C547.172 238.574 534.314 234.12 528.246 223.617Z" stroke="#0100FE" stroke-width="2"/>
<path d="M241.702 424.311L235.489 383.938L236.48 425.67C236.927 444.504 223.916 460.993 205.495 464.94L162.526 474.146L203.206 470.601C223.54 468.829 241.833 482.954 245.262 503.076L252.329 544.545L249.61 504.057C248.22 483.377 263.166 465.188 283.722 462.54L325.454 457.165L280.799 457.556C261.317 457.726 244.665 443.567 241.702 424.311Z" stroke="#0100FE" stroke-width="2"/>
<g filter="url(#filter0_f_1_690)">
<path d="M241.034 434.724L241.668 461.431L214.722 467.204L242.308 464.8L247.202 493.516L245.265 464.675L273.514 461.036L245.121 461.285L241.034 434.724Z" fill="#17F871"/>
</g>
<g filter="url(#filter1_f_1_690)">
<path d="M529.284 226.154L536.975 244.207L520.156 255.47L538.328 246.332L549.472 264.598L540.311 245.443L558.6 235.282L539.292 243.168L529.284 226.154Z" fill="#17F871"/>
</g>
<path d="M558.192 604.672C586.166 608.402 642.459 632.043 643.836 696.771" stroke="#0100FE" stroke-width="6"/>
<path d="M618.015 718.72C590.041 714.99 533.748 691.348 532.371 626.621" stroke="#0100FE" stroke-width="6"/>
<defs>
<filter id="filter0_f_1_690" x="209.792" y="429.794" width="68.6517" height="68.6517" filterUnits="userSpaceOnUse" color-interpolation-filters="sRGB">
<feFlood flood-opacity="0" result="BackgroundImageFix"/>
<feBlend mode="normal" in="SourceGraphic" in2="BackgroundImageFix" result="shape"/>
<feGaussianBlur stdDeviation="2.465" result="effect1_foregroundBlur_1_690"/>
</filter>
<filter id="filter1_f_1_690" x="515.226" y="221.224" width="48.3046" height="48.3048" filterUnits="userSpaceOnUse" color-interpolation-filters="sRGB">
<feFlood flood-opacity="0" result="BackgroundImageFix"/>
<feBlend mode="normal" in="SourceGraphic" in2="BackgroundImageFix" result="shape"/>
<feGaussianBlur stdDeviation="2.465" result="effect1_foregroundBlur_1_690"/>
</filter>
</defs>
</svg>
