<svg width="573" height="647" viewBox="0 0 573 647" fill="none" xmlns="http://www.w3.org/2000/svg">
<g clip-path="url(#clip0_1_1664)">
<path fill-rule="evenodd" clip-rule="evenodd" d="M580.105 -0.471191H-66.9984C54.6129 6.47802 227.28 44.5983 363.67 95.9143H18.5049C140.116 102.863 289.136 140.984 403.104 192.3H88.4621C210.073 199.249 339.746 237.369 435.368 288.685H173.965C405.213 301.899 580.105 427.822 580.105 542.863V446.477V350.092V288.685V253.707V192.3V95.9143V-0.471191Z" fill="url(#paint0_linear_1_1664)"/>
<path d="M580.493 638.471L562.866 584.224L505.827 584.224L551.973 550.697L534.347 496.45L580.493 529.977L626.638 496.45L609.012 550.697L655.158 584.224L598.119 584.224L580.493 638.471Z" fill="#0100FE"/>
<path d="M580.493 638.471L562.866 584.224L505.827 584.224L551.973 550.697L534.347 496.45L580.493 529.977L626.638 496.45L609.012 550.697L655.158 584.224L598.119 584.224L580.493 638.471Z" fill="url(#paint1_diamond_1_1664)"/>
</g>
<defs>
<linearGradient id="paint0_linear_1_1664" x1="580.002" y1="368" x2="344.002" y2="22.4999" gradientUnits="userSpaceOnUse">
<stop stop-color="#0100FE"/>
<stop offset="1" stop-color="#0100FE" stop-opacity="0"/>
</linearGradient>
<radialGradient id="paint1_diamond_1_1664" cx="0" cy="0" r="1" gradientUnits="userSpaceOnUse" gradientTransform="translate(580.493 559.921) rotate(179.295) scale(78.5134 150.718)">
<stop offset="0.180503" stop-color="#F81717"/>
<stop offset="0.402374" stop-color="#EBCD62"/>
<stop offset="0.625816" stop-color="#FEBD16"/>
<stop offset="0.875655" stop-color="#ED0AAE"/>
</radialGradient>
<clipPath id="clip0_1_1664">
<rect width="573" height="647" fill="white"/>
</clipPath>
</defs>
</svg>
