<svg width="877" height="254" viewBox="0 0 877 254" fill="none" xmlns="http://www.w3.org/2000/svg">
<path d="M-179.5 22.5C-170.215 30.6006 -159.651 38.948 -147.982 47.2255M843 -168C825.152 -131.559 805.107 -100.935 783.5 -75.3704M16 119.772V247.5L58 186L104 247.5V125.831M16 119.772C44.348 125.502 73.9318 127.977 104 125.831M16 119.772C-15.5414 113.396 -45.553 102.989 -73 90.4329M104 125.831C138.573 123.363 173.787 114.786 208.5 98.0255M208.5 98.0255L261 209.5L283.5 140L346 171.5L283.5 47.2255M208.5 98.0255C233.918 85.7521 259.068 69.0904 283.5 47.2255M283.5 47.2255C301.798 30.8497 319.695 11.5553 337 -11C369.82 7.06056 415.051 24.5611 466 33.5126M466 33.5126L459.5 164.5L510 119.772L548 171.5L560.5 38.8077M466 33.5126C495.975 38.7791 527.93 41.0864 560.5 38.8077M560.5 38.8077C608.794 35.4289 658.442 21.9674 705 -6.88033M705 -6.88033L783.5 113L786 28L872 53.5L783.5 -75.3704M705 -6.88033C732.556 -23.9541 759.03 -46.4176 783.5 -75.3704M-147.982 47.2255L-209 171.5L-147.982 152.5L-136.5 209.5L-73 90.4329M-147.982 47.2255C-126.4 62.5354 -101.038 77.606 -73 90.4329" stroke="#0100FE" stroke-width="4"/>
</svg>
