<svg width="1091" height="423" viewBox="0 0 1091 423" fill="none" xmlns="http://www.w3.org/2000/svg">
<path d="M34 191.5C43.2849 199.601 53.8489 207.948 65.5177 216.225M1056.5 1C1038.65 37.4406 1018.61 68.0648 997 93.6296M229.5 288.772V416.5L271.5 355L317.5 416.5V294.831M229.5 288.772C257.848 294.502 287.432 296.977 317.5 294.831M229.5 288.772C197.959 282.396 167.947 271.989 140.5 259.433M317.5 294.831C352.073 292.363 387.287 283.786 422 267.025M422 267.025L474.5 378.5L497 309L559.5 340.5L497 216.225M422 267.025C447.418 254.752 472.568 238.09 497 216.225M497 216.225C515.298 199.85 533.195 180.555 550.5 158C583.32 176.061 628.551 193.561 679.5 202.513M679.5 202.513L673 333.5L723.5 288.772L761.5 340.5L774 207.808M679.5 202.513C709.475 207.779 741.43 210.086 774 207.808M774 207.808C822.294 204.429 871.942 190.967 918.5 162.12M918.5 162.12L997 282L999.5 197L1085.5 222.5L997 93.6296M918.5 162.12C946.056 145.046 972.53 122.582 997 93.6296M65.5177 216.225L4.5 340.5L65.5177 321.5L77 378.5L140.5 259.433M65.5177 216.225C87.1001 231.535 112.462 246.606 140.5 259.433" stroke="#0100FE" stroke-width="4"/>
</svg>
