<svg width="1440" height="800" viewBox="0 0 1440 800" fill="none" xmlns="http://www.w3.org/2000/svg">
<g clip-path="url(#clip0_48_6963)">
<rect width="1440" height="800" rx="42" fill="#000B36"/>
<path d="M258.251 711.843L234.072 613.57C227.874 588.376 204.634 571.151 178.726 572.55L73.0725 578.251L172.981 560.272C200.648 555.293 219.867 529.921 217.168 501.94L206.664 393.072L227.722 498.083C233.334 526.07 259.758 544.856 288.036 540.961L391.843 526.664L287.015 554.126C261.059 560.926 244.033 585.752 247.04 612.414L258.251 711.843Z" fill="#0100FE"/>
<path d="M359.289 761.695L373.528 713.942C380.942 689.079 369.625 662.457 346.578 650.542L299.663 626.289L344.949 642.973C371.327 652.692 400.748 640.547 412.591 615.052L435.069 566.663L418.223 615.344C408.889 642.319 422.161 671.899 448.516 682.861L494.695 702.069L442.949 687.479C417.125 680.198 389.871 692.982 378.961 717.495L359.289 761.695Z" fill="#0100FE"/>
<path d="M153.087 866.547L151.833 799.218C151.35 773.277 132.486 751.347 106.91 746.99L37.0395 735.089L103.386 738.049C131.469 739.301 155.816 718.799 159.361 690.912L168.497 619.042L166.755 689.48C166.05 718.016 187.675 742.172 216.114 744.616L284.545 750.499L212.212 752.93C185.395 753.831 163.308 774.285 160.354 800.954L153.087 866.547Z" fill="#0100FE"/>
<path d="M717 124H1439.5V451C1439.5 303 1014.5 141 717 124Z" fill="#0100FE"/>
<path d="M807 248H1439.5V575C1439.5 427 1104.5 265 807 248Z" fill="#0100FE"/>
<path d="M917 372H1439.5V699C1439.5 551 1214.5 389 917 372Z" fill="#0100FE"/>
<path d="M160.455 66.1818H170.545L194.273 124.136H195.091L218.818 66.1818H228.909V136H221V82.9545H220.318L198.5 136H190.864L169.045 82.9545H168.364V136H160.455V66.1818ZM260.179 137.227C256.861 137.227 253.849 136.602 251.145 135.352C248.44 134.08 246.293 132.25 244.702 129.864C243.111 127.455 242.315 124.545 242.315 121.136C242.315 118.136 242.906 115.705 244.088 113.841C245.27 111.955 246.849 110.477 248.827 109.409C250.804 108.341 252.986 107.545 255.372 107.023C257.781 106.477 260.202 106.045 262.634 105.727C265.815 105.318 268.395 105.011 270.372 104.807C272.372 104.58 273.827 104.205 274.736 103.682C275.668 103.159 276.134 102.25 276.134 100.955V100.682C276.134 97.3182 275.213 94.7045 273.372 92.8409C271.554 90.9773 268.793 90.0455 265.088 90.0455C261.247 90.0455 258.236 90.8864 256.054 92.5682C253.872 94.25 252.338 96.0455 251.452 97.9545L243.815 95.2273C245.179 92.0455 246.997 89.5682 249.27 87.7955C251.565 86 254.065 84.75 256.77 84.0455C259.497 83.3182 262.179 82.9545 264.815 82.9545C266.497 82.9545 268.429 83.1591 270.611 83.5682C272.815 83.9545 274.94 84.7614 276.986 85.9886C279.054 87.2159 280.77 89.0682 282.134 91.5455C283.497 94.0227 284.179 97.3409 284.179 101.5V136H276.134V128.909H275.724C275.179 130.045 274.27 131.261 272.997 132.557C271.724 133.852 270.031 134.955 267.918 135.864C265.804 136.773 263.224 137.227 260.179 137.227ZM261.406 130C264.588 130 267.27 129.375 269.452 128.125C271.656 126.875 273.315 125.261 274.429 123.284C275.565 121.307 276.134 119.227 276.134 117.045V109.682C275.793 110.091 275.043 110.466 273.884 110.807C272.747 111.125 271.429 111.409 269.929 111.659C268.452 111.886 267.009 112.091 265.599 112.273C264.213 112.432 263.088 112.568 262.224 112.682C260.134 112.955 258.179 113.398 256.361 114.011C254.565 114.602 253.111 115.5 251.997 116.705C250.906 117.886 250.361 119.5 250.361 121.545C250.361 124.341 251.395 126.455 253.463 127.886C255.554 129.295 258.202 130 261.406 130ZM298.864 136V83.6364H306.636V91.5455H307.182C308.136 88.9545 309.864 86.8523 312.364 85.2386C314.864 83.625 317.682 82.8182 320.818 82.8182C321.409 82.8182 322.148 82.8295 323.034 82.8523C323.92 82.875 324.591 82.9091 325.045 82.9545V91.1364C324.773 91.0682 324.148 90.9659 323.17 90.8295C322.216 90.6705 321.205 90.5909 320.136 90.5909C317.591 90.5909 315.318 91.125 313.318 92.1932C311.341 93.2386 309.773 94.6932 308.614 96.5568C307.477 98.3977 306.909 100.5 306.909 102.864V136H298.864ZM334.582 136V83.6364H342.355V91.5455H342.901C343.855 88.9545 345.582 86.8523 348.082 85.2386C350.582 83.625 353.401 82.8182 356.537 82.8182C357.128 82.8182 357.866 82.8295 358.753 82.8523C359.639 82.875 360.31 82.9091 360.764 82.9545V91.1364C360.491 91.0682 359.866 90.9659 358.889 90.8295C357.935 90.6705 356.923 90.5909 355.855 90.5909C353.31 90.5909 351.037 91.125 349.037 92.1932C347.06 93.2386 345.491 94.6932 344.332 96.5568C343.196 98.3977 342.628 100.5 342.628 102.864V136H334.582ZM377.077 155.636C375.713 155.636 374.497 155.523 373.429 155.295C372.361 155.091 371.622 154.886 371.213 154.682L373.259 147.591C375.213 148.091 376.94 148.273 378.44 148.136C379.94 148 381.27 147.33 382.429 146.125C383.611 144.943 384.69 143.023 385.668 140.364L387.168 136.273L367.804 83.6364H376.531L390.986 125.364H391.531L405.986 83.6364H414.713L392.486 143.636C391.486 146.341 390.247 148.58 388.77 150.352C387.293 152.148 385.577 153.477 383.622 154.341C381.69 155.205 379.509 155.636 377.077 155.636ZM499.241 66.1818H507.696V112.409C507.696 117.182 506.571 121.443 504.321 125.193C502.094 128.92 498.946 131.864 494.878 134.023C490.81 136.159 486.037 137.227 480.56 137.227C475.082 137.227 470.31 136.159 466.241 134.023C462.173 131.864 459.014 128.92 456.764 125.193C454.537 121.443 453.423 117.182 453.423 112.409V66.1818H461.878V111.727C461.878 115.136 462.628 118.17 464.128 120.83C465.628 123.466 467.764 125.545 470.537 127.068C473.332 128.568 476.673 129.318 480.56 129.318C484.446 129.318 487.787 128.568 490.582 127.068C493.378 125.545 495.514 123.466 496.991 120.83C498.491 118.17 499.241 115.136 499.241 111.727V66.1818ZM523.489 155.636V83.6364H531.261V91.9545H532.216C532.807 91.0455 533.625 89.8864 534.67 88.4773C535.739 87.0455 537.261 85.7727 539.239 84.6591C541.239 83.5227 543.943 82.9545 547.352 82.9545C551.761 82.9545 555.648 84.0568 559.011 86.2614C562.375 88.4659 565 91.5909 566.886 95.6364C568.773 99.6818 569.716 104.455 569.716 109.955C569.716 115.5 568.773 120.307 566.886 124.375C565 128.42 562.386 131.557 559.045 133.784C555.705 135.989 551.852 137.091 547.489 137.091C544.125 137.091 541.432 136.534 539.409 135.42C537.386 134.284 535.83 133 534.739 131.568C533.648 130.114 532.807 128.909 532.216 127.955H531.534V155.636H523.489ZM531.398 109.818C531.398 113.773 531.977 117.261 533.136 120.284C534.295 123.284 535.989 125.636 538.216 127.341C540.443 129.023 543.17 129.864 546.398 129.864C549.761 129.864 552.568 128.977 554.818 127.205C557.091 125.409 558.795 123 559.932 119.977C561.091 116.932 561.67 113.545 561.67 109.818C561.67 106.136 561.102 102.818 559.966 99.8636C558.852 96.8864 557.159 94.5341 554.886 92.8068C552.636 91.0568 549.807 90.1818 546.398 90.1818C543.125 90.1818 540.375 91.0114 538.148 92.6705C535.92 94.3068 534.239 96.6023 533.102 99.5568C531.966 102.489 531.398 105.909 531.398 109.818ZM619.08 95.3636L611.852 97.4091C611.398 96.2045 610.727 95.0341 609.841 93.8977C608.977 92.7386 607.795 91.7841 606.295 91.0341C604.795 90.2841 602.875 89.9091 600.534 89.9091C597.33 89.9091 594.659 90.6477 592.523 92.125C590.409 93.5795 589.352 95.4318 589.352 97.6818C589.352 99.6818 590.08 101.261 591.534 102.42C592.989 103.58 595.261 104.545 598.352 105.318L606.125 107.227C610.807 108.364 614.295 110.102 616.591 112.443C618.886 114.761 620.034 117.75 620.034 121.409C620.034 124.409 619.17 127.091 617.443 129.455C615.739 131.818 613.352 133.682 610.284 135.045C607.216 136.409 603.648 137.091 599.58 137.091C594.239 137.091 589.818 135.932 586.318 133.614C582.818 131.295 580.602 127.909 579.67 123.455L587.307 121.545C588.034 124.364 589.409 126.477 591.432 127.886C593.477 129.295 596.148 130 599.443 130C603.193 130 606.17 129.205 608.375 127.614C610.602 126 611.716 124.068 611.716 121.818C611.716 120 611.08 118.477 609.807 117.25C608.534 116 606.58 115.068 603.943 114.455L595.216 112.409C590.42 111.273 586.898 109.511 584.648 107.125C582.42 104.716 581.307 101.705 581.307 98.0909C581.307 95.1364 582.136 92.5227 583.795 90.25C585.477 87.9773 587.761 86.1932 590.648 84.8977C593.557 83.6023 596.852 82.9545 600.534 82.9545C605.716 82.9545 609.784 84.0909 612.739 86.3636C615.716 88.6364 617.83 91.6364 619.08 95.3636ZM632.145 136V83.6364H640.19V136H632.145ZM636.236 74.9091C634.668 74.9091 633.315 74.375 632.179 73.3068C631.065 72.2386 630.509 70.9545 630.509 69.4545C630.509 67.9545 631.065 66.6705 632.179 65.6023C633.315 64.5341 634.668 64 636.236 64C637.804 64 639.145 64.5341 640.259 65.6023C641.395 66.6705 641.963 67.9545 641.963 69.4545C641.963 70.9545 641.395 72.2386 640.259 73.3068C639.145 74.375 637.804 74.9091 636.236 74.9091ZM674.699 137.091C670.335 137.091 666.483 135.989 663.142 133.784C659.801 131.557 657.188 128.42 655.301 124.375C653.415 120.307 652.472 115.5 652.472 109.955C652.472 104.455 653.415 99.6818 655.301 95.6364C657.188 91.5909 659.813 88.4659 663.176 86.2614C666.54 84.0568 670.426 82.9545 674.835 82.9545C678.244 82.9545 680.938 83.5227 682.915 84.6591C684.915 85.7727 686.438 87.0455 687.483 88.4773C688.551 89.8864 689.381 91.0455 689.972 91.9545H690.653V66.1818H698.699V136H690.926V127.955H689.972C689.381 128.909 688.54 130.114 687.449 131.568C686.358 133 684.801 134.284 682.778 135.42C680.756 136.534 678.063 137.091 674.699 137.091ZM675.79 129.864C679.017 129.864 681.744 129.023 683.972 127.341C686.199 125.636 687.892 123.284 689.051 120.284C690.21 117.261 690.79 113.773 690.79 109.818C690.79 105.909 690.222 102.489 689.085 99.5568C687.949 96.6023 686.267 94.3068 684.04 92.6705C681.813 91.0114 679.063 90.1818 675.79 90.1818C672.381 90.1818 669.54 91.0568 667.267 92.8068C665.017 94.5341 663.324 96.8864 662.188 99.8636C661.074 102.818 660.517 106.136 660.517 109.818C660.517 113.545 661.085 116.932 662.222 119.977C663.381 123 665.085 125.409 667.335 127.205C669.608 128.977 672.426 129.864 675.79 129.864ZM736.506 137.091C731.46 137.091 727.108 135.977 723.449 133.75C719.812 131.5 717.006 128.364 715.028 124.341C713.074 120.295 712.097 115.591 712.097 110.227C712.097 104.864 713.074 100.136 715.028 96.0455C717.006 91.9318 719.756 88.7273 723.278 86.4318C726.824 84.1136 730.96 82.9545 735.688 82.9545C738.415 82.9545 741.108 83.4091 743.767 84.3182C746.426 85.2273 748.847 86.7045 751.028 88.75C753.21 90.7727 754.949 93.4545 756.244 96.7955C757.54 100.136 758.188 104.25 758.188 109.136V112.545H717.824V105.591H750.006C750.006 102.636 749.415 100 748.233 97.6818C747.074 95.3636 745.415 93.5341 743.256 92.1932C741.119 90.8523 738.597 90.1818 735.688 90.1818C732.483 90.1818 729.71 90.9773 727.369 92.5682C725.051 94.1364 723.267 96.1818 722.017 98.7045C720.767 101.227 720.142 103.932 720.142 106.818V111.455C720.142 115.409 720.824 118.761 722.188 121.511C723.574 124.239 725.494 126.318 727.949 127.75C730.403 129.159 733.256 129.864 736.506 129.864C738.619 129.864 740.528 129.568 742.233 128.977C743.96 128.364 745.449 127.455 746.699 126.25C747.949 125.023 748.915 123.5 749.597 121.682L757.369 123.864C756.551 126.5 755.176 128.818 753.244 130.818C751.313 132.795 748.926 134.341 746.085 135.455C743.244 136.545 740.051 137.091 736.506 137.091ZM182 232H160.455V162.182H182.955C189.727 162.182 195.523 163.58 200.341 166.375C205.159 169.148 208.852 173.136 211.42 178.341C213.989 183.523 215.273 189.727 215.273 196.955C215.273 204.227 213.977 210.489 211.386 215.739C208.795 220.966 205.023 224.989 200.068 227.807C195.114 230.602 189.091 232 182 232ZM168.909 224.5H181.455C187.227 224.5 192.011 223.386 195.807 221.159C199.602 218.932 202.432 215.761 204.295 211.648C206.159 207.534 207.091 202.636 207.091 196.955C207.091 191.318 206.17 186.466 204.33 182.398C202.489 178.307 199.739 175.17 196.08 172.989C192.42 170.784 187.864 169.682 182.409 169.682H168.909V224.5ZM249.636 233.091C244.909 233.091 240.761 231.966 237.193 229.716C233.648 227.466 230.875 224.318 228.875 220.273C226.898 216.227 225.909 211.5 225.909 206.091C225.909 200.636 226.898 195.875 228.875 191.807C230.875 187.739 233.648 184.58 237.193 182.33C240.761 180.08 244.909 178.955 249.636 178.955C254.364 178.955 258.5 180.08 262.045 182.33C265.614 184.58 268.386 187.739 270.364 191.807C272.364 195.875 273.364 200.636 273.364 206.091C273.364 211.5 272.364 216.227 270.364 220.273C268.386 224.318 265.614 227.466 262.045 229.716C258.5 231.966 254.364 233.091 249.636 233.091ZM249.636 225.864C253.227 225.864 256.182 224.943 258.5 223.102C260.818 221.261 262.534 218.841 263.648 215.841C264.761 212.841 265.318 209.591 265.318 206.091C265.318 202.591 264.761 199.33 263.648 196.307C262.534 193.284 260.818 190.841 258.5 188.977C256.182 187.114 253.227 186.182 249.636 186.182C246.045 186.182 243.091 187.114 240.773 188.977C238.455 190.841 236.739 193.284 235.625 196.307C234.511 199.33 233.955 202.591 233.955 206.091C233.955 209.591 234.511 212.841 235.625 215.841C236.739 218.841 238.455 221.261 240.773 223.102C243.091 224.943 246.045 225.864 249.636 225.864ZM295.727 232L279.773 179.636H288.227L299.545 219.727H300.091L311.273 179.636H319.864L330.909 219.591H331.455L342.773 179.636H351.227L335.273 232H327.364L315.909 191.773H315.091L303.636 232H295.727ZM369.909 200.5V232H361.864V179.636H369.636V187.818H370.318C371.545 185.159 373.409 183.023 375.909 181.409C378.409 179.773 381.636 178.955 385.591 178.955C389.136 178.955 392.239 179.682 394.898 181.136C397.557 182.568 399.625 184.75 401.102 187.682C402.58 190.591 403.318 194.273 403.318 198.727V232H395.273V199.273C395.273 195.159 394.205 191.955 392.068 189.659C389.932 187.341 387 186.182 383.273 186.182C380.705 186.182 378.409 186.739 376.386 187.852C374.386 188.966 372.807 190.591 371.648 192.727C370.489 194.864 369.909 197.455 369.909 200.5ZM502.293 184H493.838C493.338 181.568 492.463 179.432 491.213 177.591C489.986 175.75 488.486 174.205 486.713 172.955C484.963 171.682 483.02 170.727 480.884 170.091C478.747 169.455 476.52 169.136 474.202 169.136C469.974 169.136 466.145 170.205 462.713 172.341C459.304 174.477 456.588 177.625 454.565 181.784C452.565 185.943 451.565 191.045 451.565 197.091C451.565 203.136 452.565 208.239 454.565 212.398C456.588 216.557 459.304 219.705 462.713 221.841C466.145 223.977 469.974 225.045 474.202 225.045C476.52 225.045 478.747 224.727 480.884 224.091C483.02 223.455 484.963 222.511 486.713 221.261C488.486 219.989 489.986 218.432 491.213 216.591C492.463 214.727 493.338 212.591 493.838 210.182H502.293C501.656 213.75 500.497 216.943 498.815 219.761C497.134 222.58 495.043 224.977 492.543 226.955C490.043 228.909 487.236 230.398 484.122 231.42C481.031 232.443 477.724 232.955 474.202 232.955C468.247 232.955 462.952 231.5 458.315 228.591C453.679 225.682 450.031 221.545 447.372 216.182C444.713 210.818 443.384 204.455 443.384 197.091C443.384 189.727 444.713 183.364 447.372 178C450.031 172.636 453.679 168.5 458.315 165.591C462.952 162.682 468.247 161.227 474.202 161.227C477.724 161.227 481.031 161.739 484.122 162.761C487.236 163.784 490.043 165.284 492.543 167.261C495.043 169.216 497.134 171.602 498.815 174.42C500.497 177.216 501.656 180.409 502.293 184ZM522.909 200.5V232H514.864V162.182H522.909V187.818H523.591C524.818 185.114 526.659 182.966 529.114 181.375C531.591 179.761 534.886 178.955 539 178.955C542.568 178.955 545.693 179.67 548.375 181.102C551.057 182.511 553.136 184.682 554.614 187.614C556.114 190.523 556.864 194.227 556.864 198.727V232H548.818V199.273C548.818 195.114 547.739 191.898 545.58 189.625C543.443 187.33 540.477 186.182 536.682 186.182C534.045 186.182 531.682 186.739 529.591 187.852C527.523 188.966 525.886 190.591 524.682 192.727C523.5 194.864 522.909 197.455 522.909 200.5ZM571.582 232V179.636H579.355V187.545H579.901C580.855 184.955 582.582 182.852 585.082 181.239C587.582 179.625 590.401 178.818 593.537 178.818C594.128 178.818 594.866 178.83 595.753 178.852C596.639 178.875 597.31 178.909 597.764 178.955V187.136C597.491 187.068 596.866 186.966 595.889 186.83C594.935 186.67 593.923 186.591 592.855 186.591C590.31 186.591 588.037 187.125 586.037 188.193C584.06 189.239 582.491 190.693 581.332 192.557C580.196 194.398 579.628 196.5 579.628 198.864V232H571.582ZM607.301 232V179.636H615.347V232H607.301ZM611.392 170.909C609.824 170.909 608.472 170.375 607.335 169.307C606.222 168.239 605.665 166.955 605.665 165.455C605.665 163.955 606.222 162.67 607.335 161.602C608.472 160.534 609.824 160 611.392 160C612.96 160 614.301 160.534 615.415 161.602C616.551 162.67 617.119 163.955 617.119 165.455C617.119 166.955 616.551 168.239 615.415 169.307C614.301 170.375 612.96 170.909 611.392 170.909ZM667.173 191.364L659.946 193.409C659.491 192.205 658.821 191.034 657.935 189.898C657.071 188.739 655.889 187.784 654.389 187.034C652.889 186.284 650.969 185.909 648.628 185.909C645.423 185.909 642.753 186.648 640.616 188.125C638.503 189.58 637.446 191.432 637.446 193.682C637.446 195.682 638.173 197.261 639.628 198.42C641.082 199.58 643.355 200.545 646.446 201.318L654.219 203.227C658.901 204.364 662.389 206.102 664.685 208.443C666.98 210.761 668.128 213.75 668.128 217.409C668.128 220.409 667.264 223.091 665.537 225.455C663.832 227.818 661.446 229.682 658.378 231.045C655.31 232.409 651.741 233.091 647.673 233.091C642.332 233.091 637.912 231.932 634.412 229.614C630.912 227.295 628.696 223.909 627.764 219.455L635.401 217.545C636.128 220.364 637.503 222.477 639.526 223.886C641.571 225.295 644.241 226 647.537 226C651.287 226 654.264 225.205 656.469 223.614C658.696 222 659.81 220.068 659.81 217.818C659.81 216 659.173 214.477 657.901 213.25C656.628 212 654.673 211.068 652.037 210.455L643.31 208.409C638.514 207.273 634.991 205.511 632.741 203.125C630.514 200.716 629.401 197.705 629.401 194.091C629.401 191.136 630.23 188.523 631.889 186.25C633.571 183.977 635.855 182.193 638.741 180.898C641.651 179.602 644.946 178.955 648.628 178.955C653.81 178.955 657.878 180.091 660.832 182.364C663.81 184.636 665.923 187.636 667.173 191.364ZM703.011 179.636V186.455H675.875V179.636H703.011ZM683.784 167.091H691.83V217C691.83 219.273 692.159 220.977 692.818 222.114C693.5 223.227 694.364 223.977 695.409 224.364C696.477 224.727 697.602 224.909 698.784 224.909C699.67 224.909 700.398 224.864 700.966 224.773C701.534 224.659 701.989 224.568 702.33 224.5L703.966 231.727C703.42 231.932 702.659 232.136 701.682 232.341C700.705 232.568 699.466 232.682 697.966 232.682C695.693 232.682 693.466 232.193 691.284 231.216C689.125 230.239 687.33 228.75 685.898 226.75C684.489 224.75 683.784 222.227 683.784 219.182V167.091ZM715.114 232V179.636H722.886V187.818H723.568C724.659 185.023 726.42 182.852 728.852 181.307C731.284 179.739 734.205 178.955 737.614 178.955C741.068 178.955 743.943 179.739 746.239 181.307C748.557 182.852 750.364 185.023 751.659 187.818H752.205C753.545 185.114 755.557 182.966 758.239 181.375C760.92 179.761 764.136 178.955 767.886 178.955C772.568 178.955 776.398 180.42 779.375 183.352C782.352 186.261 783.841 190.795 783.841 196.955V232H775.795V196.955C775.795 193.091 774.739 190.33 772.625 188.67C770.511 187.011 768.023 186.182 765.159 186.182C761.477 186.182 758.625 187.295 756.602 189.523C754.58 191.727 753.568 194.523 753.568 197.909V232H745.386V196.136C745.386 193.159 744.42 190.761 742.489 188.943C740.557 187.102 738.068 186.182 735.023 186.182C732.932 186.182 730.977 186.739 729.159 187.852C727.364 188.966 725.909 190.511 724.795 192.489C723.705 194.443 723.159 196.705 723.159 199.273V232H715.114ZM813.96 233.227C810.642 233.227 807.631 232.602 804.926 231.352C802.222 230.08 800.074 228.25 798.483 225.864C796.892 223.455 796.097 220.545 796.097 217.136C796.097 214.136 796.688 211.705 797.869 209.841C799.051 207.955 800.631 206.477 802.608 205.409C804.585 204.341 806.767 203.545 809.153 203.023C811.563 202.477 813.983 202.045 816.415 201.727C819.597 201.318 822.176 201.011 824.153 200.807C826.153 200.58 827.608 200.205 828.517 199.682C829.449 199.159 829.915 198.25 829.915 196.955V196.682C829.915 193.318 828.994 190.705 827.153 188.841C825.335 186.977 822.574 186.045 818.869 186.045C815.028 186.045 812.017 186.886 809.835 188.568C807.653 190.25 806.119 192.045 805.233 193.955L797.597 191.227C798.96 188.045 800.778 185.568 803.051 183.795C805.347 182 807.847 180.75 810.551 180.045C813.278 179.318 815.96 178.955 818.597 178.955C820.278 178.955 822.21 179.159 824.392 179.568C826.597 179.955 828.722 180.761 830.767 181.989C832.835 183.216 834.551 185.068 835.915 187.545C837.278 190.023 837.96 193.341 837.96 197.5V232H829.915V224.909H829.506C828.96 226.045 828.051 227.261 826.778 228.557C825.506 229.852 823.813 230.955 821.699 231.864C819.585 232.773 817.006 233.227 813.96 233.227ZM815.188 226C818.369 226 821.051 225.375 823.233 224.125C825.438 222.875 827.097 221.261 828.21 219.284C829.347 217.307 829.915 215.227 829.915 213.045V205.682C829.574 206.091 828.824 206.466 827.665 206.807C826.528 207.125 825.21 207.409 823.71 207.659C822.233 207.886 820.79 208.091 819.381 208.273C817.994 208.432 816.869 208.568 816.006 208.682C813.915 208.955 811.96 209.398 810.142 210.011C808.347 210.602 806.892 211.5 805.778 212.705C804.688 213.886 804.142 215.5 804.142 217.545C804.142 220.341 805.176 222.455 807.244 223.886C809.335 225.295 811.983 226 815.188 226ZM889.736 191.364L882.509 193.409C882.054 192.205 881.384 191.034 880.497 189.898C879.634 188.739 878.452 187.784 876.952 187.034C875.452 186.284 873.531 185.909 871.19 185.909C867.986 185.909 865.315 186.648 863.179 188.125C861.065 189.58 860.009 191.432 860.009 193.682C860.009 195.682 860.736 197.261 862.19 198.42C863.645 199.58 865.918 200.545 869.009 201.318L876.781 203.227C881.463 204.364 884.952 206.102 887.247 208.443C889.543 210.761 890.69 213.75 890.69 217.409C890.69 220.409 889.827 223.091 888.099 225.455C886.395 227.818 884.009 229.682 880.94 231.045C877.872 232.409 874.304 233.091 870.236 233.091C864.895 233.091 860.474 231.932 856.974 229.614C853.474 227.295 851.259 223.909 850.327 219.455L857.963 217.545C858.69 220.364 860.065 222.477 862.088 223.886C864.134 225.295 866.804 226 870.099 226C873.849 226 876.827 225.205 879.031 223.614C881.259 222 882.372 220.068 882.372 217.818C882.372 216 881.736 214.477 880.463 213.25C879.19 212 877.236 211.068 874.599 210.455L865.872 208.409C861.077 207.273 857.554 205.511 855.304 203.125C853.077 200.716 851.963 197.705 851.963 194.091C851.963 191.136 852.793 188.523 854.452 186.25C856.134 183.977 858.418 182.193 861.304 180.898C864.213 179.602 867.509 178.955 871.19 178.955C876.372 178.955 880.44 180.091 883.395 182.364C886.372 184.636 888.486 187.636 889.736 191.364ZM174.773 329.227C171.455 329.227 168.443 328.602 165.739 327.352C163.034 326.08 160.886 324.25 159.295 321.864C157.705 319.455 156.909 316.545 156.909 313.136C156.909 310.136 157.5 307.705 158.682 305.841C159.864 303.955 161.443 302.477 163.42 301.409C165.398 300.341 167.58 299.545 169.966 299.023C172.375 298.477 174.795 298.045 177.227 297.727C180.409 297.318 182.989 297.011 184.966 296.807C186.966 296.58 188.42 296.205 189.33 295.682C190.261 295.159 190.727 294.25 190.727 292.955V292.682C190.727 289.318 189.807 286.705 187.966 284.841C186.148 282.977 183.386 282.045 179.682 282.045C175.841 282.045 172.83 282.886 170.648 284.568C168.466 286.25 166.932 288.045 166.045 289.955L158.409 287.227C159.773 284.045 161.591 281.568 163.864 279.795C166.159 278 168.659 276.75 171.364 276.045C174.091 275.318 176.773 274.955 179.409 274.955C181.091 274.955 183.023 275.159 185.205 275.568C187.409 275.955 189.534 276.761 191.58 277.989C193.648 279.216 195.364 281.068 196.727 283.545C198.091 286.023 198.773 289.341 198.773 293.5V328H190.727V320.909H190.318C189.773 322.045 188.864 323.261 187.591 324.557C186.318 325.852 184.625 326.955 182.511 327.864C180.398 328.773 177.818 329.227 174.773 329.227ZM176 322C179.182 322 181.864 321.375 184.045 320.125C186.25 318.875 187.909 317.261 189.023 315.284C190.159 313.307 190.727 311.227 190.727 309.045V301.682C190.386 302.091 189.636 302.466 188.477 302.807C187.341 303.125 186.023 303.409 184.523 303.659C183.045 303.886 181.602 304.091 180.193 304.273C178.807 304.432 177.682 304.568 176.818 304.682C174.727 304.955 172.773 305.398 170.955 306.011C169.159 306.602 167.705 307.5 166.591 308.705C165.5 309.886 164.955 311.5 164.955 313.545C164.955 316.341 165.989 318.455 168.057 319.886C170.148 321.295 172.795 322 176 322ZM221.503 296.5V328H213.457V275.636H221.23V283.818H221.912C223.139 281.159 225.003 279.023 227.503 277.409C230.003 275.773 233.23 274.955 237.185 274.955C240.73 274.955 243.832 275.682 246.491 277.136C249.151 278.568 251.219 280.75 252.696 283.682C254.173 286.591 254.912 290.273 254.912 294.727V328H246.866V295.273C246.866 291.159 245.798 287.955 243.662 285.659C241.526 283.341 238.594 282.182 234.866 282.182C232.298 282.182 230.003 282.739 227.98 283.852C225.98 284.966 224.401 286.591 223.241 288.727C222.082 290.864 221.503 293.455 221.503 296.5ZM289.386 329.091C285.023 329.091 281.17 327.989 277.83 325.784C274.489 323.557 271.875 320.42 269.989 316.375C268.102 312.307 267.159 307.5 267.159 301.955C267.159 296.455 268.102 291.682 269.989 287.636C271.875 283.591 274.5 280.466 277.864 278.261C281.227 276.057 285.114 274.955 289.523 274.955C292.932 274.955 295.625 275.523 297.602 276.659C299.602 277.773 301.125 279.045 302.17 280.477C303.239 281.886 304.068 283.045 304.659 283.955H305.341V258.182H313.386V328H305.614V319.955H304.659C304.068 320.909 303.227 322.114 302.136 323.568C301.045 325 299.489 326.284 297.466 327.42C295.443 328.534 292.75 329.091 289.386 329.091ZM290.477 321.864C293.705 321.864 296.432 321.023 298.659 319.341C300.886 317.636 302.58 315.284 303.739 312.284C304.898 309.261 305.477 305.773 305.477 301.818C305.477 297.909 304.909 294.489 303.773 291.557C302.636 288.602 300.955 286.307 298.727 284.67C296.5 283.011 293.75 282.182 290.477 282.182C287.068 282.182 284.227 283.057 281.955 284.807C279.705 286.534 278.011 288.886 276.875 291.864C275.761 294.818 275.205 298.136 275.205 301.818C275.205 305.545 275.773 308.932 276.909 311.977C278.068 315 279.773 317.409 282.023 319.205C284.295 320.977 287.114 321.864 290.477 321.864ZM357.33 328V258.182H365.784V289.273H403.011V258.182H411.466V328H403.011V296.773H365.784V328H357.33ZM442.71 329.227C439.392 329.227 436.381 328.602 433.676 327.352C430.972 326.08 428.824 324.25 427.233 321.864C425.642 319.455 424.847 316.545 424.847 313.136C424.847 310.136 425.438 307.705 426.619 305.841C427.801 303.955 429.381 302.477 431.358 301.409C433.335 300.341 435.517 299.545 437.903 299.023C440.313 298.477 442.733 298.045 445.165 297.727C448.347 297.318 450.926 297.011 452.903 296.807C454.903 296.58 456.358 296.205 457.267 295.682C458.199 295.159 458.665 294.25 458.665 292.955V292.682C458.665 289.318 457.744 286.705 455.903 284.841C454.085 282.977 451.324 282.045 447.619 282.045C443.778 282.045 440.767 282.886 438.585 284.568C436.403 286.25 434.869 288.045 433.983 289.955L426.347 287.227C427.71 284.045 429.528 281.568 431.801 279.795C434.097 278 436.597 276.75 439.301 276.045C442.028 275.318 444.71 274.955 447.347 274.955C449.028 274.955 450.96 275.159 453.142 275.568C455.347 275.955 457.472 276.761 459.517 277.989C461.585 279.216 463.301 281.068 464.665 283.545C466.028 286.023 466.71 289.341 466.71 293.5V328H458.665V320.909H458.256C457.71 322.045 456.801 323.261 455.528 324.557C454.256 325.852 452.563 326.955 450.449 327.864C448.335 328.773 445.756 329.227 442.71 329.227ZM443.938 322C447.119 322 449.801 321.375 451.983 320.125C454.188 318.875 455.847 317.261 456.96 315.284C458.097 313.307 458.665 311.227 458.665 309.045V301.682C458.324 302.091 457.574 302.466 456.415 302.807C455.278 303.125 453.96 303.409 452.46 303.659C450.983 303.886 449.54 304.091 448.131 304.273C446.744 304.432 445.619 304.568 444.756 304.682C442.665 304.955 440.71 305.398 438.892 306.011C437.097 306.602 435.642 307.5 434.528 308.705C433.438 309.886 432.892 311.5 432.892 313.545C432.892 316.341 433.926 318.455 435.994 319.886C438.085 321.295 440.733 322 443.938 322ZM481.395 347.636V275.636H489.168V283.955H490.122C490.713 283.045 491.531 281.886 492.577 280.477C493.645 279.045 495.168 277.773 497.145 276.659C499.145 275.523 501.849 274.955 505.259 274.955C509.668 274.955 513.554 276.057 516.918 278.261C520.281 280.466 522.906 283.591 524.793 287.636C526.679 291.682 527.622 296.455 527.622 301.955C527.622 307.5 526.679 312.307 524.793 316.375C522.906 320.42 520.293 323.557 516.952 325.784C513.611 327.989 509.759 329.091 505.395 329.091C502.031 329.091 499.338 328.534 497.315 327.42C495.293 326.284 493.736 325 492.645 323.568C491.554 322.114 490.713 320.909 490.122 319.955H489.44V347.636H481.395ZM489.304 301.818C489.304 305.773 489.884 309.261 491.043 312.284C492.202 315.284 493.895 317.636 496.122 319.341C498.349 321.023 501.077 321.864 504.304 321.864C507.668 321.864 510.474 320.977 512.724 319.205C514.997 317.409 516.702 315 517.838 311.977C518.997 308.932 519.577 305.545 519.577 301.818C519.577 298.136 519.009 294.818 517.872 291.864C516.759 288.886 515.065 286.534 512.793 284.807C510.543 283.057 507.713 282.182 504.304 282.182C501.031 282.182 498.281 283.011 496.054 284.67C493.827 286.307 492.145 288.602 491.009 291.557C489.872 294.489 489.304 297.909 489.304 301.818ZM539.895 347.636V275.636H547.668V283.955H548.622C549.213 283.045 550.031 281.886 551.077 280.477C552.145 279.045 553.668 277.773 555.645 276.659C557.645 275.523 560.349 274.955 563.759 274.955C568.168 274.955 572.054 276.057 575.418 278.261C578.781 280.466 581.406 283.591 583.293 287.636C585.179 291.682 586.122 296.455 586.122 301.955C586.122 307.5 585.179 312.307 583.293 316.375C581.406 320.42 578.793 323.557 575.452 325.784C572.111 327.989 568.259 329.091 563.895 329.091C560.531 329.091 557.838 328.534 555.815 327.42C553.793 326.284 552.236 325 551.145 323.568C550.054 322.114 549.213 320.909 548.622 319.955H547.94V347.636H539.895ZM547.804 301.818C547.804 305.773 548.384 309.261 549.543 312.284C550.702 315.284 552.395 317.636 554.622 319.341C556.849 321.023 559.577 321.864 562.804 321.864C566.168 321.864 568.974 320.977 571.224 319.205C573.497 317.409 575.202 315 576.338 311.977C577.497 308.932 578.077 305.545 578.077 301.818C578.077 298.136 577.509 294.818 576.372 291.864C575.259 288.886 573.565 286.534 571.293 284.807C569.043 283.057 566.213 282.182 562.804 282.182C559.531 282.182 556.781 283.011 554.554 284.67C552.327 286.307 550.645 288.602 549.509 291.557C548.372 294.489 547.804 297.909 547.804 301.818ZM601.702 347.636C600.338 347.636 599.122 347.523 598.054 347.295C596.986 347.091 596.247 346.886 595.838 346.682L597.884 339.591C599.838 340.091 601.565 340.273 603.065 340.136C604.565 340 605.895 339.33 607.054 338.125C608.236 336.943 609.315 335.023 610.293 332.364L611.793 328.273L592.429 275.636H601.156L615.611 317.364H616.156L630.611 275.636H639.338L617.111 335.636C616.111 338.341 614.872 340.58 613.395 342.352C611.918 344.148 610.202 345.477 608.247 346.341C606.315 347.205 604.134 347.636 601.702 347.636ZM733.412 258.182V328H725.23L687.185 273.182H686.503V328H678.048V258.182H686.23L724.412 313.136H725.094V258.182H733.412ZM771.193 329.091C766.148 329.091 761.795 327.977 758.136 325.75C754.5 323.5 751.693 320.364 749.716 316.341C747.761 312.295 746.784 307.591 746.784 302.227C746.784 296.864 747.761 292.136 749.716 288.045C751.693 283.932 754.443 280.727 757.966 278.432C761.511 276.114 765.648 274.955 770.375 274.955C773.102 274.955 775.795 275.409 778.455 276.318C781.114 277.227 783.534 278.705 785.716 280.75C787.898 282.773 789.636 285.455 790.932 288.795C792.227 292.136 792.875 296.25 792.875 301.136V304.545H752.511V297.591H784.693C784.693 294.636 784.102 292 782.92 289.682C781.761 287.364 780.102 285.534 777.943 284.193C775.807 282.852 773.284 282.182 770.375 282.182C767.17 282.182 764.398 282.977 762.057 284.568C759.739 286.136 757.955 288.182 756.705 290.705C755.455 293.227 754.83 295.932 754.83 298.818V303.455C754.83 307.409 755.511 310.761 756.875 313.511C758.261 316.239 760.182 318.318 762.636 319.75C765.091 321.159 767.943 321.864 771.193 321.864C773.307 321.864 775.216 321.568 776.92 320.977C778.648 320.364 780.136 319.455 781.386 318.25C782.636 317.023 783.602 315.5 784.284 313.682L792.057 315.864C791.239 318.5 789.864 320.818 787.932 322.818C786 324.795 783.614 326.341 780.773 327.455C777.932 328.545 774.739 329.091 771.193 329.091ZM816.977 328L801.023 275.636H809.477L820.795 315.727H821.341L832.523 275.636H841.114L852.159 315.591H852.705L864.023 275.636H872.477L856.523 328H848.614L837.159 287.773H836.341L824.886 328H816.977ZM905.205 258.182H914.886L934.25 290.773H935.068L954.432 258.182H964.114L938.886 299.227V328H930.432V299.227L905.205 258.182ZM988.506 329.091C983.46 329.091 979.108 327.977 975.449 325.75C971.812 323.5 969.006 320.364 967.028 316.341C965.074 312.295 964.097 307.591 964.097 302.227C964.097 296.864 965.074 292.136 967.028 288.045C969.006 283.932 971.756 280.727 975.278 278.432C978.824 276.114 982.96 274.955 987.688 274.955C990.415 274.955 993.108 275.409 995.767 276.318C998.426 277.227 1000.85 278.705 1003.03 280.75C1005.21 282.773 1006.95 285.455 1008.24 288.795C1009.54 292.136 1010.19 296.25 1010.19 301.136V304.545H969.824V297.591H1002.01C1002.01 294.636 1001.41 292 1000.23 289.682C999.074 287.364 997.415 285.534 995.256 284.193C993.119 282.852 990.597 282.182 987.688 282.182C984.483 282.182 981.71 282.977 979.369 284.568C977.051 286.136 975.267 288.182 974.017 290.705C972.767 293.227 972.142 295.932 972.142 298.818V303.455C972.142 307.409 972.824 310.761 974.188 313.511C975.574 316.239 977.494 318.318 979.949 319.75C982.403 321.159 985.256 321.864 988.506 321.864C990.619 321.864 992.528 321.568 994.233 320.977C995.96 320.364 997.449 319.455 998.699 318.25C999.949 317.023 1000.91 315.5 1001.6 313.682L1009.37 315.864C1008.55 318.5 1007.18 320.818 1005.24 322.818C1003.31 324.795 1000.93 326.341 998.085 327.455C995.244 328.545 992.051 329.091 988.506 329.091ZM1037.84 329.227C1034.52 329.227 1031.51 328.602 1028.8 327.352C1026.1 326.08 1023.95 324.25 1022.36 321.864C1020.77 319.455 1019.97 316.545 1019.97 313.136C1019.97 310.136 1020.56 307.705 1021.74 305.841C1022.93 303.955 1024.51 302.477 1026.48 301.409C1028.46 300.341 1030.64 299.545 1033.03 299.023C1035.44 298.477 1037.86 298.045 1040.29 297.727C1043.47 297.318 1046.05 297.011 1048.03 296.807C1050.03 296.58 1051.48 296.205 1052.39 295.682C1053.32 295.159 1053.79 294.25 1053.79 292.955V292.682C1053.79 289.318 1052.87 286.705 1051.03 284.841C1049.21 282.977 1046.45 282.045 1042.74 282.045C1038.9 282.045 1035.89 282.886 1033.71 284.568C1031.53 286.25 1029.99 288.045 1029.11 289.955L1021.47 287.227C1022.84 284.045 1024.65 281.568 1026.93 279.795C1029.22 278 1031.72 276.75 1034.43 276.045C1037.15 275.318 1039.84 274.955 1042.47 274.955C1044.15 274.955 1046.09 275.159 1048.27 275.568C1050.47 275.955 1052.6 276.761 1054.64 277.989C1056.71 279.216 1058.43 281.068 1059.79 283.545C1061.15 286.023 1061.84 289.341 1061.84 293.5V328H1053.79V320.909H1053.38C1052.84 322.045 1051.93 323.261 1050.65 324.557C1049.38 325.852 1047.69 326.955 1045.57 327.864C1043.46 328.773 1040.88 329.227 1037.84 329.227ZM1039.06 322C1042.24 322 1044.93 321.375 1047.11 320.125C1049.31 318.875 1050.97 317.261 1052.09 315.284C1053.22 313.307 1053.79 311.227 1053.79 309.045V301.682C1053.45 302.091 1052.7 302.466 1051.54 302.807C1050.4 303.125 1049.09 303.409 1047.59 303.659C1046.11 303.886 1044.66 304.091 1043.26 304.273C1041.87 304.432 1040.74 304.568 1039.88 304.682C1037.79 304.955 1035.84 305.398 1034.02 306.011C1032.22 306.602 1030.77 307.5 1029.65 308.705C1028.56 309.886 1028.02 311.5 1028.02 313.545C1028.02 316.341 1029.05 318.455 1031.12 319.886C1033.21 321.295 1035.86 322 1039.06 322ZM1076.52 328V275.636H1084.29V283.545H1084.84C1085.79 280.955 1087.52 278.852 1090.02 277.239C1092.52 275.625 1095.34 274.818 1098.47 274.818C1099.07 274.818 1099.8 274.83 1100.69 274.852C1101.58 274.875 1102.25 274.909 1102.7 274.955V283.136C1102.43 283.068 1101.8 282.966 1100.83 282.83C1099.87 282.67 1098.86 282.591 1097.79 282.591C1095.25 282.591 1092.97 283.125 1090.97 284.193C1089 285.239 1087.43 286.693 1086.27 288.557C1085.13 290.398 1084.57 292.5 1084.57 294.864V328H1076.52Z" fill="#17F871"/>
<rect x="153" y="400" width="452" height="78" rx="16" fill="#17F871"/>
<path d="M189.722 430.75V427.727H207.733V430.75H200.472V451H196.972V430.75H189.722ZM214.145 451.386C213.039 451.386 212.039 451.182 211.145 450.773C210.251 450.356 209.543 449.754 209.02 448.966C208.505 448.178 208.247 447.212 208.247 446.068C208.247 445.083 208.437 444.273 208.815 443.636C209.194 443 209.705 442.496 210.349 442.125C210.993 441.754 211.713 441.473 212.509 441.284C213.304 441.095 214.115 440.951 214.94 440.852C215.986 440.731 216.834 440.633 217.486 440.557C218.137 440.473 218.611 440.341 218.906 440.159C219.202 439.977 219.349 439.682 219.349 439.273V439.193C219.349 438.201 219.069 437.432 218.509 436.886C217.955 436.341 217.13 436.068 216.031 436.068C214.887 436.068 213.986 436.322 213.327 436.83C212.675 437.33 212.224 437.886 211.974 438.5L208.781 437.773C209.16 436.712 209.713 435.856 210.44 435.205C211.175 434.545 212.02 434.068 212.974 433.773C213.929 433.47 214.933 433.318 215.986 433.318C216.683 433.318 217.421 433.402 218.202 433.568C218.99 433.727 219.724 434.023 220.406 434.455C221.096 434.886 221.66 435.504 222.099 436.307C222.539 437.102 222.759 438.136 222.759 439.409V451H219.44V448.614H219.304C219.084 449.053 218.755 449.485 218.315 449.909C217.876 450.333 217.312 450.686 216.622 450.966C215.933 451.246 215.107 451.386 214.145 451.386ZM214.884 448.659C215.823 448.659 216.626 448.473 217.293 448.102C217.967 447.731 218.478 447.246 218.827 446.648C219.183 446.042 219.361 445.394 219.361 444.705V442.455C219.24 442.576 219.005 442.689 218.656 442.795C218.315 442.894 217.925 442.981 217.486 443.057C217.046 443.125 216.618 443.189 216.202 443.25C215.785 443.303 215.437 443.348 215.156 443.386C214.497 443.47 213.895 443.61 213.349 443.807C212.812 444.004 212.38 444.288 212.054 444.659C211.736 445.023 211.577 445.508 211.577 446.114C211.577 446.955 211.887 447.591 212.509 448.023C213.13 448.447 213.921 448.659 214.884 448.659ZM230.409 445.08L230.386 440.932H230.977L237.932 433.545H242L234.068 441.955H233.534L230.409 445.08ZM227.284 451V427.727H230.682V451H227.284ZM238.307 451L232.057 442.705L234.398 440.33L242.477 451H238.307ZM251.901 451.352C250.181 451.352 248.7 450.985 247.457 450.25C246.223 449.508 245.268 448.466 244.594 447.125C243.927 445.777 243.594 444.197 243.594 442.386C243.594 440.598 243.927 439.023 244.594 437.659C245.268 436.295 246.207 435.231 247.412 434.466C248.624 433.701 250.041 433.318 251.662 433.318C252.647 433.318 253.601 433.481 254.526 433.807C255.45 434.133 256.279 434.644 257.014 435.341C257.749 436.038 258.329 436.943 258.753 438.057C259.177 439.163 259.389 440.508 259.389 442.091V443.295H245.514V440.75H256.06C256.06 439.856 255.878 439.064 255.514 438.375C255.151 437.678 254.639 437.129 253.98 436.727C253.329 436.326 252.563 436.125 251.685 436.125C250.73 436.125 249.897 436.36 249.185 436.83C248.48 437.292 247.935 437.898 247.548 438.648C247.17 439.39 246.98 440.197 246.98 441.068V443.057C246.98 444.223 247.185 445.216 247.594 446.034C248.01 446.852 248.59 447.477 249.332 447.909C250.075 448.333 250.942 448.545 251.935 448.545C252.579 448.545 253.166 448.455 253.696 448.273C254.226 448.083 254.685 447.803 255.071 447.432C255.457 447.061 255.753 446.602 255.957 446.057L259.173 446.636C258.916 447.583 258.454 448.413 257.787 449.125C257.128 449.83 256.298 450.379 255.298 450.773C254.306 451.159 253.173 451.352 251.901 451.352ZM270.105 427.727H274.094L280.173 438.307H280.423L286.503 427.727H290.491L282.048 441.864V451H278.548V441.864L270.105 427.727ZM298.011 451.352C296.375 451.352 294.947 450.977 293.727 450.227C292.508 449.477 291.561 448.428 290.886 447.08C290.212 445.731 289.875 444.155 289.875 442.352C289.875 440.542 290.212 438.958 290.886 437.602C291.561 436.246 292.508 435.193 293.727 434.443C294.947 433.693 296.375 433.318 298.011 433.318C299.648 433.318 301.076 433.693 302.295 434.443C303.515 435.193 304.462 436.246 305.136 437.602C305.811 438.958 306.148 440.542 306.148 442.352C306.148 444.155 305.811 445.731 305.136 447.08C304.462 448.428 303.515 449.477 302.295 450.227C301.076 450.977 299.648 451.352 298.011 451.352ZM298.023 448.5C299.083 448.5 299.962 448.22 300.659 447.659C301.356 447.098 301.871 446.352 302.205 445.42C302.545 444.489 302.716 443.462 302.716 442.341C302.716 441.227 302.545 440.205 302.205 439.273C301.871 438.333 301.356 437.58 300.659 437.011C299.962 436.443 299.083 436.159 298.023 436.159C296.955 436.159 296.068 436.443 295.364 437.011C294.667 437.58 294.148 438.333 293.807 439.273C293.473 440.205 293.307 441.227 293.307 442.341C293.307 443.462 293.473 444.489 293.807 445.42C294.148 446.352 294.667 447.098 295.364 447.659C296.068 448.22 296.955 448.5 298.023 448.5ZM320.997 443.761V433.545H324.406V451H321.065V447.977H320.884C320.482 448.909 319.838 449.686 318.952 450.307C318.073 450.92 316.978 451.227 315.668 451.227C314.546 451.227 313.554 450.981 312.69 450.489C311.834 449.989 311.16 449.25 310.668 448.273C310.183 447.295 309.94 446.087 309.94 444.648V433.545H313.338V444.239C313.338 445.428 313.668 446.375 314.327 447.08C314.986 447.784 315.842 448.136 316.895 448.136C317.531 448.136 318.164 447.977 318.793 447.659C319.429 447.341 319.955 446.86 320.372 446.216C320.796 445.572 321.005 444.754 320.997 443.761ZM328.972 451V433.545H332.256V436.318H332.438C332.756 435.379 333.316 434.64 334.119 434.102C334.93 433.557 335.847 433.284 336.869 433.284C337.081 433.284 337.331 433.292 337.619 433.307C337.915 433.322 338.146 433.341 338.312 433.364V436.614C338.176 436.576 337.934 436.534 337.585 436.489C337.237 436.436 336.888 436.409 336.54 436.409C335.737 436.409 335.021 436.58 334.392 436.92C333.771 437.254 333.278 437.72 332.915 438.318C332.551 438.909 332.369 439.583 332.369 440.341V451H328.972ZM365.744 435.08C365.525 434.39 365.229 433.773 364.858 433.227C364.494 432.674 364.059 432.205 363.551 431.818C363.044 431.424 362.464 431.125 361.812 430.92C361.169 430.716 360.46 430.614 359.688 430.614C358.377 430.614 357.195 430.951 356.142 431.625C355.089 432.299 354.256 433.288 353.642 434.591C353.036 435.886 352.733 437.473 352.733 439.352C352.733 441.239 353.04 442.833 353.653 444.136C354.267 445.439 355.108 446.428 356.176 447.102C357.244 447.777 358.46 448.114 359.824 448.114C361.089 448.114 362.191 447.856 363.131 447.341C364.078 446.826 364.809 446.098 365.324 445.159C365.847 444.212 366.108 443.098 366.108 441.818L367.017 441.989H360.358V439.091H369.506V441.739C369.506 443.693 369.089 445.39 368.256 446.83C367.43 448.261 366.286 449.367 364.824 450.148C363.369 450.928 361.703 451.318 359.824 451.318C357.718 451.318 355.869 450.833 354.278 449.864C352.695 448.894 351.46 447.519 350.574 445.739C349.688 443.951 349.244 441.83 349.244 439.375C349.244 437.519 349.502 435.852 350.017 434.375C350.532 432.898 351.256 431.644 352.188 430.614C353.127 429.576 354.229 428.784 355.494 428.239C356.767 427.686 358.157 427.409 359.665 427.409C360.922 427.409 362.093 427.595 363.176 427.966C364.267 428.337 365.237 428.864 366.085 429.545C366.941 430.227 367.65 431.038 368.21 431.977C368.771 432.909 369.15 433.943 369.347 435.08H365.744ZM374.784 451V433.545H378.182V451H374.784ZM376.5 430.852C375.909 430.852 375.402 430.655 374.977 430.261C374.561 429.86 374.352 429.383 374.352 428.83C374.352 428.269 374.561 427.792 374.977 427.398C375.402 426.996 375.909 426.795 376.5 426.795C377.091 426.795 377.595 426.996 378.011 427.398C378.436 427.792 378.648 428.269 378.648 428.83C378.648 429.383 378.436 429.86 378.011 430.261C377.595 430.655 377.091 430.852 376.5 430.852ZM391.06 433.545V436.273H381.196V433.545H391.06ZM383.901 451V431.523C383.901 430.432 384.139 429.527 384.616 428.807C385.094 428.08 385.726 427.538 386.514 427.182C387.302 426.818 388.158 426.636 389.082 426.636C389.764 426.636 390.348 426.693 390.832 426.807C391.317 426.913 391.677 427.011 391.912 427.102L391.116 429.852C390.957 429.807 390.753 429.754 390.503 429.693C390.253 429.625 389.95 429.591 389.594 429.591C388.768 429.591 388.177 429.795 387.821 430.205C387.473 430.614 387.298 431.205 387.298 431.977V451H383.901ZM402.713 433.545V436.273H393.179V433.545H402.713ZM395.736 429.364H399.134V445.875C399.134 446.534 399.232 447.03 399.429 447.364C399.626 447.689 399.88 447.913 400.19 448.034C400.509 448.148 400.853 448.205 401.224 448.205C401.497 448.205 401.736 448.186 401.94 448.148C402.145 448.11 402.304 448.08 402.418 448.057L403.031 450.864C402.834 450.939 402.554 451.015 402.19 451.091C401.827 451.174 401.372 451.22 400.827 451.227C399.933 451.242 399.099 451.083 398.327 450.75C397.554 450.417 396.929 449.902 396.452 449.205C395.974 448.508 395.736 447.633 395.736 446.58V429.364ZM415.213 451V427.727H423.509C425.312 427.727 426.808 428.038 427.997 428.659C429.194 429.28 430.088 430.14 430.679 431.239C431.27 432.33 431.565 433.591 431.565 435.023C431.565 436.447 431.266 437.701 430.668 438.784C430.077 439.86 429.183 440.697 427.986 441.295C426.796 441.894 425.3 442.193 423.497 442.193H417.213V439.17H423.179C424.315 439.17 425.24 439.008 425.952 438.682C426.671 438.356 427.198 437.883 427.531 437.261C427.865 436.64 428.031 435.894 428.031 435.023C428.031 434.144 427.861 433.383 427.52 432.739C427.187 432.095 426.66 431.602 425.94 431.261C425.228 430.913 424.293 430.739 423.134 430.739H418.724V451H415.213ZM426.702 440.5L432.452 451H428.452L422.815 440.5H426.702ZM435.565 451V433.545H438.963V451H435.565ZM437.281 430.852C436.69 430.852 436.183 430.655 435.759 430.261C435.342 429.86 435.134 429.383 435.134 428.83C435.134 428.269 435.342 427.792 435.759 427.398C436.183 426.996 436.69 426.795 437.281 426.795C437.872 426.795 438.376 426.996 438.793 427.398C439.217 427.792 439.429 428.269 439.429 428.83C439.429 429.383 439.217 429.86 438.793 430.261C438.376 430.655 437.872 430.852 437.281 430.852ZM450.852 457.909C449.466 457.909 448.273 457.727 447.273 457.364C446.28 457 445.47 456.519 444.841 455.92C444.212 455.322 443.742 454.667 443.432 453.955L446.352 452.75C446.557 453.083 446.83 453.436 447.17 453.807C447.519 454.186 447.989 454.508 448.58 454.773C449.178 455.038 449.947 455.17 450.886 455.17C452.174 455.17 453.239 454.856 454.08 454.227C454.92 453.606 455.341 452.614 455.341 451.25V447.818H455.125C454.92 448.189 454.625 448.602 454.239 449.057C453.86 449.511 453.337 449.905 452.67 450.239C452.004 450.572 451.136 450.739 450.068 450.739C448.689 450.739 447.447 450.417 446.341 449.773C445.242 449.121 444.371 448.163 443.727 446.898C443.091 445.625 442.773 444.061 442.773 442.205C442.773 440.348 443.087 438.758 443.716 437.432C444.352 436.106 445.223 435.091 446.33 434.386C447.436 433.674 448.689 433.318 450.091 433.318C451.174 433.318 452.049 433.5 452.716 433.864C453.383 434.22 453.902 434.636 454.273 435.114C454.652 435.591 454.943 436.011 455.148 436.375H455.398V433.545H458.727V451.386C458.727 452.886 458.379 454.117 457.682 455.08C456.985 456.042 456.042 456.754 454.852 457.216C453.67 457.678 452.337 457.909 450.852 457.909ZM450.818 447.92C451.795 447.92 452.621 447.693 453.295 447.239C453.977 446.777 454.492 446.117 454.841 445.261C455.197 444.398 455.375 443.364 455.375 442.159C455.375 440.985 455.201 439.951 454.852 439.057C454.504 438.163 453.992 437.466 453.318 436.966C452.644 436.458 451.811 436.205 450.818 436.205C449.795 436.205 448.943 436.47 448.261 437C447.58 437.523 447.064 438.235 446.716 439.136C446.375 440.038 446.205 441.045 446.205 442.159C446.205 443.303 446.379 444.307 446.727 445.17C447.076 446.034 447.591 446.708 448.273 447.193C448.962 447.678 449.811 447.92 450.818 447.92ZM466.682 440.636V451H463.284V427.727H466.636V436.386H466.852C467.261 435.447 467.886 434.701 468.727 434.148C469.568 433.595 470.667 433.318 472.023 433.318C473.22 433.318 474.265 433.564 475.159 434.057C476.061 434.549 476.758 435.284 477.25 436.261C477.75 437.231 478 438.443 478 439.898V451H474.602V440.307C474.602 439.027 474.273 438.034 473.614 437.33C472.955 436.617 472.038 436.261 470.864 436.261C470.061 436.261 469.341 436.432 468.705 436.773C468.076 437.114 467.58 437.614 467.216 438.273C466.86 438.924 466.682 439.712 466.682 440.636ZM490.682 433.545V436.273H481.148V433.545H490.682ZM483.705 429.364H487.102V445.875C487.102 446.534 487.201 447.03 487.398 447.364C487.595 447.689 487.848 447.913 488.159 448.034C488.477 448.148 488.822 448.205 489.193 448.205C489.466 448.205 489.705 448.186 489.909 448.148C490.114 448.11 490.273 448.08 490.386 448.057L491 450.864C490.803 450.939 490.523 451.015 490.159 451.091C489.795 451.174 489.341 451.22 488.795 451.227C487.902 451.242 487.068 451.083 486.295 450.75C485.523 450.417 484.898 449.902 484.42 449.205C483.943 448.508 483.705 447.633 483.705 446.58V429.364ZM521.966 427.727V451H518.739L506.909 433.932H506.693V451H503.182V427.727H506.432L518.273 444.818H518.489V427.727H521.966ZM534.168 451.352C532.531 451.352 531.103 450.977 529.884 450.227C528.664 449.477 527.717 448.428 527.043 447.08C526.368 445.731 526.031 444.155 526.031 442.352C526.031 440.542 526.368 438.958 527.043 437.602C527.717 436.246 528.664 435.193 529.884 434.443C531.103 433.693 532.531 433.318 534.168 433.318C535.804 433.318 537.232 433.693 538.452 434.443C539.671 435.193 540.618 436.246 541.293 437.602C541.967 438.958 542.304 440.542 542.304 442.352C542.304 444.155 541.967 445.731 541.293 447.08C540.618 448.428 539.671 449.477 538.452 450.227C537.232 450.977 535.804 451.352 534.168 451.352ZM534.179 448.5C535.24 448.5 536.118 448.22 536.815 447.659C537.512 447.098 538.027 446.352 538.361 445.42C538.702 444.489 538.872 443.462 538.872 442.341C538.872 441.227 538.702 440.205 538.361 439.273C538.027 438.333 537.512 437.58 536.815 437.011C536.118 436.443 535.24 436.159 534.179 436.159C533.111 436.159 532.224 436.443 531.52 437.011C530.823 437.58 530.304 438.333 529.963 439.273C529.63 440.205 529.463 441.227 529.463 442.341C529.463 443.462 529.63 444.489 529.963 445.42C530.304 446.352 530.823 447.098 531.52 447.659C532.224 448.22 533.111 448.5 534.179 448.5ZM549.349 451L544.213 433.545H547.724L551.145 446.364H551.315L554.747 433.545H558.259L561.668 446.307H561.838L565.236 433.545H568.747L563.622 451H560.156L556.611 438.398H556.349L552.804 451H549.349Z" fill="#0057FA"/>
<rect x="475" y="713" width="491" height="36" rx="8" fill="#0100FE"/>
<path d="M493.733 736V725.818H497.293C498.002 725.818 498.587 725.941 499.048 726.186C499.508 726.428 499.851 726.754 500.077 727.165C500.302 727.573 500.415 728.026 500.415 728.523C500.415 728.96 500.337 729.321 500.181 729.607C500.029 729.892 499.826 730.117 499.575 730.283C499.326 730.448 499.056 730.571 498.764 730.651V730.75C499.076 730.77 499.389 730.879 499.704 731.078C500.019 731.277 500.282 731.562 500.494 731.933C500.706 732.304 500.812 732.759 500.812 733.295C500.812 733.806 500.696 734.265 500.464 734.673C500.232 735.08 499.866 735.403 499.366 735.642C498.865 735.881 498.214 736 497.412 736H493.733ZM494.966 734.906H497.412C498.217 734.906 498.789 734.75 499.127 734.439C499.469 734.124 499.639 733.743 499.639 733.295C499.639 732.951 499.551 732.633 499.376 732.341C499.2 732.046 498.95 731.811 498.625 731.635C498.3 731.456 497.916 731.366 497.472 731.366H494.966V734.906ZM494.966 730.293H497.253C497.624 730.293 497.959 730.22 498.257 730.074C498.559 729.928 498.797 729.723 498.973 729.457C499.152 729.192 499.241 728.881 499.241 728.523C499.241 728.075 499.086 727.696 498.774 727.384C498.463 727.069 497.969 726.912 497.293 726.912H494.966V730.293ZM503.435 738.864C503.236 738.864 503.059 738.847 502.903 738.814C502.747 738.784 502.64 738.754 502.58 738.724L502.878 737.69C503.163 737.763 503.415 737.79 503.634 737.77C503.853 737.75 504.047 737.652 504.216 737.477C504.388 737.304 504.545 737.024 504.688 736.636L504.907 736.04L502.083 728.364H503.355L505.463 734.449H505.543L507.651 728.364H508.924L505.682 737.114C505.536 737.508 505.356 737.835 505.14 738.093C504.925 738.355 504.675 738.549 504.39 738.675C504.108 738.801 503.79 738.864 503.435 738.864ZM517.512 736.159C516.796 736.159 516.18 735.99 515.663 735.652C515.146 735.314 514.748 734.848 514.469 734.255C514.191 733.662 514.052 732.984 514.052 732.222C514.052 731.446 514.194 730.762 514.479 730.168C514.768 729.572 515.169 729.106 515.683 728.771C516.2 728.433 516.803 728.264 517.492 728.264C518.029 728.264 518.513 728.364 518.944 728.562C519.375 728.761 519.728 729.04 520.003 729.398C520.278 729.756 520.449 730.173 520.515 730.651H519.342C519.252 730.303 519.053 729.994 518.745 729.726C518.44 729.454 518.029 729.318 517.512 729.318C517.055 729.318 516.654 729.437 516.309 729.676C515.968 729.911 515.701 730.245 515.509 730.675C515.32 731.103 515.225 731.605 515.225 732.182C515.225 732.772 515.318 733.286 515.504 733.723C515.692 734.161 515.958 734.5 516.299 734.742C516.644 734.984 517.048 735.105 517.512 735.105C517.817 735.105 518.094 735.052 518.342 734.946C518.591 734.84 518.801 734.688 518.974 734.489C519.146 734.29 519.269 734.051 519.342 733.773H520.515C520.449 734.223 520.285 734.629 520.023 734.991C519.764 735.349 519.421 735.634 518.994 735.846C518.569 736.055 518.076 736.159 517.512 736.159ZM525.332 736.159C524.643 736.159 524.038 735.995 523.518 735.667C523.001 735.339 522.596 734.88 522.305 734.29C522.016 733.7 521.872 733.01 521.872 732.222C521.872 731.426 522.016 730.732 522.305 730.138C522.596 729.545 523.001 729.085 523.518 728.756C524.038 728.428 524.643 728.264 525.332 728.264C526.022 728.264 526.625 728.428 527.142 728.756C527.662 729.085 528.067 729.545 528.355 730.138C528.647 730.732 528.793 731.426 528.793 732.222C528.793 733.01 528.647 733.7 528.355 734.29C528.067 734.88 527.662 735.339 527.142 735.667C526.625 735.995 526.022 736.159 525.332 736.159ZM525.332 735.105C525.856 735.105 526.287 734.971 526.625 734.702C526.963 734.434 527.213 734.081 527.376 733.643C527.538 733.206 527.619 732.732 527.619 732.222C527.619 731.711 527.538 731.236 527.376 730.795C527.213 730.354 526.963 729.998 526.625 729.726C526.287 729.454 525.856 729.318 525.332 729.318C524.809 729.318 524.378 729.454 524.04 729.726C523.702 729.998 523.451 730.354 523.289 730.795C523.127 731.236 523.045 731.711 523.045 732.222C523.045 732.732 523.127 733.206 523.289 733.643C523.451 734.081 523.702 734.434 524.04 734.702C524.378 734.971 524.809 735.105 525.332 735.105ZM531.757 731.406V736H530.584V728.364H531.717V729.557H531.817C531.996 729.169 532.267 728.857 532.632 728.622C532.997 728.384 533.467 728.264 534.044 728.264C534.561 728.264 535.013 728.37 535.401 728.582C535.789 728.791 536.09 729.109 536.306 729.537C536.521 729.961 536.629 730.498 536.629 731.148V736H535.456V731.227C535.456 730.627 535.3 730.16 534.988 729.825C534.677 729.487 534.249 729.318 533.706 729.318C533.331 729.318 532.997 729.399 532.702 729.562C532.41 729.724 532.18 729.961 532.01 730.273C531.841 730.584 531.757 730.962 531.757 731.406ZM542.094 728.364V729.358H538.137V728.364H542.094ZM539.29 726.534H540.463V733.812C540.463 734.144 540.511 734.393 540.608 734.558C540.707 734.721 540.833 734.83 540.985 734.886C541.141 734.939 541.305 734.966 541.478 734.966C541.607 734.966 541.713 734.959 541.796 734.946C541.879 734.929 541.945 734.916 541.995 734.906L542.233 735.96C542.154 735.99 542.043 736.02 541.9 736.05C541.758 736.083 541.577 736.099 541.358 736.099C541.027 736.099 540.702 736.028 540.384 735.886C540.069 735.743 539.807 735.526 539.598 735.234C539.393 734.943 539.29 734.575 539.29 734.131V726.534ZM543.859 736V728.364H545.032V736H543.859ZM544.456 727.091C544.227 727.091 544.03 727.013 543.864 726.857C543.702 726.701 543.62 726.514 543.62 726.295C543.62 726.077 543.702 725.889 543.864 725.734C544.03 725.578 544.227 725.5 544.456 725.5C544.684 725.5 544.88 725.578 545.042 725.734C545.208 725.889 545.291 726.077 545.291 726.295C545.291 726.514 545.208 726.701 545.042 726.857C544.88 727.013 544.684 727.091 544.456 727.091ZM548.355 731.406V736H547.181V728.364H548.315V729.557H548.414C548.593 729.169 548.865 728.857 549.23 728.622C549.594 728.384 550.065 728.264 550.642 728.264C551.159 728.264 551.611 728.37 551.999 728.582C552.387 728.791 552.688 729.109 552.904 729.537C553.119 729.961 553.227 730.498 553.227 731.148V736H552.053V731.227C552.053 730.627 551.898 730.16 551.586 729.825C551.275 729.487 550.847 729.318 550.303 729.318C549.929 729.318 549.594 729.399 549.299 729.562C549.008 729.724 548.777 729.961 548.608 730.273C548.439 730.584 548.355 730.962 548.355 731.406ZM560.183 732.878V728.364H561.357V736H560.183V734.707H560.104C559.925 735.095 559.646 735.425 559.268 735.697C558.891 735.965 558.413 736.099 557.837 736.099C557.359 736.099 556.935 735.995 556.564 735.786C556.193 735.574 555.901 735.256 555.689 734.832C555.477 734.404 555.371 733.866 555.371 733.216V728.364H556.544V733.136C556.544 733.693 556.7 734.137 557.011 734.469C557.326 734.8 557.727 734.966 558.214 734.966C558.506 734.966 558.803 734.891 559.104 734.742C559.409 734.593 559.665 734.364 559.87 734.056C560.079 733.748 560.183 733.355 560.183 732.878ZM563.506 736V728.364H564.679V736H563.506ZM564.102 727.091C563.873 727.091 563.676 727.013 563.51 726.857C563.348 726.701 563.267 726.514 563.267 726.295C563.267 726.077 563.348 725.889 563.51 725.734C563.676 725.578 563.873 725.5 564.102 725.5C564.331 725.5 564.526 725.578 564.689 725.734C564.854 725.889 564.937 726.077 564.937 726.295C564.937 726.514 564.854 726.701 564.689 726.857C564.526 727.013 564.331 727.091 564.102 727.091ZM568.001 731.406V736H566.828V728.364H567.961V729.557H568.061C568.24 729.169 568.511 728.857 568.876 728.622C569.241 728.384 569.711 728.264 570.288 728.264C570.805 728.264 571.257 728.37 571.645 728.582C572.033 728.791 572.335 729.109 572.55 729.537C572.766 729.961 572.873 730.498 572.873 731.148V736H571.7V731.227C571.7 730.627 571.544 730.16 571.233 729.825C570.921 729.487 570.493 729.318 569.95 729.318C569.575 729.318 569.241 729.399 568.946 729.562C568.654 729.724 568.424 729.961 568.255 730.273C568.086 730.584 568.001 730.962 568.001 731.406ZM578.1 739.023C577.533 739.023 577.046 738.95 576.638 738.804C576.23 738.661 575.891 738.473 575.619 738.237C575.35 738.005 575.137 737.757 574.977 737.491L575.912 736.835C576.018 736.974 576.152 737.134 576.315 737.312C576.477 737.495 576.699 737.652 576.981 737.785C577.266 737.921 577.639 737.989 578.1 737.989C578.716 737.989 579.225 737.839 579.626 737.541C580.027 737.243 580.227 736.776 580.227 736.139V734.588H580.128C580.042 734.727 579.919 734.9 579.76 735.105C579.604 735.307 579.379 735.488 579.084 735.647C578.792 735.803 578.398 735.881 577.901 735.881C577.284 735.881 576.731 735.735 576.24 735.443C575.753 735.152 575.367 734.727 575.082 734.17C574.8 733.614 574.659 732.937 574.659 732.142C574.659 731.36 574.797 730.679 575.072 730.099C575.347 729.515 575.73 729.065 576.22 728.746C576.711 728.425 577.278 728.264 577.921 728.264C578.418 728.264 578.812 728.347 579.104 728.513C579.399 728.675 579.624 728.861 579.78 729.07C579.939 729.275 580.062 729.444 580.148 729.577H580.267V728.364H581.401V736.219C581.401 736.875 581.252 737.409 580.953 737.82C580.658 738.234 580.261 738.537 579.76 738.729C579.263 738.925 578.709 739.023 578.1 739.023ZM578.06 734.827C578.53 734.827 578.928 734.719 579.253 734.504C579.578 734.288 579.825 733.978 579.994 733.574C580.163 733.17 580.247 732.686 580.247 732.122C580.247 731.572 580.164 731.086 579.999 730.665C579.833 730.245 579.588 729.915 579.263 729.676C578.938 729.437 578.537 729.318 578.06 729.318C577.563 729.318 577.148 729.444 576.817 729.696C576.489 729.948 576.242 730.286 576.076 730.71C575.914 731.134 575.833 731.605 575.833 732.122C575.833 732.652 575.915 733.121 576.081 733.529C576.25 733.933 576.499 734.252 576.827 734.484C577.158 734.712 577.569 734.827 578.06 734.827ZM590.807 728.364V729.358H586.85V728.364H590.807ZM588.003 726.534H589.176V733.812C589.176 734.144 589.224 734.393 589.32 734.558C589.42 734.721 589.546 734.83 589.698 734.886C589.854 734.939 590.018 734.966 590.191 734.966C590.32 734.966 590.426 734.959 590.509 734.946C590.592 734.929 590.658 734.916 590.708 734.906L590.946 735.96C590.867 735.99 590.756 736.02 590.613 736.05C590.471 736.083 590.29 736.099 590.071 736.099C589.74 736.099 589.415 736.028 589.097 735.886C588.782 735.743 588.52 735.526 588.311 735.234C588.106 734.943 588.003 734.575 588.003 734.131V726.534ZM595.592 736.159C594.903 736.159 594.298 735.995 593.778 735.667C593.26 735.339 592.856 734.88 592.564 734.29C592.276 733.7 592.132 733.01 592.132 732.222C592.132 731.426 592.276 730.732 592.564 730.138C592.856 729.545 593.26 729.085 593.778 728.756C594.298 728.428 594.903 728.264 595.592 728.264C596.282 728.264 596.885 728.428 597.402 728.756C597.922 729.085 598.327 729.545 598.615 730.138C598.907 730.732 599.052 731.426 599.052 732.222C599.052 733.01 598.907 733.7 598.615 734.29C598.327 734.88 597.922 735.339 597.402 735.667C596.885 735.995 596.282 736.159 595.592 736.159ZM595.592 735.105C596.116 735.105 596.547 734.971 596.885 734.702C597.223 734.434 597.473 734.081 597.635 733.643C597.798 733.206 597.879 732.732 597.879 732.222C597.879 731.711 597.798 731.236 597.635 730.795C597.473 730.354 597.223 729.998 596.885 729.726C596.547 729.454 596.116 729.318 595.592 729.318C595.068 729.318 594.638 729.454 594.3 729.726C593.961 729.998 593.711 730.354 593.549 730.795C593.386 731.236 593.305 731.711 593.305 732.222C593.305 732.732 593.386 733.206 593.549 733.643C593.711 734.081 593.961 734.434 594.3 734.702C594.638 734.971 595.068 735.105 595.592 735.105ZM609.593 732.878V728.364H610.767V736H609.593V734.707H609.514C609.335 735.095 609.056 735.425 608.679 735.697C608.301 735.965 607.824 736.099 607.247 736.099C606.77 736.099 606.345 735.995 605.974 735.786C605.603 735.574 605.311 735.256 605.099 734.832C604.887 734.404 604.781 733.866 604.781 733.216V728.364H605.954V733.136C605.954 733.693 606.11 734.137 606.422 734.469C606.736 734.8 607.137 734.966 607.625 734.966C607.916 734.966 608.213 734.891 608.515 734.742C608.819 734.593 609.075 734.364 609.28 734.056C609.489 733.748 609.593 733.355 609.593 732.878ZM618.325 730.074L617.271 730.372C617.204 730.196 617.107 730.026 616.977 729.86C616.852 729.691 616.679 729.552 616.46 729.442C616.242 729.333 615.962 729.278 615.62 729.278C615.153 729.278 614.763 729.386 614.452 729.602C614.144 729.814 613.99 730.084 613.99 730.412C613.99 730.704 614.096 730.934 614.308 731.103C614.52 731.272 614.851 731.413 615.302 731.526L616.436 731.804C617.118 731.97 617.627 732.223 617.962 732.565C618.297 732.903 618.464 733.339 618.464 733.872C618.464 734.31 618.338 734.701 618.086 735.045C617.838 735.39 617.49 735.662 617.042 735.861C616.595 736.06 616.074 736.159 615.481 736.159C614.702 736.159 614.057 735.99 613.547 735.652C613.037 735.314 612.713 734.82 612.578 734.17L613.691 733.892C613.797 734.303 613.998 734.611 614.293 734.817C614.591 735.022 614.981 735.125 615.461 735.125C616.008 735.125 616.442 735.009 616.764 734.777C617.088 734.542 617.251 734.26 617.251 733.932C617.251 733.667 617.158 733.445 616.972 733.266C616.787 733.083 616.502 732.947 616.117 732.858L614.845 732.56C614.145 732.394 613.632 732.137 613.303 731.789C612.979 731.438 612.816 730.999 612.816 730.472C612.816 730.041 612.937 729.66 613.179 729.328C613.424 728.997 613.758 728.737 614.178 728.548C614.603 728.359 615.083 728.264 615.62 728.264C616.376 728.264 616.969 728.43 617.4 728.761C617.834 729.093 618.142 729.53 618.325 730.074ZM623.432 736.159C622.696 736.159 622.061 735.997 621.528 735.672C620.997 735.344 620.588 734.886 620.3 734.3C620.015 733.71 619.872 733.024 619.872 732.241C619.872 731.459 620.015 730.77 620.3 730.173C620.588 729.573 620.989 729.106 621.503 728.771C622.02 728.433 622.623 728.264 623.312 728.264C623.71 728.264 624.103 728.33 624.491 728.463C624.879 728.596 625.232 728.811 625.55 729.109C625.868 729.404 626.121 729.795 626.31 730.283C626.499 730.77 626.594 731.37 626.594 732.082V732.58H620.707V731.565H625.401C625.401 731.134 625.314 730.75 625.142 730.412C624.973 730.074 624.731 729.807 624.416 729.612C624.105 729.416 623.737 729.318 623.312 729.318C622.845 729.318 622.441 729.434 622.099 729.666C621.761 729.895 621.501 730.193 621.319 730.561C621.137 730.929 621.045 731.323 621.045 731.744V732.42C621.045 732.997 621.145 733.486 621.344 733.887C621.546 734.285 621.826 734.588 622.184 734.797C622.542 735.002 622.958 735.105 623.432 735.105C623.74 735.105 624.018 735.062 624.267 734.976C624.519 734.886 624.736 734.754 624.918 734.578C625.101 734.399 625.241 734.177 625.341 733.912L626.474 734.23C626.355 734.615 626.155 734.953 625.873 735.244C625.591 735.533 625.243 735.758 624.829 735.92C624.415 736.08 623.949 736.159 623.432 736.159ZM635.637 728.364V729.358H631.68V728.364H635.637ZM632.833 726.534H634.006V733.812C634.006 734.144 634.054 734.393 634.151 734.558C634.25 734.721 634.376 734.83 634.528 734.886C634.684 734.939 634.848 734.966 635.021 734.966C635.15 734.966 635.256 734.959 635.339 734.946C635.422 734.929 635.488 734.916 635.538 734.906L635.776 735.96C635.697 735.99 635.586 736.02 635.443 736.05C635.301 736.083 635.12 736.099 634.901 736.099C634.57 736.099 634.245 736.028 633.927 735.886C633.612 735.743 633.35 735.526 633.141 735.234C632.936 734.943 632.833 734.575 632.833 734.131V726.534ZM638.739 731.406V736H637.566V725.818H638.739V729.557H638.839C639.018 729.162 639.286 728.849 639.644 728.617C640.005 728.382 640.486 728.264 641.086 728.264C641.606 728.264 642.062 728.369 642.453 728.577C642.844 728.783 643.147 729.099 643.363 729.527C643.582 729.951 643.691 730.491 643.691 731.148V736H642.518V731.227C642.518 730.621 642.36 730.152 642.045 729.82C641.734 729.486 641.301 729.318 640.748 729.318C640.363 729.318 640.019 729.399 639.714 729.562C639.412 729.724 639.174 729.961 638.998 730.273C638.826 730.584 638.739 730.962 638.739 731.406ZM645.838 736V728.364H647.011V736H645.838ZM646.434 727.091C646.205 727.091 646.008 727.013 645.843 726.857C645.68 726.701 645.599 726.514 645.599 726.295C645.599 726.077 645.68 725.889 645.843 725.734C646.008 725.578 646.205 725.5 646.434 725.5C646.663 725.5 646.858 725.578 647.021 725.734C647.186 725.889 647.269 726.077 647.269 726.295C647.269 726.514 647.186 726.701 647.021 726.857C646.858 727.013 646.663 727.091 646.434 727.091ZM654.569 730.074L653.515 730.372C653.449 730.196 653.351 730.026 653.222 729.86C653.096 729.691 652.923 729.552 652.705 729.442C652.486 729.333 652.206 729.278 651.864 729.278C651.397 729.278 651.008 729.386 650.696 729.602C650.388 729.814 650.234 730.084 650.234 730.412C650.234 730.704 650.34 730.934 650.552 731.103C650.764 731.272 651.095 731.413 651.546 731.526L652.68 731.804C653.362 731.97 653.871 732.223 654.206 732.565C654.541 732.903 654.708 733.339 654.708 733.872C654.708 734.31 654.582 734.701 654.33 735.045C654.082 735.39 653.734 735.662 653.286 735.861C652.839 736.06 652.318 736.159 651.725 736.159C650.946 736.159 650.302 735.99 649.791 735.652C649.281 735.314 648.958 734.82 648.822 734.17L649.935 733.892C650.041 734.303 650.242 734.611 650.537 734.817C650.835 735.022 651.225 735.125 651.705 735.125C652.252 735.125 652.686 735.009 653.008 734.777C653.333 734.542 653.495 734.26 653.495 733.932C653.495 733.667 653.402 733.445 653.217 733.266C653.031 733.083 652.746 732.947 652.362 732.858L651.089 732.56C650.389 732.394 649.876 732.137 649.548 731.789C649.223 731.438 649.06 730.999 649.06 730.472C649.06 730.041 649.181 729.66 649.423 729.328C649.669 728.997 650.002 728.737 650.423 728.548C650.847 728.359 651.327 728.264 651.864 728.264C652.62 728.264 653.213 728.43 653.644 728.761C654.078 729.093 654.387 729.53 654.569 730.074ZM665.821 730.074L664.767 730.372C664.701 730.196 664.603 730.026 664.474 729.86C664.348 729.691 664.175 729.552 663.956 729.442C663.738 729.333 663.458 729.278 663.116 729.278C662.649 729.278 662.26 729.386 661.948 729.602C661.64 729.814 661.486 730.084 661.486 730.412C661.486 730.704 661.592 730.934 661.804 731.103C662.016 731.272 662.347 731.413 662.798 731.526L663.932 731.804C664.614 731.97 665.123 732.223 665.458 732.565C665.793 732.903 665.96 733.339 665.96 733.872C665.96 734.31 665.834 734.701 665.582 735.045C665.334 735.39 664.986 735.662 664.538 735.861C664.091 736.06 663.57 736.159 662.977 736.159C662.198 736.159 661.554 735.99 661.043 735.652C660.533 735.314 660.21 734.82 660.074 734.17L661.187 733.892C661.293 734.303 661.494 734.611 661.789 734.817C662.087 735.022 662.477 735.125 662.957 735.125C663.504 735.125 663.938 735.009 664.26 734.777C664.585 734.542 664.747 734.26 664.747 733.932C664.747 733.667 664.654 733.445 664.469 733.266C664.283 733.083 663.998 732.947 663.613 732.858L662.341 732.56C661.641 732.394 661.128 732.137 660.8 731.789C660.475 731.438 660.312 730.999 660.312 730.472C660.312 730.041 660.433 729.66 660.675 729.328C660.921 728.997 661.254 728.737 661.675 728.548C662.099 728.359 662.579 728.264 663.116 728.264C663.872 728.264 664.465 728.43 664.896 728.761C665.33 729.093 665.639 729.53 665.821 730.074ZM667.726 736V728.364H668.9V736H667.726ZM668.323 727.091C668.094 727.091 667.897 727.013 667.731 726.857C667.569 726.701 667.488 726.514 667.488 726.295C667.488 726.077 667.569 725.889 667.731 725.734C667.897 725.578 668.094 725.5 668.323 725.5C668.551 725.5 668.747 725.578 668.909 725.734C669.075 725.889 669.158 726.077 669.158 726.295C669.158 726.514 669.075 726.701 668.909 726.857C668.747 727.013 668.551 727.091 668.323 727.091ZM674.369 728.364V729.358H670.412V728.364H674.369ZM671.566 726.534H672.739V733.812C672.739 734.144 672.787 734.393 672.883 734.558C672.982 734.721 673.108 734.83 673.261 734.886C673.417 734.939 673.581 734.966 673.753 734.966C673.882 734.966 673.988 734.959 674.071 734.946C674.154 734.929 674.22 734.916 674.27 734.906L674.509 735.96C674.429 735.99 674.318 736.02 674.176 736.05C674.033 736.083 673.852 736.099 673.634 736.099C673.302 736.099 672.977 736.028 672.659 735.886C672.344 735.743 672.083 735.526 671.874 735.234C671.668 734.943 671.566 734.575 671.566 734.131V726.534ZM679.254 736.159C678.518 736.159 677.884 735.997 677.35 735.672C676.82 735.344 676.41 734.886 676.122 734.3C675.837 733.71 675.694 733.024 675.694 732.241C675.694 731.459 675.837 730.77 676.122 730.173C676.41 729.573 676.811 729.106 677.325 728.771C677.842 728.433 678.445 728.264 679.135 728.264C679.532 728.264 679.925 728.33 680.313 728.463C680.701 728.596 681.054 728.811 681.372 729.109C681.69 729.404 681.944 729.795 682.133 730.283C682.322 730.77 682.416 731.37 682.416 732.082V732.58H676.53V731.565H681.223C681.223 731.134 681.137 730.75 680.964 730.412C680.795 730.074 680.553 729.807 680.238 729.612C679.927 729.416 679.559 729.318 679.135 729.318C678.667 729.318 678.263 729.434 677.922 729.666C677.584 729.895 677.323 730.193 677.141 730.561C676.959 730.929 676.868 731.323 676.868 731.744V732.42C676.868 732.997 676.967 733.486 677.166 733.887C677.368 734.285 677.648 734.588 678.006 734.797C678.364 735.002 678.78 735.105 679.254 735.105C679.562 735.105 679.841 735.062 680.089 734.976C680.341 734.886 680.558 734.754 680.741 734.578C680.923 734.399 681.064 734.177 681.163 733.912L682.297 734.23C682.177 734.615 681.977 734.953 681.695 735.244C681.413 735.533 681.065 735.758 680.651 735.92C680.237 736.08 679.771 736.159 679.254 736.159ZM688.894 738.864C688.695 738.864 688.518 738.847 688.362 738.814C688.206 738.784 688.099 738.754 688.039 738.724L688.337 737.69C688.622 737.763 688.874 737.79 689.093 737.77C689.312 737.75 689.506 737.652 689.675 737.477C689.847 737.304 690.004 737.024 690.147 736.636L690.366 736.04L687.542 728.364H688.814L690.922 734.449H691.002L693.11 728.364H694.383L691.141 737.114C690.995 737.508 690.815 737.835 690.599 738.093C690.384 738.355 690.134 738.549 689.849 738.675C689.567 738.801 689.249 738.864 688.894 738.864ZM698.76 736.159C698.071 736.159 697.466 735.995 696.945 735.667C696.428 735.339 696.024 734.88 695.732 734.29C695.444 733.7 695.3 733.01 695.3 732.222C695.3 731.426 695.444 730.732 695.732 730.138C696.024 729.545 696.428 729.085 696.945 728.756C697.466 728.428 698.071 728.264 698.76 728.264C699.45 728.264 700.053 728.428 700.57 728.756C701.09 729.085 701.494 729.545 701.783 730.138C702.075 730.732 702.22 731.426 702.22 732.222C702.22 733.01 702.075 733.7 701.783 734.29C701.494 734.88 701.09 735.339 700.57 735.667C700.053 735.995 699.45 736.159 698.76 736.159ZM698.76 735.105C699.284 735.105 699.715 734.971 700.053 734.702C700.391 734.434 700.641 734.081 700.803 733.643C700.966 733.206 701.047 732.732 701.047 732.222C701.047 731.711 700.966 731.236 700.803 730.795C700.641 730.354 700.391 729.998 700.053 729.726C699.715 729.454 699.284 729.318 698.76 729.318C698.236 729.318 697.806 729.454 697.468 729.726C697.129 729.998 696.879 730.354 696.717 730.795C696.554 731.236 696.473 731.711 696.473 732.222C696.473 732.732 696.554 733.206 696.717 733.643C696.879 734.081 697.129 734.434 697.468 734.702C697.806 734.971 698.236 735.105 698.76 735.105ZM708.824 732.878V728.364H709.997V736H708.824V734.707H708.744C708.565 735.095 708.287 735.425 707.909 735.697C707.531 735.965 707.054 736.099 706.477 736.099C706 736.099 705.576 735.995 705.205 735.786C704.833 735.574 704.542 735.256 704.33 734.832C704.117 734.404 704.011 733.866 704.011 733.216V728.364H705.185V733.136C705.185 733.693 705.34 734.137 705.652 734.469C705.967 734.8 706.368 734.966 706.855 734.966C707.147 734.966 707.443 734.891 707.745 734.742C708.05 734.593 708.305 734.364 708.511 734.056C708.719 733.748 708.824 733.355 708.824 732.878ZM719.186 736.159C718.47 736.159 717.854 735.99 717.336 735.652C716.819 735.314 716.422 734.848 716.143 734.255C715.865 733.662 715.726 732.984 715.726 732.222C715.726 731.446 715.868 730.762 716.153 730.168C716.442 729.572 716.843 729.106 717.356 728.771C717.873 728.433 718.477 728.264 719.166 728.264C719.703 728.264 720.187 728.364 720.618 728.562C721.049 728.761 721.402 729.04 721.677 729.398C721.952 729.756 722.122 730.173 722.189 730.651H721.015C720.926 730.303 720.727 729.994 720.419 729.726C720.114 729.454 719.703 729.318 719.186 729.318C718.729 729.318 718.327 729.437 717.983 729.676C717.641 729.911 717.375 730.245 717.182 730.675C716.993 731.103 716.899 731.605 716.899 732.182C716.899 732.772 716.992 733.286 717.177 733.723C717.366 734.161 717.631 734.5 717.973 734.742C718.318 734.984 718.722 735.105 719.186 735.105C719.491 735.105 719.768 735.052 720.016 734.946C720.265 734.84 720.475 734.688 720.648 734.489C720.82 734.29 720.943 734.051 721.015 733.773H722.189C722.122 734.223 721.958 734.629 721.697 734.991C721.438 735.349 721.095 735.634 720.667 735.846C720.243 736.055 719.749 736.159 719.186 736.159ZM727.006 736.159C726.317 736.159 725.712 735.995 725.192 735.667C724.675 735.339 724.27 734.88 723.979 734.29C723.69 733.7 723.546 733.01 723.546 732.222C723.546 731.426 723.69 730.732 723.979 730.138C724.27 729.545 724.675 729.085 725.192 728.756C725.712 728.428 726.317 728.264 727.006 728.264C727.696 728.264 728.299 728.428 728.816 728.756C729.336 729.085 729.741 729.545 730.029 730.138C730.321 730.732 730.466 731.426 730.466 732.222C730.466 733.01 730.321 733.7 730.029 734.29C729.741 734.88 729.336 735.339 728.816 735.667C728.299 735.995 727.696 736.159 727.006 736.159ZM727.006 735.105C727.53 735.105 727.961 734.971 728.299 734.702C728.637 734.434 728.887 734.081 729.05 733.643C729.212 733.206 729.293 732.732 729.293 732.222C729.293 731.711 729.212 731.236 729.05 730.795C728.887 730.354 728.637 729.998 728.299 729.726C727.961 729.454 727.53 729.318 727.006 729.318C726.483 729.318 726.052 729.454 725.714 729.726C725.376 729.998 725.125 730.354 724.963 730.795C724.8 731.236 724.719 731.711 724.719 732.222C724.719 732.732 724.8 733.206 724.963 733.643C725.125 734.081 725.376 734.434 725.714 734.702C726.052 734.971 726.483 735.105 727.006 735.105ZM733.431 731.406V736H732.257V728.364H733.391V729.557H733.49C733.669 729.169 733.941 728.857 734.306 728.622C734.67 728.384 735.141 728.264 735.718 728.264C736.235 728.264 736.687 728.37 737.075 728.582C737.463 728.791 737.764 729.109 737.98 729.537C738.195 729.961 738.303 730.498 738.303 731.148V736H737.13V731.227C737.13 730.627 736.974 730.16 736.662 729.825C736.351 729.487 735.923 729.318 735.38 729.318C735.005 729.318 734.67 729.399 734.375 729.562C734.084 729.724 733.853 729.961 733.684 730.273C733.515 730.584 733.431 730.962 733.431 731.406ZM745.856 730.074L744.802 730.372C744.736 730.196 744.638 730.026 744.509 729.86C744.383 729.691 744.21 729.552 743.992 729.442C743.773 729.333 743.493 729.278 743.151 729.278C742.684 729.278 742.295 729.386 741.983 729.602C741.675 729.814 741.521 730.084 741.521 730.412C741.521 730.704 741.627 730.934 741.839 731.103C742.051 731.272 742.383 731.413 742.833 731.526L743.967 731.804C744.65 731.97 745.158 732.223 745.493 732.565C745.828 732.903 745.995 733.339 745.995 733.872C745.995 734.31 745.869 734.701 745.617 735.045C745.369 735.39 745.021 735.662 744.573 735.861C744.126 736.06 743.606 736.159 743.012 736.159C742.233 736.159 741.589 735.99 741.078 735.652C740.568 735.314 740.245 734.82 740.109 734.17L741.222 733.892C741.329 734.303 741.529 734.611 741.824 734.817C742.122 735.022 742.512 735.125 742.992 735.125C743.539 735.125 743.973 735.009 744.295 734.777C744.62 734.542 744.782 734.26 744.782 733.932C744.782 733.667 744.689 733.445 744.504 733.266C744.318 733.083 744.033 732.947 743.649 732.858L742.376 732.56C741.677 732.394 741.163 732.137 740.835 731.789C740.51 731.438 740.347 730.999 740.347 730.472C740.347 730.041 740.468 729.66 740.71 729.328C740.956 728.997 741.289 728.737 741.71 728.548C742.134 728.359 742.615 728.264 743.151 728.264C743.907 728.264 744.5 728.43 744.931 728.761C745.365 729.093 745.674 729.53 745.856 730.074ZM750.963 736.159C750.227 736.159 749.593 735.997 749.059 735.672C748.529 735.344 748.119 734.886 747.831 734.3C747.546 733.71 747.403 733.024 747.403 732.241C747.403 731.459 747.546 730.77 747.831 730.173C748.119 729.573 748.52 729.106 749.034 728.771C749.551 728.433 750.154 728.264 750.844 728.264C751.241 728.264 751.634 728.33 752.022 728.463C752.41 728.596 752.763 728.811 753.081 729.109C753.399 729.404 753.653 729.795 753.842 730.283C754.031 730.77 754.125 731.37 754.125 732.082V732.58H748.239V731.565H752.932C752.932 731.134 752.846 730.75 752.673 730.412C752.504 730.074 752.262 729.807 751.947 729.612C751.636 729.416 751.268 729.318 750.844 729.318C750.376 729.318 749.972 729.434 749.631 729.666C749.293 729.895 749.032 730.193 748.85 730.561C748.668 730.929 748.577 731.323 748.577 731.744V732.42C748.577 732.997 748.676 733.486 748.875 733.887C749.077 734.285 749.357 734.588 749.715 734.797C750.073 735.002 750.489 735.105 750.963 735.105C751.271 735.105 751.55 735.062 751.798 734.976C752.05 734.886 752.267 734.754 752.45 734.578C752.632 734.399 752.773 734.177 752.872 733.912L754.006 734.23C753.886 734.615 753.686 734.953 753.404 735.244C753.122 735.533 752.774 735.758 752.36 735.92C751.946 736.08 751.48 736.159 750.963 736.159ZM757.083 731.406V736H755.91V728.364H757.043V729.557H757.143C757.322 729.169 757.594 728.857 757.958 728.622C758.323 728.384 758.793 728.264 759.37 728.264C759.887 728.264 760.339 728.37 760.727 728.582C761.115 728.791 761.417 729.109 761.632 729.537C761.848 729.961 761.955 730.498 761.955 731.148V736H760.782V731.227C760.782 730.627 760.626 730.16 760.315 729.825C760.003 729.487 759.576 729.318 759.032 729.318C758.657 729.318 758.323 729.399 758.028 729.562C757.736 729.724 757.506 729.961 757.337 730.273C757.168 730.584 757.083 730.962 757.083 731.406ZM767.42 728.364V729.358H763.463V728.364H767.42ZM764.616 726.534H765.79V733.812C765.79 734.144 765.838 734.393 765.934 734.558C766.033 734.721 766.159 734.83 766.312 734.886C766.467 734.939 766.631 734.966 766.804 734.966C766.933 734.966 767.039 734.959 767.122 734.946C767.205 734.929 767.271 734.916 767.321 734.906L767.559 735.96C767.48 735.99 767.369 736.02 767.226 736.05C767.084 736.083 766.903 736.099 766.684 736.099C766.353 736.099 766.028 736.028 765.71 735.886C765.395 735.743 765.133 735.526 764.925 735.234C764.719 734.943 764.616 734.575 764.616 734.131V726.534ZM774.853 736L772.526 728.364H773.759L775.41 734.21H775.489L777.12 728.364H778.373L779.983 734.19H780.063L781.714 728.364H782.947L780.62 736H779.466L777.796 730.134H777.677L776.006 736H774.853ZM784.498 736V728.364H785.671V736H784.498ZM785.094 727.091C784.866 727.091 784.668 727.013 784.503 726.857C784.34 726.701 784.259 726.514 784.259 726.295C784.259 726.077 784.34 725.889 784.503 725.734C784.668 725.578 784.866 725.5 785.094 725.5C785.323 725.5 785.519 725.578 785.681 725.734C785.847 725.889 785.93 726.077 785.93 726.295C785.93 726.514 785.847 726.701 785.681 726.857C785.519 727.013 785.323 727.091 785.094 727.091ZM791.141 728.364V729.358H787.184V728.364H791.141ZM788.337 726.534H789.51V733.812C789.51 734.144 789.558 734.393 789.654 734.558C789.754 734.721 789.88 734.83 790.032 734.886C790.188 734.939 790.352 734.966 790.525 734.966C790.654 734.966 790.76 734.959 790.843 734.946C790.926 734.929 790.992 734.916 791.042 734.906L791.28 735.96C791.201 735.99 791.09 736.02 790.947 736.05C790.805 736.083 790.624 736.099 790.405 736.099C790.074 736.099 789.749 736.028 789.431 735.886C789.116 735.743 788.854 735.526 788.645 735.234C788.44 734.943 788.337 734.575 788.337 734.131V726.534ZM794.243 731.406V736H793.07V725.818H794.243V729.557H794.343C794.522 729.162 794.79 728.849 795.148 728.617C795.509 728.382 795.99 728.264 796.59 728.264C797.11 728.264 797.566 728.369 797.957 728.577C798.348 728.783 798.651 729.099 798.867 729.527C799.086 729.951 799.195 730.491 799.195 731.148V736H798.022V731.227C798.022 730.621 797.864 730.152 797.549 729.82C797.238 729.486 796.805 729.318 796.252 729.318C795.867 729.318 795.523 729.399 795.218 729.562C794.916 729.724 794.677 729.961 794.502 730.273C794.329 730.584 794.243 730.962 794.243 731.406ZM808.381 736.159C807.692 736.159 807.087 735.995 806.567 735.667C806.05 735.339 805.645 734.88 805.354 734.29C805.065 733.7 804.921 733.01 804.921 732.222C804.921 731.426 805.065 730.732 805.354 730.138C805.645 729.545 806.05 729.085 806.567 728.756C807.087 728.428 807.692 728.264 808.381 728.264C809.071 728.264 809.674 728.428 810.191 728.756C810.711 729.085 811.116 729.545 811.404 730.138C811.696 730.732 811.841 731.426 811.841 732.222C811.841 733.01 811.696 733.7 811.404 734.29C811.116 734.88 810.711 735.339 810.191 735.667C809.674 735.995 809.071 736.159 808.381 736.159ZM808.381 735.105C808.905 735.105 809.336 734.971 809.674 734.702C810.012 734.434 810.262 734.081 810.425 733.643C810.587 733.206 810.668 732.732 810.668 732.222C810.668 731.711 810.587 731.236 810.425 730.795C810.262 730.354 810.012 729.998 809.674 729.726C809.336 729.454 808.905 729.318 808.381 729.318C807.858 729.318 807.427 729.454 807.089 729.726C806.751 729.998 806.5 730.354 806.338 730.795C806.175 731.236 806.094 731.711 806.094 732.222C806.094 732.732 806.175 733.206 806.338 733.643C806.5 734.081 806.751 734.434 807.089 734.702C807.427 734.971 807.858 735.105 808.381 735.105ZM818.445 732.878V728.364H819.618V736H818.445V734.707H818.365C818.186 735.095 817.908 735.425 817.53 735.697C817.152 735.965 816.675 736.099 816.098 736.099C815.621 736.099 815.197 735.995 814.826 735.786C814.454 735.574 814.163 735.256 813.951 734.832C813.739 734.404 813.632 733.866 813.632 733.216V728.364H814.806V733.136C814.806 733.693 814.962 734.137 815.273 734.469C815.588 734.8 815.989 734.966 816.476 734.966C816.768 734.966 817.065 734.891 817.366 734.742C817.671 734.593 817.926 734.364 818.132 734.056C818.341 733.748 818.445 733.355 818.445 732.878ZM821.767 736V728.364H822.901V729.517H822.98C823.119 729.139 823.371 728.833 823.736 728.597C824.101 728.362 824.512 728.244 824.969 728.244C825.055 728.244 825.163 728.246 825.292 728.249C825.421 728.253 825.519 728.258 825.585 728.264V729.457C825.546 729.447 825.454 729.433 825.312 729.413C825.173 729.389 825.025 729.378 824.869 729.378C824.498 729.378 824.167 729.456 823.875 729.612C823.587 729.764 823.358 729.976 823.189 730.248C823.023 730.516 822.941 730.823 822.941 731.168V736H821.767ZM917.984 736.08C917.738 736.08 917.528 735.992 917.352 735.816C917.177 735.64 917.089 735.43 917.089 735.185C917.089 734.939 917.177 734.729 917.352 734.553C917.528 734.378 917.738 734.29 917.984 734.29C918.229 734.29 918.439 734.378 918.615 734.553C918.791 734.729 918.879 734.939 918.879 735.185C918.879 735.347 918.837 735.496 918.754 735.632C918.675 735.768 918.567 735.877 918.431 735.96C918.299 736.04 918.149 736.08 917.984 736.08Z" fill="#FDFDFE"/>
<path d="M834.016 736.159C833.3 736.159 832.684 735.99 832.167 735.652C831.65 735.314 831.252 734.848 830.973 734.255C830.695 733.662 830.556 732.984 830.556 732.222C830.556 731.446 830.698 730.762 830.983 730.168C831.272 729.572 831.673 729.106 832.186 728.771C832.703 728.433 833.307 728.264 833.996 728.264C834.533 728.264 835.017 728.364 835.448 728.562C835.879 728.761 836.232 729.04 836.507 729.398C836.782 729.756 836.953 730.173 837.019 730.651H835.846C835.756 730.303 835.557 729.994 835.249 729.726C834.944 729.454 834.533 729.318 834.016 729.318C833.559 729.318 833.158 729.437 832.813 729.676C832.471 729.911 832.205 730.245 832.012 730.675C831.824 731.103 831.729 731.605 831.729 732.182C831.729 732.772 831.822 733.286 832.007 733.723C832.196 734.161 832.462 734.5 832.803 734.742C833.148 734.984 833.552 735.105 834.016 735.105C834.321 735.105 834.598 735.052 834.846 734.946C835.095 734.84 835.305 734.688 835.478 734.489C835.65 734.29 835.773 734.051 835.846 733.773H837.019C836.953 734.223 836.788 734.629 836.527 734.991C836.268 735.349 835.925 735.634 835.498 735.846C835.073 736.055 834.579 736.159 834.016 736.159ZM841.836 736.159C841.147 736.159 840.542 735.995 840.022 735.667C839.505 735.339 839.1 734.88 838.809 734.29C838.52 733.7 838.376 733.01 838.376 732.222C838.376 731.426 838.52 730.732 838.809 730.138C839.1 729.545 839.505 729.085 840.022 728.756C840.542 728.428 841.147 728.264 841.836 728.264C842.526 728.264 843.129 728.428 843.646 728.756C844.166 729.085 844.571 729.545 844.859 730.138C845.151 730.732 845.297 731.426 845.297 732.222C845.297 733.01 845.151 733.7 844.859 734.29C844.571 734.88 844.166 735.339 843.646 735.667C843.129 735.995 842.526 736.159 841.836 736.159ZM841.836 735.105C842.36 735.105 842.791 734.971 843.129 734.702C843.467 734.434 843.717 734.081 843.88 733.643C844.042 733.206 844.123 732.732 844.123 732.222C844.123 731.711 844.042 731.236 843.88 730.795C843.717 730.354 843.467 729.998 843.129 729.726C842.791 729.454 842.36 729.318 841.836 729.318C841.313 729.318 840.882 729.454 840.544 729.726C840.206 729.998 839.955 730.354 839.793 730.795C839.631 731.236 839.549 731.711 839.549 732.222C839.549 732.732 839.631 733.206 839.793 733.643C839.955 734.081 840.206 734.434 840.544 734.702C840.882 734.971 841.313 735.105 841.836 735.105ZM850.19 736.159C849.5 736.159 848.896 735.995 848.375 735.667C847.858 735.339 847.454 734.88 847.162 734.29C846.874 733.7 846.73 733.01 846.73 732.222C846.73 731.426 846.874 730.732 847.162 730.138C847.454 729.545 847.858 729.085 848.375 728.756C848.896 728.428 849.5 728.264 850.19 728.264C850.879 728.264 851.482 728.428 851.999 728.756C852.52 729.085 852.924 729.545 853.213 730.138C853.504 730.732 853.65 731.426 853.65 732.222C853.65 733.01 853.504 733.7 853.213 734.29C852.924 734.88 852.52 735.339 851.999 735.667C851.482 735.995 850.879 736.159 850.19 736.159ZM850.19 735.105C850.713 735.105 851.144 734.971 851.482 734.702C851.82 734.434 852.071 734.081 852.233 733.643C852.396 733.206 852.477 732.732 852.477 732.222C852.477 731.711 852.396 731.236 852.233 730.795C852.071 730.354 851.82 729.998 851.482 729.726C851.144 729.454 850.713 729.318 850.19 729.318C849.666 729.318 849.235 729.454 848.897 729.726C848.559 729.998 848.309 730.354 848.146 730.795C847.984 731.236 847.903 731.711 847.903 732.222C847.903 732.732 847.984 733.206 848.146 733.643C848.309 734.081 848.559 734.434 848.897 734.702C849.235 734.971 849.666 735.105 850.19 735.105ZM856.535 733.216L856.515 731.764H856.754L860.094 728.364H861.546L857.987 731.963H857.887L856.535 733.216ZM855.441 736V725.818H856.614V736H855.441ZM860.293 736L857.31 732.222L858.146 731.406L861.785 736H860.293ZM863.056 736V728.364H864.23V736H863.056ZM863.653 727.091C863.424 727.091 863.227 727.013 863.061 726.857C862.899 726.701 862.818 726.514 862.818 726.295C862.818 726.077 862.899 725.889 863.061 725.734C863.227 725.578 863.424 725.5 863.653 725.5C863.882 725.5 864.077 725.578 864.24 725.734C864.405 725.889 864.488 726.077 864.488 726.295C864.488 726.514 864.405 726.701 864.24 726.857C864.077 727.013 863.882 727.091 863.653 727.091ZM869.58 736.159C868.844 736.159 868.21 735.997 867.676 735.672C867.146 735.344 866.737 734.886 866.448 734.3C866.163 733.71 866.021 733.024 866.021 732.241C866.021 731.459 866.163 730.77 866.448 730.173C866.737 729.573 867.138 729.106 867.651 728.771C868.168 728.433 868.772 728.264 869.461 728.264C869.859 728.264 870.251 728.33 870.639 728.463C871.027 728.596 871.38 728.811 871.698 729.109C872.016 729.404 872.27 729.795 872.459 730.283C872.648 730.77 872.742 731.37 872.742 732.082V732.58H866.856V731.565H871.549C871.549 731.134 871.463 730.75 871.29 730.412C871.121 730.074 870.879 729.807 870.565 729.612C870.253 729.416 869.885 729.318 869.461 729.318C868.994 729.318 868.589 729.434 868.248 729.666C867.91 729.895 867.65 730.193 867.467 730.561C867.285 730.929 867.194 731.323 867.194 731.744V732.42C867.194 732.997 867.293 733.486 867.492 733.887C867.694 734.285 867.974 734.588 868.332 734.797C868.69 735.002 869.106 735.105 869.58 735.105C869.888 735.105 870.167 735.062 870.415 734.976C870.667 734.886 870.884 734.754 871.067 734.578C871.249 734.399 871.39 734.177 871.489 733.912L872.623 734.23C872.504 734.615 872.303 734.953 872.021 735.244C871.74 735.533 871.392 735.758 870.977 735.92C870.563 736.08 870.097 736.159 869.58 736.159ZM878.464 738.864V728.364H879.598V729.577H879.737C879.823 729.444 879.943 729.275 880.095 729.07C880.251 728.861 880.473 728.675 880.761 728.513C881.053 728.347 881.447 728.264 881.945 728.264C882.588 728.264 883.154 728.425 883.645 728.746C884.135 729.068 884.518 729.524 884.793 730.114C885.068 730.704 885.206 731.4 885.206 732.202C885.206 733.01 885.068 733.711 884.793 734.305C884.518 734.895 884.137 735.352 883.65 735.677C883.163 735.998 882.601 736.159 881.964 736.159C881.474 736.159 881.081 736.078 880.786 735.915C880.491 735.75 880.264 735.562 880.105 735.354C879.946 735.142 879.823 734.966 879.737 734.827H879.638V738.864H878.464ZM879.618 732.182C879.618 732.759 879.702 733.267 879.871 733.708C880.04 734.146 880.287 734.489 880.612 734.737C880.937 734.982 881.335 735.105 881.805 735.105C882.296 735.105 882.705 734.976 883.033 734.717C883.365 734.455 883.613 734.104 883.779 733.663C883.948 733.219 884.033 732.725 884.033 732.182C884.033 731.645 883.95 731.161 883.784 730.73C883.622 730.296 883.375 729.953 883.043 729.701C882.715 729.446 882.303 729.318 881.805 729.318C881.328 729.318 880.927 729.439 880.602 729.681C880.277 729.92 880.032 730.254 879.866 730.685C879.701 731.113 879.618 731.612 879.618 732.182ZM890.098 736.159C889.409 736.159 888.804 735.995 888.283 735.667C887.766 735.339 887.362 734.88 887.07 734.29C886.782 733.7 886.638 733.01 886.638 732.222C886.638 731.426 886.782 730.732 887.07 730.138C887.362 729.545 887.766 729.085 888.283 728.756C888.804 728.428 889.409 728.264 890.098 728.264C890.787 728.264 891.391 728.428 891.908 728.756C892.428 729.085 892.832 729.545 893.121 730.138C893.412 730.732 893.558 731.426 893.558 732.222C893.558 733.01 893.412 733.7 893.121 734.29C892.832 734.88 892.428 735.339 891.908 735.667C891.391 735.995 890.787 736.159 890.098 736.159ZM890.098 735.105C890.622 735.105 891.053 734.971 891.391 734.702C891.729 734.434 891.979 734.081 892.141 733.643C892.304 733.206 892.385 732.732 892.385 732.222C892.385 731.711 892.304 731.236 892.141 730.795C891.979 730.354 891.729 729.998 891.391 729.726C891.053 729.454 890.622 729.318 890.098 729.318C889.574 729.318 889.143 729.454 888.805 729.726C888.467 729.998 888.217 730.354 888.055 730.795C887.892 731.236 887.811 731.711 887.811 732.222C887.811 732.732 887.892 733.206 888.055 733.643C888.217 734.081 888.467 734.434 888.805 734.702C889.143 734.971 889.574 735.105 890.098 735.105ZM896.523 725.818V736H895.349V725.818H896.523ZM898.672 736V728.364H899.845V736H898.672ZM899.268 727.091C899.039 727.091 898.842 727.013 898.676 726.857C898.514 726.701 898.433 726.514 898.433 726.295C898.433 726.077 898.514 725.889 898.676 725.734C898.842 725.578 899.039 725.5 899.268 725.5C899.497 725.5 899.692 725.578 899.855 725.734C900.02 725.889 900.103 726.077 900.103 726.295C900.103 726.514 900.02 726.701 899.855 726.857C899.692 727.013 899.497 727.091 899.268 727.091ZM905.096 736.159C904.38 736.159 903.764 735.99 903.247 735.652C902.73 735.314 902.332 734.848 902.053 734.255C901.775 733.662 901.636 732.984 901.636 732.222C901.636 731.446 901.778 730.762 902.063 730.168C902.352 729.572 902.753 729.106 903.267 728.771C903.784 728.433 904.387 728.264 905.076 728.264C905.613 728.264 906.097 728.364 906.528 728.562C906.959 728.761 907.312 729.04 907.587 729.398C907.862 729.756 908.033 730.173 908.099 730.651H906.926C906.836 730.303 906.637 729.994 906.329 729.726C906.024 729.454 905.613 729.318 905.096 729.318C904.639 729.318 904.238 729.437 903.893 729.676C903.552 729.911 903.285 730.245 903.093 730.675C902.904 731.103 902.809 731.605 902.809 732.182C902.809 732.772 902.902 733.286 903.088 733.723C903.276 734.161 903.542 734.5 903.883 734.742C904.228 734.984 904.632 735.105 905.096 735.105C905.401 735.105 905.678 735.052 905.926 734.946C906.175 734.84 906.385 734.688 906.558 734.489C906.73 734.29 906.853 734.051 906.926 733.773H908.099C908.033 734.223 907.869 734.629 907.607 734.991C907.348 735.349 907.005 735.634 906.578 735.846C906.153 736.055 905.66 736.159 905.096 736.159ZM910.57 738.864C910.371 738.864 910.194 738.847 910.038 738.814C909.882 738.784 909.774 738.754 909.715 738.724L910.013 737.69C910.298 737.763 910.55 737.79 910.769 737.77C910.987 737.75 911.181 737.652 911.35 737.477C911.523 737.304 911.68 737.024 911.823 736.636L912.041 736.04L909.218 728.364H910.49L912.598 734.449H912.678L914.786 728.364H916.058L912.817 737.114C912.671 737.508 912.49 737.835 912.275 738.093C912.06 738.355 911.809 738.549 911.524 738.675C911.243 738.801 910.924 738.864 910.57 738.864Z" fill="#C2C9FF"/>
<a href="https://dekks.app/legal/cookies">
<rect fill="black" fill-opacity="0" x="337.34" y="1.52841" width="90.0728" height="16.9432"/>
</a>
<path d="M946.5 725L934.5 737M934.5 725L946.5 737" stroke="white" stroke-width="1.3" stroke-linecap="round" stroke-linejoin="round"/>
<rect x="1" y="1" width="1438" height="798" rx="41" fill="#0057FA"/>
<rect x="1" y="1" width="1438" height="798" rx="41" stroke="black" stroke-width="2" stroke-dasharray="12 12"/>
<rect x="1" y="1" width="1438" height="798" rx="41" stroke="#0100FE" stroke-width="2" stroke-dasharray="12 12"/>
<rect x="1" y="1" width="1438" height="798" rx="41" stroke="white" stroke-width="2" stroke-dasharray="12 12"/>
<rect x="527.999" y="2" width="378" height="796" fill="#0100FE"/>
<rect x="1438" y="211" width="378" height="1436" transform="rotate(90 1438 211)" fill="#0100FE"/>
<g clip-path="url(#clip1_48_6963)">
<g filter="url(#filter0_d_48_6963)">
<path d="M1086.98 -296L789 -166.218L1062.3 461.275L1162.09 272.349L1360.28 331.493L1086.98 -296Z" fill="#0100FE"/>
</g>
</g>
<g clip-path="url(#clip2_48_6963)">
<g filter="url(#filter1_d_48_6963)">
<path d="M343.02 -296L641 -166.218L367.703 461.275L267.912 272.349L69.7221 331.493L343.02 -296Z" fill="#0100FE"/>
</g>
</g>
</g>
<defs>
<filter id="filter0_d_48_6963" x="776.6" y="-299.4" width="608.078" height="794.075" filterUnits="userSpaceOnUse" color-interpolation-filters="sRGB">
<feFlood flood-opacity="0" result="BackgroundImageFix"/>
<feColorMatrix in="SourceAlpha" type="matrix" values="0 0 0 0 0 0 0 0 0 0 0 0 0 0 0 0 0 0 127 0" result="hardAlpha"/>
<feOffset dx="6" dy="15"/>
<feGaussianBlur stdDeviation="9.2"/>
<feComposite in2="hardAlpha" operator="out"/>
<feColorMatrix type="matrix" values="0 0 0 0 0 0 0 0 0 0 0 0 0 0 0 0 0 0 0.25 0"/>
<feBlend mode="normal" in2="BackgroundImageFix" result="effect1_dropShadow_48_6963"/>
<feBlend mode="normal" in="SourceGraphic" in2="effect1_dropShadow_48_6963" result="shape"/>
</filter>
<filter id="filter1_d_48_6963" x="57.3222" y="-299.4" width="608.078" height="794.075" filterUnits="userSpaceOnUse" color-interpolation-filters="sRGB">
<feFlood flood-opacity="0" result="BackgroundImageFix"/>
<feColorMatrix in="SourceAlpha" type="matrix" values="0 0 0 0 0 0 0 0 0 0 0 0 0 0 0 0 0 0 127 0" result="hardAlpha"/>
<feOffset dx="6" dy="15"/>
<feGaussianBlur stdDeviation="9.2"/>
<feComposite in2="hardAlpha" operator="out"/>
<feColorMatrix type="matrix" values="0 0 0 0 0 0 0 0 0 0 0 0 0 0 0 0 0 0 0.25 0"/>
<feBlend mode="normal" in2="BackgroundImageFix" result="effect1_dropShadow_48_6963"/>
<feBlend mode="normal" in="SourceGraphic" in2="effect1_dropShadow_48_6963" result="shape"/>
</filter>
<clipPath id="clip0_48_6963">
<rect width="1440" height="800" rx="42" fill="white"/>
</clipPath>
<clipPath id="clip1_48_6963">
<rect width="583" height="480" fill="white" transform="translate(809 2)"/>
</clipPath>
<clipPath id="clip2_48_6963">
<rect width="583" height="480" fill="white" transform="matrix(-1 0 0 1 621 2)"/>
</clipPath>
</defs>
</svg>
