<svg width="20" height="20" viewBox="0 0 20 20" fill="none" xmlns="http://www.w3.org/2000/svg">
<path fill-rule="evenodd" clip-rule="evenodd" d="M2 0C0.895431 0 0 0.895431 0 2V18C0 19.1046 0.895431 20 2 20H18C19.1046 20 20 19.1046 20 18V2C20 0.895431 19.1046 0 18 0H2ZM12.2526 4C13.4104 4.1781 14.5178 4.49087 15.5535 4.92125C17.3644 7.32307 18.2642 10.032 17.932 13.1564C16.5464 14.0765 15.2024 14.6347 13.881 15C13.5538 14.6016 13.2644 14.1769 13.014 13.7318C13.4909 13.5708 13.949 13.3721 14.3819 13.1404C14.2686 13.0651 14.1566 12.9863 14.0472 12.9053C11.4459 13.9989 8.58546 13.9989 5.95279 12.9053C5.84457 12.9863 5.73256 13.0651 5.61805 13.1404C6.04969 13.371 6.5065 13.5696 6.98345 13.7306C6.73302 14.1769 6.44233 14.6005 6.11638 14.9989C4.79627 14.6336 3.4535 14.0753 2.06794 13.1564C1.78479 10.4612 2.35109 7.72718 4.44013 4.92353C5.47584 4.49202 6.58454 4.1781 7.74357 4C7.88704 4.22832 8.05693 4.5354 8.17144 4.77969C9.37956 4.61531 10.599 4.61531 11.8298 4.77969C11.9443 4.5354 12.1104 4.22832 12.2526 4ZM5.9037 10.0457C5.9037 10.8436 6.55181 11.4989 7.34212 11.4989C8.14628 11.4989 8.78178 10.8436 8.78053 10.0457C8.79437 9.24658 8.14628 8.59134 7.34212 8.59134C6.53797 8.59134 5.9037 9.24773 5.9037 10.0457ZM11.2194 10.0457C11.2194 10.8436 11.8675 11.4989 12.6578 11.4989C13.462 11.4989 14.0962 10.8436 14.0962 10.0457C14.1101 9.24658 13.462 8.59134 12.6578 8.59134C11.8537 8.59134 11.2194 9.24773 11.2194 10.0457Z" fill="#0057FA"/>
</svg>
