<svg width="20" height="20" viewBox="0 0 20 20" fill="none" xmlns="http://www.w3.org/2000/svg">
<path fill-rule="evenodd" clip-rule="evenodd" d="M2 0C0.895431 0 0 0.895431 0 2V18C0 19.1046 0.895431 20 2 20H18C19.1046 20 20 19.1046 20 18V2C20 0.895431 19.1046 0 18 0H2ZM16.9149 4.42549L14.5651 15.7282C14.5098 15.995 14.1968 16.116 13.976 15.9555L10.7684 13.6267C10.5736 13.4853 10.3081 13.4928 10.1217 13.6448L8.34321 15.0945C8.13684 15.2633 7.8258 15.1692 7.74677 14.915L6.80318 11.8804C6.61943 11.2895 6.17247 10.8169 5.59269 10.6005L3.32141 9.75284C2.99732 9.63143 2.99455 9.17389 3.31771 9.04941L16.4114 3.9982C16.689 3.89086 16.9754 4.13402 16.9149 4.42549Z" fill="#0057FA"/>
<path fill-rule="evenodd" clip-rule="evenodd" d="M13.8255 6.01973L7.31178 10.3776C7.06211 10.545 6.94461 10.8725 7.02515 11.1791L7.72941 13.8672C7.77951 14.0576 8.0339 14.0382 8.05828 13.8414L8.24131 12.3673C8.27589 12.0898 8.39771 11.8339 8.58671 11.6429L13.9624 6.21486C14.063 6.11361 13.9425 5.94167 13.8255 6.01973Z" fill="#0057FA"/>
</svg>
