<svg width="24" height="25" viewBox="0 0 24 25" fill="none" xmlns="http://www.w3.org/2000/svg">
<rect x="2" y="2.41602" width="20" height="20" rx="2" fill="#B9BADB"/>
<path d="M17.5535 7.33726C16.5178 6.90689 15.4104 6.59411 14.2526 6.41602C14.1104 6.64433 13.9443 6.95142 13.8298 7.19571C12.599 7.03132 11.3796 7.03132 10.1714 7.19571C10.0569 6.95142 9.88704 6.64433 9.74357 6.41602C8.58454 6.59411 7.47584 6.90804 6.44013 7.33954C4.3511 10.1432 3.78479 12.8772 4.06794 15.5724C5.4535 16.4914 6.79627 17.0496 8.11638 17.4149C8.44233 17.0165 8.73302 16.593 8.98345 16.1466C8.5065 15.9857 8.04969 15.787 7.61805 15.5564C7.73256 15.4811 7.84457 15.4023 7.95279 15.3213C10.5855 16.4149 13.4459 16.4149 16.0472 15.3213C16.1566 15.4023 16.2686 15.4811 16.3819 15.5564C15.949 15.7882 15.4909 15.9868 15.014 16.1478C15.2644 16.593 15.5538 17.0176 15.881 17.416C17.2024 17.0507 18.5464 16.4925 19.932 15.5724C20.2642 12.448 19.3644 9.73908 17.5535 7.33726ZM9.34212 13.9149C8.55181 13.9149 7.9037 13.2596 7.9037 12.4617C7.9037 11.6637 8.53797 11.0074 9.34212 11.0074C10.1463 11.0074 10.7944 11.6626 10.7805 12.4617C10.7818 13.2596 10.1463 13.9149 9.34212 13.9149ZM14.6578 13.9149C13.8675 13.9149 13.2194 13.2596 13.2194 12.4617C13.2194 11.6637 13.8537 11.0074 14.6578 11.0074C15.462 11.0074 16.1101 11.6626 16.0962 12.4617C16.0962 13.2596 15.462 13.9149 14.6578 13.9149Z" fill="#000B36"/>
</svg>
