<svg width="48" height="48" viewBox="0 0 48 48" fill="none" xmlns="http://www.w3.org/2000/svg">
    <mask id="mask0_38_6388" style="mask-type:alpha" maskUnits="userSpaceOnUse" x="0" y="0" width="48" height="48">
        <circle cx="24" cy="24" r="24" fill="#D9D9D9"/>
    </mask>
    <g mask="url(#mask0_38_6388)">
        <rect width="48" height="48" fill="#004692"/>
        <path d="M28.5255 22.0029L27.1113 23.4171L44.0818 40.3877L45.496 38.9735L28.5255 22.0029Z" fill="#F5F7F8"/>
        <path d="M24.7542 25.7741L22.3972 28.1312L39.3678 45.1017L41.7248 42.7447L24.7542 25.7741Z" fill="#F5F7F8"/>
        <path d="M24.7542 25.7741L27.1113 23.4171L44.0818 40.3877L41.7248 42.7447L24.7542 25.7741Z" fill="#DD2033"/>
        <path d="M25.4962 28.1283L24.082 26.7141L7.1114 43.6847L8.52562 45.0989L25.4962 28.1283Z" fill="#F5F7F8"/>
        <path d="M21.7249 24.3571L19.3679 22.0001L2.39736 38.9706L4.75438 41.3276L21.7249 24.3571Z" fill="#F5F7F8"/>
        <path d="M21.7249 24.3571L24.082 26.7141L7.1114 43.6847L4.75438 41.3276L21.7249 24.3571Z" fill="#DD2033"/>
        <path d="M20.0373 27.099L21.4515 25.6848L4.48092 8.71422L3.06671 10.1284L20.0373 27.099Z" fill="#F5F7F8"/>
        <path d="M23.8085 23.3278L26.1655 20.9707L9.19496 4.00017L6.83794 6.35719L23.8085 23.3278Z" fill="#F5F7F8"/>
        <path d="M23.8085 23.3278L21.4515 25.6848L4.48092 8.71422L6.83794 6.35719L23.8085 23.3278Z" fill="#DD2033"/>
        <path d="M21.7336 20.9733L23.1478 22.3875L40.1183 5.41696L38.7041 4.00274L21.7336 20.9733Z" fill="#F5F7F8"/>
        <path d="M25.5048 24.7445L27.8618 27.1016L44.8324 10.131L42.4754 7.77398L25.5048 24.7445Z" fill="#F5F7F8"/>
        <path d="M25.5048 24.7445L23.1478 22.3875L40.1183 5.41696L42.4754 7.77398L25.5048 24.7445Z" fill="#DD2033"/>
        <path fill-rule="evenodd" clip-rule="evenodd" d="M20 48H16.6667L16.6667 31.3333H0V28H16.6667L16.6667 20L0 20V16.6667L16.6667 16.6667L16.6667 0H20L20 16.6667H28L28 0H31.3333L31.3333 16.6667L48 16.6667V20L31.3333 20V28L48 28V31.3333L31.3333 31.3333L31.3333 48H28L28 31.3333H20L20 48ZM28 20H20L20 28H28V20Z" fill="#F5F7F8"/>
        <path d="M20 48H28L28 28H48V20L28 20L28 0H20L20 20L0 20V28H20L20 48Z" fill="#DD2033"/>
    </g>
</svg>
