<svg width="48" height="48" viewBox="0 0 48 48" fill="none" xmlns="http://www.w3.org/2000/svg">
    <mask id="mask0_36_4846" style="mask-type:alpha" maskUnits="userSpaceOnUse" x="0" y="0" width="49" height="48">
        <circle cx="24.0001" cy="24.0001" r="24" transform="rotate(180 24.0001 24.0001)" fill="#D9D9D9"/>
    </mask>
    <g mask="url(#mask0_36_4846)">
        <rect width="48" height="48" fill="#A00009"/>
        <rect x="48.0001" y="12.0001" width="24" height="48" transform="rotate(90 48.0001 12.0001)" fill="#F1B434"/>
        <path fill-rule="evenodd" clip-rule="evenodd" d="M15.0668 13.1112H16.4001V14.0001L17.7334 14.0001V15.3334H16.4001V16.5791C16.7923 16.3522 17.2477 16.2223 17.7334 16.2223C19.2062 16.2223 20.4001 17.4162 20.4001 18.889C20.4001 19.6788 20.0567 20.3884 19.5112 20.8767V22.0001H11.9556V20.8766C11.4101 20.3883 11.0668 19.6787 11.0668 18.889C11.0668 17.4162 12.2607 16.2223 13.7334 16.2223C14.2192 16.2223 14.6745 16.3522 15.0668 16.5791V15.3334H13.7334V14.0001L15.0668 14.0001V13.1112ZM15.7334 17.1251L15.7211 17.1112H15.7458L15.7334 17.1251ZM15.7211 20.6668L15.7334 20.6529L15.7458 20.6668H15.7211Z" fill="#E26E00"/>
        <path d="M9.73352 22.0001L21.7335 22.0001L21.7335 28.548C21.7335 31.1837 20.1337 33.5556 17.6899 34.5429V34.5429C16.4349 35.05 15.0321 35.05 13.7771 34.5429V34.5429C11.3334 33.5556 9.73352 31.1837 9.73352 28.548L9.73352 22.0001Z" fill="#F5F7F8"/>
        <mask id="mask1_36_4846" style="mask-type:alpha" maskUnits="userSpaceOnUse" x="9" y="22" width="13" height="13">
            <path d="M9.73352 22.0001H21.7335V28.548C21.7335 31.1837 20.1337 33.5556 17.6899 34.5429V34.5429C16.4349 35.05 15.0321 35.05 13.7771 34.5429V34.5429C11.3334 33.5556 9.73352 31.1837 9.73352 28.548V22.0001Z" fill="#F5F7F8"/>
        </mask>
        <g mask="url(#mask1_36_4846)">
            <rect x="9.73352" y="22.0001" width="6" height="6.66667" fill="#DD2033"/>
            <rect x="9.73352" y="28.6667" width="6" height="6.66667" fill="#E26E00"/>
            <rect x="15.7335" y="28.6667" width="6" height="6.66667" fill="#DD2033"/>
        </g>
        <path d="M23.0668 22.0001H25.0668V34.6667H23.0668V22.0001Z" fill="#F5F7F8"/>
        <path d="M6.40027 22.0001H8.40027V34.6667H6.40027V22.0001Z" fill="#F5F7F8"/>
    </g>
</svg>
