<svg width="24" height="25" viewBox="0 0 24 25" fill="none" xmlns="http://www.w3.org/2000/svg">
<g clip-path="url(#clip0_1347_253)">
<path fill-rule="evenodd" clip-rule="evenodd" d="M19.5565 2.41602C20.9051 2.41602 22 3.51094 22 4.85953V19.9725C22 21.3211 20.9051 22.416 19.5565 22.416H15.3976V14.8803H17.9991L18.4941 11.6529H15.3976V9.55848C15.3976 8.67555 15.8301 7.81488 17.2171 7.81488H18.625V5.06723C18.625 5.06723 17.3473 4.84918 16.1257 4.84918C13.5754 4.84918 11.9085 6.39484 11.9085 9.19309V11.6529H9.07363V14.8803H11.9085V22.416H4.44352C3.09492 22.416 2 21.3211 2 19.9725V4.85953C2 3.51094 3.09488 2.41602 4.44352 2.41602H19.5565V2.41602Z" fill="#B9BADB"/>
</g>
<defs>
<clipPath id="clip0_1347_253">
<rect width="20" height="20" fill="white" transform="translate(2 2.41602)"/>
</clipPath>
</defs>
</svg>
