<svg width="24" height="25" viewBox="0 0 24 25" fill="none" xmlns="http://www.w3.org/2000/svg">
<g clip-path="url(#clip0_1347_234)">
<path d="M12 2.41602C14.717 2.41602 15.056 2.42602 16.122 2.47602C17.187 2.52602 17.912 2.69302 18.55 2.94102C19.21 3.19502 19.766 3.53902 20.322 4.09402C20.8305 4.59391 21.224 5.1986 21.475 5.86602C21.722 6.50302 21.89 7.22902 21.94 8.29402C21.987 9.36002 22 9.69902 22 12.416C22 15.133 21.99 15.472 21.94 16.538C21.89 17.603 21.722 18.328 21.475 18.966C21.2247 19.6338 20.8311 20.2386 20.322 20.738C19.822 21.2463 19.2173 21.6398 18.55 21.891C17.913 22.138 17.187 22.306 16.122 22.356C15.056 22.403 14.717 22.416 12 22.416C9.283 22.416 8.944 22.406 7.878 22.356C6.813 22.306 6.088 22.138 5.45 21.891C4.78233 21.6405 4.17753 21.247 3.678 20.738C3.16941 20.2382 2.77593 19.6335 2.525 18.966C2.277 18.329 2.11 17.603 2.06 16.538C2.013 15.472 2 15.133 2 12.416C2 9.69902 2.01 9.36002 2.06 8.29402C2.11 7.22802 2.277 6.50402 2.525 5.86602C2.77524 5.19819 3.1688 4.59334 3.678 4.09402C4.17767 3.58525 4.78243 3.19174 5.45 2.94102C6.088 2.69302 6.812 2.52602 7.878 2.47602C8.944 2.42902 9.283 2.41602 12 2.41602ZM12 7.41602C10.6739 7.41602 9.40215 7.9428 8.46447 8.88048C7.52678 9.81816 7 11.0899 7 12.416C7 13.7421 7.52678 15.0139 8.46447 15.9515C9.40215 16.8892 10.6739 17.416 12 17.416C13.3261 17.416 14.5979 16.8892 15.5355 15.9515C16.4732 15.0139 17 13.7421 17 12.416C17 11.0899 16.4732 9.81816 15.5355 8.88048C14.5979 7.9428 13.3261 7.41602 12 7.41602ZM18.5 7.16602C18.5 6.8345 18.3683 6.51655 18.1339 6.28213C17.8995 6.04771 17.5815 5.91602 17.25 5.91602C16.9185 5.91602 16.6005 6.04771 16.3661 6.28213C16.1317 6.51655 16 6.8345 16 7.16602C16 7.49754 16.1317 7.81548 16.3661 8.0499C16.6005 8.28432 16.9185 8.41602 17.25 8.41602C17.5815 8.41602 17.8995 8.28432 18.1339 8.0499C18.3683 7.81548 18.5 7.49754 18.5 7.16602ZM12 9.41602C12.7956 9.41602 13.5587 9.73209 14.1213 10.2947C14.6839 10.8573 15 11.6204 15 12.416C15 13.2117 14.6839 13.9747 14.1213 14.5373C13.5587 15.0999 12.7956 15.416 12 15.416C11.2044 15.416 10.4413 15.0999 9.87868 14.5373C9.31607 13.9747 9 13.2117 9 12.416C9 11.6204 9.31607 10.8573 9.87868 10.2947C10.4413 9.73209 11.2044 9.41602 12 9.41602Z" fill="#B9BADB"/>
</g>
<defs>
<clipPath id="clip0_1347_234">
<rect width="24" height="24" fill="white" transform="translate(0 0.416016)"/>
</clipPath>
</defs>
</svg>
