<svg width="143" height="24" fill="none" xmlns="http://www.w3.org/2000/svg"><path fill-rule="evenodd" clip-rule="evenodd" d="M.134 13.8A12.095 12.095 0 0 1 0 12C0 5.373 5.373 0 12 0a12 12 0 0 1 10.72 6.6h-4.285a8.403 8.403 0 0 0-14.641 3.6h20.072c.088.587.134 1.188.134 1.8 0 6.627-5.373 12-12 12a12 12 0 0 1-10.73-6.62l4.224-.066a8.399 8.399 0 0 0 4.706 2.893V13.8H.134ZM13.8 20.207a8.411 8.411 0 0 0 6.407-6.407H13.8v6.407Z" fill="#21CCE7"/><path fill-rule="evenodd" clip-rule="evenodd" d="M71.21 14.13c0-3.089-2.201-5.37-5.027-5.37-1.474 0-2.605.585-3.372 1.514V4.5h-2.604v14.738h2.604v-1.272c.767.948 1.898 1.534 3.372 1.534 2.826 0 5.026-2.281 5.026-5.37Zm-2.605-.02c0 1.796-1.211 3.048-2.887 3.048-1.635 0-2.927-1.252-2.927-3.048 0-1.777 1.292-3.008 2.927-3.008 1.676 0 2.887 1.231 2.887 3.008Z" fill="#F4F6F6"/><path d="M39.613 19.5c-3.593 0-5.693-2.06-6.238-4.3l2.604-.787c.384 1.493 1.716 2.685 3.816 2.685 1.696 0 2.725-.868 2.725-1.797 0-.767-.504-1.272-1.756-1.696l-3.493-1.13c-1.837-.626-3.19-1.777-3.17-3.574-.02-2.22 2.14-4.058 5.29-4.058 3.028 0 5.088 1.615 5.653 3.594l-2.544.767c-.404-1.171-1.615-1.958-3.25-1.958-1.454 0-2.382.706-2.382 1.534 0 .666.424 1.03 1.514 1.393l3.129 1.05c2.14.706 3.775 1.635 3.775 3.896 0 2.483-2.281 4.381-5.673 4.381Z" fill="#F4F6F6"/><path fill-rule="evenodd" clip-rule="evenodd" d="M55.185 9.022v1.292c-.747-.969-1.898-1.554-3.372-1.554-2.826 0-5.027 2.281-5.027 5.37s2.201 5.37 5.027 5.37c1.474 0 2.625-.606 3.372-1.534v1.272h2.584V9.022h-2.584Zm.02 5.088c0 1.796-1.292 3.048-2.947 3.048-1.676 0-2.867-1.252-2.867-3.048 0-1.777 1.19-3.008 2.867-3.008 1.655 0 2.947 1.231 2.947 3.008Z" fill="#F4F6F6"/><path d="M75.747 19.238h-2.625V9.022h2.625v10.216Z" fill="#F4F6F6"/><path fill-rule="evenodd" clip-rule="evenodd" d="M83.11 19.5c-3.149 0-5.45-2.302-5.45-5.37 0-3.069 2.301-5.37 5.45-5.37 3.15 0 5.451 2.301 5.451 5.37 0 3.068-2.301 5.37-5.45 5.37Zm0-2.382c1.716 0 2.887-1.272 2.887-2.988s-1.17-2.988-2.887-2.988c-1.716 0-2.907 1.272-2.907 2.988s1.191 2.988 2.907 2.988Z" fill="#F4F6F6"/><path d="M101.915 9.022v1.514c.605-1.17 1.756-1.857 3.371-1.655v2.483c-2.18-.343-3.371.666-3.371 3.432v4.442H99.27V9.022h2.645Z" fill="#F4F6F6"/><path fill-rule="evenodd" clip-rule="evenodd" d="M114.81 10.314V9.022h2.584v10.216h-2.584v-1.272c-.747.928-1.898 1.534-3.372 1.534-2.826 0-5.026-2.281-5.026-5.37s2.2-5.37 5.026-5.37c1.474 0 2.625.585 3.372 1.554Zm-2.927 6.844c1.655 0 2.947-1.252 2.947-3.048 0-1.777-1.292-3.008-2.947-3.008-1.676 0-2.867 1.231-2.867 3.008 0 1.796 1.191 3.048 2.867 3.048ZM127.554 4.5h2.585v14.738h-2.584v-1.272c-.747.928-1.898 1.534-3.372 1.534-2.826 0-5.027-2.281-5.027-5.37s2.201-5.37 5.027-5.37c1.474 0 2.625.585 3.372 1.554l-.001-5.814Zm-2.927 12.658c1.656 0 2.948-1.252 2.948-3.048 0-1.777-1.292-3.008-2.948-3.008-1.675 0-2.866 1.231-2.866 3.008 0 1.796 1.191 3.048 2.866 3.048ZM142.5 13.989c0 .343-.02.646-.061.989h-7.974c.202 1.312 1.151 2.321 3.008 2.321 1.312 0 2.1-.605 2.503-1.372l2.383.686c-.586 1.332-2.262 2.887-4.947 2.887-3.25 0-5.511-2.14-5.511-5.35 0-3.069 2.12-5.39 5.33-5.39 3.331 0 5.269 2.301 5.269 5.229Zm-5.289-3.009c-1.555 0-2.585 1.09-2.746 2.241h5.431c-.122-1.251-1.091-2.24-2.685-2.24Z" fill="#F4F6F6"/><path d="M99.72 5.106v2.483h-4.764v11.649H92.23V7.588h-4.764V5.107H99.72ZM74.424 7.589a1.564 1.564 0 0 1-1.574-1.575c0-.828.706-1.514 1.574-1.514.889 0 1.595.686 1.595 1.514 0 .888-.706 1.575-1.595 1.575Z" fill="#F4F6F6"/></svg>