<svg width="24" height="25" viewBox="0 0 24 25" fill="none" xmlns="http://www.w3.org/2000/svg">
<path fill-rule="evenodd" clip-rule="evenodd" d="M4 2.41602C2.89543 2.41602 2 3.31145 2 4.41602V20.416C2 21.5206 2.89543 22.416 4 22.416H20C21.1046 22.416 22 21.5206 22 20.416V4.41602C22 3.31145 21.1046 2.41602 20 2.41602H4ZM18.9149 6.84151L16.5651 18.1442C16.5098 18.411 16.1968 18.532 15.976 18.3715L12.7684 16.0427C12.5736 15.9013 12.3081 15.9088 12.1217 16.0608L10.3432 17.5105C10.1368 17.6793 9.8258 17.5852 9.74677 17.331L8.80318 14.2964C8.61943 13.7055 8.17247 13.2329 7.59269 13.0165L5.32141 12.1689C4.99732 12.0474 4.99455 11.5899 5.31771 11.4654L18.4114 6.41421C18.689 6.30687 18.9754 6.55004 18.9149 6.84151Z" fill="#B9BADB"/>
<path fill-rule="evenodd" clip-rule="evenodd" d="M15.8255 8.43575L9.31178 12.7936C9.06211 12.961 8.94461 13.2885 9.02515 13.5951L9.72941 16.2832C9.77951 16.4737 10.0339 16.4542 10.0583 16.2574L10.2413 14.7833C10.2759 14.5058 10.3977 14.2499 10.5867 14.0589L15.9624 8.63088C16.063 8.52962 15.9425 8.35769 15.8255 8.43575Z" fill="#B9BADB"/>
</svg>
