<svg width="64" height="64" viewBox="0 0 64 64" fill="none" xmlns="http://www.w3.org/2000/svg">
<path d="M32 64V64C33.3543 47.2771 46.4101 33.881 63.0927 32.097L64 32V32C47.063 31.7018 33.1878 18.4593 32.1 1.55459L32 -3.8147e-06L31.9828 0.458354C31.3339 17.7728 17.3218 31.5916 0 32V32L1.63894 32.1575C18.2648 33.7547 31.1961 47.317 32 64V64Z" fill="#D9D9D9"/>
<path d="M32 64V64C33.3543 47.2771 46.4101 33.881 63.0927 32.097L64 32V32C47.063 31.7018 33.1878 18.4593 32.1 1.55459L32 -3.8147e-06L31.9828 0.458354C31.3339 17.7728 17.3218 31.5916 0 32V32L1.63894 32.1575C18.2648 33.7547 31.1961 47.317 32 64V64Z" fill="url(#paint0_diamond_1_1508)"/>
<defs>
<radialGradient id="paint0_diamond_1_1508" cx="0" cy="0" r="1" gradientUnits="userSpaceOnUse" gradientTransform="translate(32 31.9825) rotate(-89.0444) scale(22.5738 43.3339)">
<stop offset="0.180503" stop-color="#F81717"/>
<stop offset="0.402374" stop-color="#EBCD62"/>
<stop offset="0.625816" stop-color="#FEBD16"/>
<stop offset="0.875655" stop-color="#ED0AAE"/>
</radialGradient>
</defs>
</svg>
