<svg width="85" height="85" viewBox="0 0 85 85" fill="none" xmlns="http://www.w3.org/2000/svg">
<path d="M42.5 85V85C44.2986 62.7899 61.6384 44.9982 83.795 42.6289L85 42.5V42.5C62.5055 42.1039 44.0776 24.5162 42.6329 2.0647L42.5 0L42.4772 0.608768C41.6153 23.6045 23.0055 41.9576 0 42.5V42.5L2.17672 42.7091C24.2579 44.8305 41.4323 62.8429 42.5 85V85Z" fill="#D9D9D9"/>
<path d="M42.5 85V85C44.2986 62.7899 61.6384 44.9982 83.795 42.6289L85 42.5V42.5C62.5055 42.1039 44.0776 24.5162 42.6329 2.0647L42.5 0L42.4772 0.608768C41.6153 23.6045 23.0055 41.9576 0 42.5V42.5L2.17672 42.7091C24.2579 44.8305 41.4323 62.8429 42.5 85V85Z" fill="url(#paint0_diamond_1_593)"/>
<defs>
<radialGradient id="paint0_diamond_1_593" cx="0" cy="0" r="1" gradientUnits="userSpaceOnUse" gradientTransform="translate(42.5 42.4767) rotate(-89.0444) scale(29.9809 57.5528)">
<stop offset="0.180503" stop-color="#F81717"/>
<stop offset="0.402374" stop-color="#EBCD62"/>
<stop offset="0.625816" stop-color="#FEBD16"/>
<stop offset="0.875655" stop-color="#ED0AAE"/>
</radialGradient>
</defs>
</svg>
