<svg width="110" height="16" viewBox="0 0 110 16" fill="none" xmlns="http://www.w3.org/2000/svg">
<path fill-rule="evenodd" clip-rule="evenodd" d="M38.2095 10.1299C38.2095 7.04105 36.009 4.75976 33.1826 4.75976C31.7089 4.75976 30.5783 5.34522 29.8111 6.27389L29.8115 0.5H27.2068V15.2376H29.8111V13.9657C30.5783 14.9145 31.7089 15.5 33.1826 15.5C36.009 15.5 38.2095 13.2187 38.2095 10.1299ZM35.6052 10.1097C35.6052 11.9065 34.3939 13.1581 32.7183 13.1581C31.083 13.1581 29.791 11.9065 29.791 10.1097C29.791 8.33311 31.083 7.10162 32.7183 7.10162C34.3939 7.10162 35.6052 8.33311 35.6052 10.1097Z" fill="#F4F6F6"/>
<path d="M6.61323 15.5C3.01968 15.5 0.920088 13.4408 0.375 11.1999L2.97931 10.4125C3.36289 11.9065 4.69532 13.0976 6.79492 13.0976C8.49075 13.0976 9.52036 12.2295 9.52036 11.3008C9.52036 10.5337 9.01565 10.0289 7.76397 9.60499L4.27137 8.47444C2.43422 7.8486 1.0816 6.69786 1.10178 4.90109C1.0816 2.68036 3.24176 0.843213 6.39115 0.843213C9.41942 0.843213 11.4786 2.45829 12.0439 4.43675L9.50017 5.20391C9.0964 4.03299 7.8851 3.24564 6.24983 3.24564C4.79627 3.24564 3.8676 3.95223 3.8676 4.77996C3.8676 5.44617 4.29156 5.80957 5.38173 6.17296L8.51094 7.22276C10.6509 7.92935 12.2862 8.85802 12.2862 11.1191C12.2862 13.6023 10.0049 15.5 6.61323 15.5Z" fill="#F4F6F6"/>
<path fill-rule="evenodd" clip-rule="evenodd" d="M22.1849 5.02222V6.31428C21.4379 5.34523 20.2872 4.75977 18.8134 4.75977C15.9871 4.75977 13.7865 7.04106 13.7865 10.1299C13.7865 13.2187 15.9871 15.5 18.8134 15.5C20.2872 15.5 21.4379 14.8944 22.1849 13.9657V15.2376H24.769V5.02222H22.1849ZM22.2051 10.1097C22.2051 11.9065 20.913 13.1582 19.2576 13.1582C17.582 13.1582 16.3908 11.9065 16.3908 10.1097C16.3908 8.33312 17.582 7.10162 19.2576 7.10162C20.913 7.10162 22.2051 8.33312 22.2051 10.1097Z" fill="#F4F6F6"/>
<path d="M42.7466 15.2375H40.1221V5.02219H42.7466V15.2375Z" fill="#F4F6F6"/>
<path fill-rule="evenodd" clip-rule="evenodd" d="M50.1105 15.5C46.9611 15.5 44.6596 13.1985 44.6596 10.1299C44.6596 7.06125 46.9611 4.75977 50.1105 4.75977C53.2598 4.75977 55.5613 7.06125 55.5613 10.1299C55.5613 13.1985 53.2598 15.5 50.1105 15.5ZM50.1105 13.1178C51.8265 13.1178 52.9974 11.8459 52.9974 10.1299C52.9974 8.41387 51.8265 7.142 50.1105 7.142C48.3944 7.142 47.2033 8.41387 47.2033 10.1299C47.2033 11.8459 48.3944 13.1178 50.1105 13.1178Z" fill="#F4F6F6"/>
<path d="M68.9148 5.02225V6.53638C69.5205 5.36545 70.6712 4.67904 72.2863 4.88093V7.3641C70.1059 7.0209 68.9148 8.03032 68.9148 10.7961V15.2376H66.2701V5.02225H68.9148Z" fill="#F4F6F6"/>
<path fill-rule="evenodd" clip-rule="evenodd" d="M81.8099 6.31428V5.02222H84.394V15.2376H81.8099V13.9657C81.063 14.8944 79.9122 15.5 78.4385 15.5C75.6121 15.5 73.4115 13.2187 73.4115 10.1299C73.4115 7.04106 75.6121 4.75977 78.4385 4.75977C79.9122 4.75977 81.063 5.34523 81.8099 6.31428ZM78.8826 13.1582C80.5381 13.1582 81.8301 11.9065 81.8301 10.1097C81.8301 8.33312 80.5381 7.10162 78.8826 7.10162C77.207 7.10162 76.0158 8.33312 76.0158 10.1097C76.0158 11.9065 77.207 13.1582 78.8826 13.1582Z" fill="#F4F6F6"/>
<path fill-rule="evenodd" clip-rule="evenodd" d="M94.5545 0.5H97.1388V15.2376H94.5547V13.9657C93.8077 14.8943 92.6569 15.5 91.1832 15.5C88.3568 15.5 86.1563 13.2187 86.1563 10.1299C86.1563 7.04105 88.3568 4.75976 91.1832 4.75976C92.6569 4.75976 93.8077 5.34522 94.5547 6.31427L94.5545 0.5ZM91.6273 13.1581C93.2828 13.1581 94.5748 11.9065 94.5748 10.1097C94.5748 8.33311 93.2828 7.10162 91.6273 7.10162C89.9517 7.10162 88.7606 8.33311 88.7606 10.1097C88.7606 11.9065 89.9517 13.1581 91.6273 13.1581Z" fill="#F4F6F6"/>
<path fill-rule="evenodd" clip-rule="evenodd" d="M109.5 9.98857C109.5 10.3318 109.48 10.6346 109.439 10.9778H101.465C101.667 12.29 102.616 13.2995 104.473 13.2995C105.785 13.2995 106.573 12.6938 106.976 11.9267L109.359 12.6131C108.773 13.9455 107.097 15.5 104.412 15.5C101.162 15.5 98.901 13.36 98.901 10.1501C98.901 7.08144 101.021 4.75977 104.231 4.75977C107.562 4.75977 109.5 7.06125 109.5 9.98857ZM104.211 6.98049C102.656 6.98049 101.626 8.07067 101.465 9.22141H106.896C106.774 7.96973 105.805 6.98049 104.211 6.98049Z" fill="#F4F6F6"/>
<path d="M66.7202 1.10564V3.58882H61.9557V15.2375H59.2303V3.58882H54.4658V1.10564H66.7202Z" fill="#F4F6F6"/>
<path d="M41.4243 3.58883C40.5562 3.58883 39.8496 2.90242 39.8496 2.01413C39.8496 1.18641 40.5562 0.5 41.4243 0.5C42.3126 0.5 43.0192 1.18641 43.0192 2.01413C43.0192 2.90242 42.3126 3.58883 41.4243 3.58883Z" fill="#F4F6F6"/>
</svg>
