<svg width="24" height="24" viewBox="0 0 24 24" fill="none" xmlns="http://www.w3.org/2000/svg">
<path fill-rule="evenodd" clip-rule="evenodd" d="M0.134101 13.8C0.0457798 13.2129 0 12.6118 0 12C0 5.37258 5.37258 0 12 0C16.6851 0 20.7431 2.68491 22.7193 6.6H18.4345C16.8937 4.76583 14.583 3.6 12 3.6C7.97866 3.6 4.61731 6.42578 3.79331 10.2H23.8659C23.9542 10.7871 24 11.3882 24 12C24 18.6274 18.6274 24 12 24C7.307 24 3.24322 21.306 1.27075 17.3801L5.4943 17.3142C6.67189 18.7541 8.31807 19.7958 10.2001 20.2067V13.8H0.134101ZM13.8001 20.2067C16.9944 19.5093 19.5093 16.9943 20.2067 13.8H13.8001V20.2067Z" fill="#21CCE7"/>
</svg>
