<svg width="244" height="87" viewBox="0 0 244 87" fill="none" xmlns="http://www.w3.org/2000/svg">
<path d="M0.850541 70.2006L12.1634 54.7127L17.3057 74.6748H31.3611L29.3042 38.1923L47.4734 39.2248L61.8717 44.0433L49.1876 78.1165L60.5005 82.2466L71.8134 63.317L77.6412 83.6233H91.011L84.8403 47.1408L103.695 45.0758L118.093 47.1408L109.866 83.6233L121.864 85L131.12 65.0379L138.662 83.6233L151.004 80.8699L141.062 47.1408L156.146 42.3224L172.258 44.0433L167.802 78.1165L179.8 79.4932L186.314 58.1544L195.227 76.7398L206.882 72.9539L193.513 39.9132L206.882 34.0622L223.338 32.3413L220.252 67.1029H232.936L238.421 47.485L248.02 61.5961L256.59 58.1544L243.22 26.4904L263 15.821L260.257 6.18407L238.421 15.821C240.021 10.6583 240.341 0.470774 228.823 1.02145C214.424 1.7098 219.224 15.821 223.338 19.2628L204.14 24.0812L188.713 27.5229C190.77 21.3278 191.182 9.62592 176.372 12.3793C173.058 13.6413 168.144 18.781 175.001 29.2438L155.46 31.653L135.92 34.0622C139.348 30.1615 143.832 19.1792 131.12 15.821C118.093 12.3793 117.408 31.6529 122.893 34.0622H103.695L82.0978 32.6856C85.8688 28.326 90.2568 18.6433 77.6412 14.7885C72.3847 14.3296 63.243 17.06 68.728 31.653L49.1876 28.2112L27.9329 24.4254C32.321 21.3967 32.7323 16.7389 32.3895 14.7885C32.0467 10.6584 28.9614 2.94891 19.3625 5.15162C9.76373 7.35434 10.5636 16.6241 12.1634 20.9836L-11.9147 12.3793L-15 22.0161L6.33558 33.3739L-9.77672 63.6613L0.850541 70.2006Z" stroke="url(#paint0_linear_0_955)" stroke-width="2"/>
<defs>
<linearGradient id="paint0_linear_0_955" x1="123.407" y1="1" x2="129.059" y2="84.9948" gradientUnits="userSpaceOnUse">
<stop stop-color="#17F871"/>
<stop offset="1" stop-color="#17F871" stop-opacity="0"/>
</linearGradient>
</defs>
</svg>
