<svg width="279" height="190" viewBox="0 0 279 190" fill="none" xmlns="http://www.w3.org/2000/svg">
<path d="M1 197V163.411M1 163.411H37.743M1 163.411L130 192.911M37.743 163.411V130.889M37.743 163.411L166.743 192.911M37.743 130.889H68.096M37.743 130.889L166.743 160.389M68.096 130.889V102.098M68.096 130.889L197.096 160.389M68.096 102.098H101.644M68.096 102.098L197.096 131.598M101.644 102.098V67.9761M101.644 102.098L230.644 131.598M101.644 67.9761H136.789M101.644 67.9761L230.644 97.4761M136.789 67.9761V32.7878M136.789 67.9761L265.789 97.4761M136.789 32.7878H173M136.789 32.7878L265.789 62.2878M173 32.7878V-4M173 32.7878L302 62.2878M130 226.5V192.911M130 192.911H166.743M166.743 192.911V160.389M166.743 160.389H197.096M197.096 160.389V131.598M197.096 131.598H230.644M230.644 131.598V97.4761M230.644 97.4761H265.789M265.789 97.4761V62.2878M265.789 62.2878H302M302 62.2878V25.5" stroke="url(#paint0_linear_0_800)" stroke-width="2"/>
<defs>
<linearGradient id="paint0_linear_0_800" x1="84" y1="13.5001" x2="246.155" y2="85.3086" gradientUnits="userSpaceOnUse">
<stop stop-color="#17F871"/>
<stop offset="1" stop-color="#17F871" stop-opacity="0"/>
</linearGradient>
</defs>
</svg>
