<svg width="324" height="392" viewBox="0 0 324 392" fill="none" xmlns="http://www.w3.org/2000/svg">
<path d="M31.0133 551.447C30.5436 551.737 30.3984 552.354 30.6889 552.823C30.9795 553.293 31.5958 553.438 32.0654 553.148L31.0133 551.447ZM175.719 133.717L174.759 133.997L175.719 133.717ZM302.198 95.3375C301.712 95.0748 301.105 95.2557 300.842 95.7415L296.562 103.658C296.299 104.144 296.48 104.751 296.966 105.014C297.452 105.276 298.059 105.095 298.321 104.61L302.126 97.5724L309.163 101.377C309.649 101.64 310.256 101.459 310.519 100.973C310.781 100.487 310.6 99.8805 310.115 99.6179L302.198 95.3375ZM32.0654 553.148C49.6015 542.3 70.4787 521.237 91.1455 493.171C111.826 465.087 132.343 429.926 149.137 390.812C182.713 312.608 201.461 218.462 176.679 133.437L174.759 133.997C199.361 218.405 180.778 312.046 147.299 390.023C130.564 428.999 110.122 464.027 89.5351 491.985C68.9346 519.96 48.2366 540.792 31.0133 551.447L32.0654 553.148ZM176.679 133.437C161.218 80.391 138.198 54.8193 114.26 48.9971C90.286 43.1664 65.9862 57.2713 48.3053 82.1527C12.9143 131.957 3.19518 225.959 74.5192 296.428L75.9248 295.006C5.37953 225.306 15.0436 132.413 49.9356 83.3112C67.3963 58.7398 90.963 45.3894 113.787 50.9405C136.646 56.5002 159.355 81.1475 174.759 133.997L176.679 133.437ZM74.5192 296.428C110.099 331.582 146.054 349.757 179.052 353.893C212.068 358.032 242.041 348.102 265.57 327.204C312.6 285.432 333.722 200.049 302.68 95.9314L300.764 96.5028C331.676 200.186 310.483 284.638 264.242 325.708C241.135 346.231 211.734 355.974 179.3 351.909C146.849 347.841 111.28 329.937 75.9248 295.006L74.5192 296.428Z" fill="url(#paint0_linear_98_223)"/>
<path d="M251 80.5L289 0.5M316.5 72L235.5 10" stroke="url(#paint1_linear_98_223)" stroke-width="2"/>
<defs>
<linearGradient id="paint0_linear_98_223" x1="312" y1="142.5" x2="40" y2="246.5" gradientUnits="userSpaceOnUse">
<stop stop-color="#17F871"/>
<stop offset="1" stop-color="#17F871" stop-opacity="0"/>
</linearGradient>
<linearGradient id="paint1_linear_98_223" x1="256.027" y1="7.95455" x2="285.659" y2="53.9957" gradientUnits="userSpaceOnUse">
<stop stop-color="#17F871"/>
<stop offset="1" stop-color="#17F871" stop-opacity="0"/>
</linearGradient>
</defs>
</svg>
