<svg width="48" height="48" viewBox="0 0 48 48" fill="none" xmlns="http://www.w3.org/2000/svg">
    <mask id="mask0_46_7111" style="mask-type:alpha" maskUnits="userSpaceOnUse" x="0" y="0" width="48" height="48">
        <circle cx="24" cy="24" r="24" fill="#D9D9D9"/>
    </mask>
    <g mask="url(#mask0_46_7111)">
        <rect width="18.6667" height="48" fill="#005B33"/>
        <rect x="18.6666" width="29.3333" height="48" fill="#DD2033"/>
        <circle cx="18.2666" cy="24" r="9.33333" fill="#F1B434"/>
        <path fill-rule="evenodd" clip-rule="evenodd" d="M12.2666 18.6666V25.2145C12.2666 27.8502 13.8664 30.2221 16.3102 31.2095C17.5652 31.7166 18.968 31.7166 20.223 31.2095C22.6668 30.2221 24.2666 27.8502 24.2666 25.2145V18.6666H12.2666Z" fill="#F5F7F8"/>
        <path fill-rule="evenodd" clip-rule="evenodd" d="M21.5999 21.3333H14.9333V25.2145C14.9333 26.7632 15.8733 28.1569 17.3092 28.737C17.9233 28.9852 18.6099 28.9852 19.224 28.737C20.6599 28.1569 21.5999 26.7632 21.5999 25.2145V21.3333ZM12.2666 18.6666V25.2145C12.2666 27.8502 13.8664 30.2221 16.3102 31.2095C17.5652 31.7166 18.968 31.7166 20.223 31.2095C22.6668 30.2221 24.2666 27.8502 24.2666 25.2145V18.6666H12.2666Z" fill="#DD2033"/>
    </g>
</svg>
