<svg width="871" height="804" viewBox="0 0 871 804" fill="none" xmlns="http://www.w3.org/2000/svg">
<path d="M659.407 125.203C773.327 256.65 789.636 160.499 783.551 95.9928C777.465 75.3021 765.294 45.6049 765.294 92.3415C765.294 139.078 745.821 150.762 736.084 150.762C724.4 162.446 688.617 95.9928 644.801 88.6902C600.986 85.7691 588.999 119.486 597.334 136.157C670.36 282.209 599.421 196.664 568.124 187.275C509.703 169.749 514.572 238.394 524.308 274.907L542.565 293.163C516.276 202.611 554.736 210.4 571.775 220.137C619.242 252.999 695.189 314.341 648.453 209.183C601.716 104.026 641.224 104.224 659.407 125.203Z" stroke="url(#paint0_linear_1_1164)" stroke-width="3.43"/>
<path d="M798.634 323.958C762.106 320.914 679.411 332.836 642.629 339.178C628.677 356.935 609.145 388.643 642.629 373.423C676.113 358.203 760.584 354.398 798.634 354.398V323.958Z" fill="#0100FE"/>
<path d="M113.563 498.904C107.414 479.711 76.6478 444.641 62.0335 429.505C42.7462 430.602 9.61209 435.189 31.3739 444.76C53.1358 454.33 77.0657 493.883 86.3105 512.464L113.563 498.904Z" fill="url(#paint1_linear_1_1164)"/>
<path d="M260.391 209.081L104.252 663.432C100.952 673.034 101.529 683.685 107.847 691.631C112.161 697.056 118.1 703.35 125.731 708.875C133.69 714.638 141.587 718.321 147.789 720.618C155.515 723.48 163.916 722.017 171.204 718.174L600.208 491.943" stroke="#0100FE" stroke-width="7.65786"/>
<path d="M600.282 490.318C595.224 496.155 586.057 498.918 572.499 497.737C559.048 496.564 542.129 491.555 522.809 483.005C484.214 465.927 436.863 435.094 390.008 394.494C343.154 353.895 305.896 311.413 283.5 275.641C272.288 257.735 264.922 241.7 261.847 228.553C258.748 215.302 260.179 205.834 265.237 199.997C270.295 194.16 279.462 191.397 293.019 192.578C306.471 193.751 323.39 198.76 342.71 207.31C381.305 224.388 428.656 255.221 475.51 295.821C522.364 336.42 559.622 378.902 582.019 414.674C593.231 432.58 600.597 448.615 603.672 461.762C606.771 475.013 605.34 484.481 600.282 490.318Z" stroke="#0100FE" stroke-width="7.65786"/>
<path d="M483.984 552.986C458.988 581.832 379.808 554.164 307.13 491.187C234.452 428.211 195.797 353.774 220.793 324.927" stroke="#0100FE" stroke-width="7.65786"/>
<path d="M370.499 610.521C345.503 639.367 282.689 625.881 230.2 580.398C177.711 534.915 155.422 474.66 180.418 445.814" stroke="#0100FE" stroke-width="7.65786"/>
<rect x="453.613" y="187.868" width="45.66" height="45.66" transform="rotate(30 453.613 187.868)" fill="url(#paint2_linear_1_1164)"/>
<rect x="386.609" y="681" width="45.66" height="45.66" transform="rotate(30 386.609 681)" fill="url(#paint3_linear_1_1164)"/>
<rect x="172.52" y="61.6389" width="45.66" height="45.66" transform="rotate(4.33031 172.52 61.6389)" fill="url(#paint4_diamond_1_1164)"/>
<rect x="541.668" y="65.6516" width="45.66" height="45.66" transform="rotate(44.1815 541.668 65.6516)" fill="url(#paint5_linear_1_1164)"/>
<rect x="728.355" y="501.918" width="39.2039" height="39.2039" transform="rotate(44.1815 728.355 501.918)" fill="url(#paint6_diamond_1_1164)"/>
<rect x="560.205" y="564.031" width="35.3749" height="35.3749" transform="rotate(30 560.205 564.031)" stroke="#0100FE" stroke-width="3.82893"/>
<rect x="657.395" y="563.452" width="39.2039" height="39.2039" transform="rotate(-9.26147 657.395 563.452)" fill="#0100FE"/>
<rect x="728.84" y="647.903" width="39.2039" height="39.2039" transform="rotate(120 728.84 647.903)" stroke="url(#paint7_linear_1_1164)" stroke-width="8.43119"/>
<path d="M41.676 266.917C169.524 257.785 127.923 316.382 91.1411 346.822C77.1894 354.432 55.3741 363.564 79.7261 339.212C104.078 314.86 100.019 298.625 94.9461 293.552C94.9461 281.376 41.676 297.357 15.041 278.332C-9.31101 257.024 2.01156 233.21 15.041 228.867C129.191 190.817 47.6553 198.427 26.4561 187.012C-13.1159 165.704 25.1877 132.474 49.2861 118.522H68.3111C7.43106 152.006 31.5294 167.987 45.4811 171.792C87.3361 179.402 158.87 187.012 79.7261 217.452C0.582047 247.892 21.271 268.374 41.676 266.917Z" fill="#0100FE"/>
<path d="M294.958 57.4789C370.111 39.7997 335.68 13.5666 309.07 2.65987C299.682 0.78626 285.5 -0.552147 303.871 9.08313C322.241 18.7184 322.819 28.7816 320.812 32.6089C322.996 39.6103 289.498 39.9752 277.595 55.6922C267.413 72.3124 278.195 83.9752 286.466 84.1357C358.93 85.5418 310.68 95.7898 300.537 106.156C281.604 125.506 309.59 137.744 325.949 141.444L336.889 138.032C295.876 129.697 306.867 116.186 314.207 111.495C336.91 99.6126 376.678 82.4066 325.709 79.0979C274.74 75.7891 282.963 60.3006 294.958 57.4789Z" stroke="#0100FE" stroke-width="1.91447"/>
<defs>
<linearGradient id="paint0_linear_1_1164" x1="799.5" y1="41.5" x2="528" y2="318" gradientUnits="userSpaceOnUse">
<stop stop-color="#0100FE"/>
<stop offset="1" stop-color="#0100FE" stop-opacity="0"/>
</linearGradient>
<linearGradient id="paint1_linear_1_1164" x1="92.8032" y1="456.083" x2="44.4857" y2="480.123" gradientUnits="userSpaceOnUse">
<stop stop-color="#0100FE"/>
<stop offset="1" stop-color="#0100FE" stop-opacity="0"/>
</linearGradient>
<linearGradient id="paint2_linear_1_1164" x1="476.443" y1="187.868" x2="476.443" y2="233.528" gradientUnits="userSpaceOnUse">
<stop stop-color="#0100FE"/>
<stop offset="1" stop-color="#0100FE" stop-opacity="0"/>
</linearGradient>
<linearGradient id="paint3_linear_1_1164" x1="409.439" y1="681" x2="409.439" y2="726.66" gradientUnits="userSpaceOnUse">
<stop stop-color="#0100FE"/>
<stop offset="1" stop-color="#0100FE" stop-opacity="0"/>
</linearGradient>
<radialGradient id="paint4_diamond_1_1164" cx="0" cy="0" r="1" gradientUnits="userSpaceOnUse" gradientTransform="translate(195.35 84.4689) rotate(135.819) scale(37.0124)">
<stop stop-color="#1E1DF1"/>
<stop offset="0.817215" stop-color="#000B36"/>
</radialGradient>
<linearGradient id="paint5_linear_1_1164" x1="564.498" y1="65.6516" x2="564.498" y2="111.312" gradientUnits="userSpaceOnUse">
<stop stop-color="#0100FE"/>
<stop offset="1" stop-color="#0100FE" stop-opacity="0"/>
</linearGradient>
<radialGradient id="paint6_diamond_1_1164" cx="0" cy="0" r="1" gradientUnits="userSpaceOnUse" gradientTransform="translate(747.957 521.52) rotate(135.819) scale(31.779)">
<stop stop-color="#1E1DF1"/>
<stop offset="0.817215" stop-color="#000B36"/>
</radialGradient>
<linearGradient id="paint7_linear_1_1164" x1="748.442" y1="647.903" x2="748.442" y2="687.107" gradientUnits="userSpaceOnUse">
<stop stop-color="#0100FE"/>
<stop offset="1" stop-color="#0100FE" stop-opacity="0"/>
</linearGradient>
</defs>
</svg>
