<svg width="316" height="631" viewBox="0 0 316 631" fill="none" xmlns="http://www.w3.org/2000/svg">
<g clip-path="url(#clip0_1_1788)">
<rect x="1" y="1" width="314" height="629" rx="41" fill="#0057FA"/>
<rect x="1" y="1" width="314" height="629" rx="41" stroke="black" stroke-width="2" stroke-dasharray="12 12"/>
<rect x="1" y="1" width="314" height="629" rx="41" stroke="#0100FE" stroke-width="2" stroke-dasharray="12 12"/>
<rect x="1" y="1" width="314" height="629" rx="41" stroke="white" stroke-width="2" stroke-dasharray="12 12"/>
<rect x="74" y="3" width="169" height="626" fill="#0100FE"/>
<rect x="314" y="237" width="156" height="312" transform="rotate(90 314 237)" fill="#0100FE"/>
<g clip-path="url(#clip1_1_1788)">
<g filter="url(#filter0_d_1_1788)">
<path d="M234.098 -105.163L127.943 -58.9278L225.305 164.617L260.856 97.3118L331.461 118.382L234.098 -105.163Z" fill="#0100FE"/>
</g>
</g>
<g clip-path="url(#clip2_1_1788)">
<g filter="url(#filter1_d_1_1788)">
<path d="M76.8977 -105.163L183.053 -58.9278L85.6911 164.617L50.1406 97.3118L-20.4645 118.382L76.8977 -105.163Z" fill="#0100FE"/>
</g>
</g>
<g filter="url(#filter2_f_1_1788)">
<circle cx="268.663" cy="265.268" r="1.19168" fill="#FFDAFC"/>
<circle opacity="0.85" cx="114.885" cy="1.44847" r="1.02485" transform="rotate(47 114.885 1.44847)" fill="#FFDAFC"/>
<circle opacity="0.92" cx="274.416" cy="20.2011" r="1.83519" transform="rotate(131 274.416 20.2011)" fill="#FFDAFC"/>
<circle opacity="0.89" cx="89.5984" cy="40.4507" r="2.12358" transform="rotate(-23 89.5984 40.4507)" fill="#FFDAFC"/>
<circle opacity="0.99" cx="230.374" cy="26.7927" r="1.91384" transform="rotate(11 230.374 26.7927)" fill="#FFDAFC"/>
<circle opacity="0.97" cx="66.0568" cy="69.3197" r="0.953345" transform="rotate(14 66.0568 69.3197)" fill="#FFDAFC"/>
<circle opacity="0.86" cx="195.822" cy="75.3745" r="1.29893" transform="rotate(-28 195.822 75.3745)" fill="#FFDAFC"/>
<circle opacity="0.81" cx="26.4271" cy="89.956" r="2.6217" transform="rotate(126 26.4271 89.956)" fill="#FFDAFC"/>
<circle opacity="0.75" cx="94.3671" cy="146.839" r="1.38235" transform="rotate(-91 94.3671 146.839)" fill="#FFDAFC"/>
<circle opacity="0.72" cx="234.31" cy="140.67" r="2.4644" transform="rotate(-87 234.31 140.67)" fill="#FFDAFC"/>
<circle opacity="0.7" cx="107.816" cy="171.535" r="0.798427" transform="rotate(100 107.816 171.535)" fill="#FFDAFC"/>
<circle opacity="0.96" cx="231.855" cy="177.318" r="1.04868" transform="rotate(164 231.855 177.318)" fill="#FFDAFC"/>
<circle opacity="0.72" cx="107.98" cy="215.45" r="2.49061" transform="rotate(26 107.98 215.45)" fill="#FFDAFC"/>
<circle opacity="0.98" cx="294.876" cy="204.344" r="1.23935" transform="rotate(88 294.876 204.344)" fill="#FFDAFC"/>
<circle opacity="0.81" cx="141.738" cy="237.681" r="1.3466" transform="rotate(-179 141.738 237.681)" fill="#FFDAFC"/>
<circle opacity="0.73" cx="241.122" cy="230.663" r="2.17601" transform="rotate(-2 241.122 230.663)" fill="#FFDAFC"/>
<circle opacity="0.8" cx="55.2908" cy="260.084" r="0.834177" transform="rotate(-4 55.2908 260.084)" fill="#FFDAFC"/>
<circle opacity="0.71" cx="217.407" cy="261.12" r="1.26318" transform="rotate(171 217.407 261.12)" fill="#FFDAFC"/>
<circle opacity="0.7" cx="275.323" cy="286.598" r="1.39427" transform="rotate(-78 275.323 286.598)" fill="#FFDAFC"/>
<circle opacity="0.92" cx="71.7598" cy="313.578" r="0.738843" transform="rotate(-124 71.7598 313.578)" fill="#FFDAFC"/>
<circle opacity="0.87" cx="255.691" cy="318.925" r="1.25127" transform="rotate(134 255.691 318.925)" fill="#FFDAFC"/>
<circle opacity="0.81" cx="121.266" cy="362.336" r="2.70035" transform="rotate(168 121.266 362.336)" fill="#FFDAFC"/>
<circle cx="229.081" cy="351.006" r="1.08443" transform="rotate(18 229.081 351.006)" fill="#FFDAFC"/>
<circle opacity="0.97" cx="141.424" cy="398.149" r="1.12018" transform="rotate(92 141.424 398.149)" fill="#FFDAFC"/>
<circle opacity="0.72" cx="206.439" cy="387.11" r="0.917595" transform="rotate(-89 206.439 387.11)" fill="#FFDAFC"/>
<circle opacity="0.98" cx="142.938" cy="422.698" r="1.17976" transform="rotate(66 142.938 422.698)" fill="#FFDAFC"/>
<circle opacity="0.99" cx="298.493" cy="433.008" r="0.715009" transform="rotate(110 298.493 433.008)" fill="#FFDAFC"/>
<circle opacity="0.83" cx="96.7842" cy="455.743" r="2.38575" transform="rotate(1 96.7842 455.743)" fill="#FFDAFC"/>
<circle opacity="0.83" cx="179.245" cy="458.874" r="0.78651" transform="rotate(-80 179.245 458.874)" fill="#FFDAFC"/>
<circle opacity="0.91" cx="28.7111" cy="473.983" r="1.33468" transform="rotate(58 28.7111 473.983)" fill="#FFDAFC"/>
<circle opacity="0.88" cx="160.913" cy="485.052" r="2.22844" transform="rotate(143 160.913 485.052)" fill="#FFDAFC"/>
<circle cx="112.581" cy="520.847" r="0.846094" transform="rotate(-157 112.581 520.847)" fill="#FFDAFC"/>
<circle opacity="0.84" cx="166.885" cy="524.91" r="0.810344" transform="rotate(21 166.885 524.91)" fill="#FFDAFC"/>
<circle opacity="0.98" cx="125.848" cy="555.513" r="1.43002" transform="rotate(-92 125.848 555.513)" fill="#FFDAFC"/>
<circle opacity="0.78" cx="250.652" cy="562.724" r="0.881844" transform="rotate(-94 250.652 562.724)" fill="#FFDAFC"/>
<circle opacity="0.78" cx="114.943" cy="584.227" r="1.37043" transform="rotate(-36 114.943 584.227)" fill="#FFDAFC"/>
<circle opacity="0.81" cx="240.7" cy="589.002" r="2.01871" transform="rotate(-58 240.7 589.002)" fill="#FFDAFC"/>
<circle opacity="0.92" cx="76.1189" cy="629.363" r="1.31085" transform="rotate(107 76.1189 629.363)" fill="#FFDAFC"/>
<circle opacity="0.91" cx="258.505" cy="599.853" r="1.65167" transform="rotate(174 258.505 599.853)" fill="#FFDAFC"/>
</g>
</g>
<defs>
<filter id="filter0_d_1_1788" x="123.525" y="-106.374" width="216.628" height="282.889" filterUnits="userSpaceOnUse" color-interpolation-filters="sRGB">
<feFlood flood-opacity="0" result="BackgroundImageFix"/>
<feColorMatrix in="SourceAlpha" type="matrix" values="0 0 0 0 0 0 0 0 0 0 0 0 0 0 0 0 0 0 127 0" result="hardAlpha"/>
<feOffset dx="2.1375" dy="5.34375"/>
<feGaussianBlur stdDeviation="3.2775"/>
<feComposite in2="hardAlpha" operator="out"/>
<feColorMatrix type="matrix" values="0 0 0 0 0 0 0 0 0 0 0 0 0 0 0 0 0 0 0.25 0"/>
<feBlend mode="normal" in2="BackgroundImageFix" result="effect1_dropShadow_1_1788"/>
<feBlend mode="normal" in="SourceGraphic" in2="effect1_dropShadow_1_1788" result="shape"/>
</filter>
<filter id="filter1_d_1_1788" x="-24.882" y="-106.374" width="216.628" height="282.889" filterUnits="userSpaceOnUse" color-interpolation-filters="sRGB">
<feFlood flood-opacity="0" result="BackgroundImageFix"/>
<feColorMatrix in="SourceAlpha" type="matrix" values="0 0 0 0 0 0 0 0 0 0 0 0 0 0 0 0 0 0 127 0" result="hardAlpha"/>
<feOffset dx="2.1375" dy="5.34375"/>
<feGaussianBlur stdDeviation="3.2775"/>
<feComposite in2="hardAlpha" operator="out"/>
<feColorMatrix type="matrix" values="0 0 0 0 0 0 0 0 0 0 0 0 0 0 0 0 0 0 0.25 0"/>
<feBlend mode="normal" in2="BackgroundImageFix" result="effect1_dropShadow_1_1788"/>
<feBlend mode="normal" in="SourceGraphic" in2="effect1_dropShadow_1_1788" result="shape"/>
</filter>
<filter id="filter2_f_1_1788" x="-11.5562" y="-3.57617" width="1036.94" height="638.25" filterUnits="userSpaceOnUse" color-interpolation-filters="sRGB">
<feFlood flood-opacity="0" result="BackgroundImageFix"/>
<feBlend mode="normal" in="SourceGraphic" in2="BackgroundImageFix" result="shape"/>
<feGaussianBlur stdDeviation="2" result="effect1_foregroundBlur_1_1788"/>
</filter>
<clipPath id="clip0_1_1788">
<rect width="316" height="631" fill="white"/>
</clipPath>
<clipPath id="clip1_1_1788">
<rect width="207.694" height="171" fill="white" transform="translate(135.066 1)"/>
</clipPath>
<clipPath id="clip2_1_1788">
<rect width="207.694" height="171" fill="white" transform="matrix(-1 0 0 1 175.93 1)"/>
</clipPath>
</defs>
</svg>
